<svg width="501" height="501" viewBox="0 0 501 501" fill="none" xmlns="http://www.w3.org/2000/svg">
<path d="M92.6692 138.565C162.739 58.8346 283.039 45.5646 336.669 71.1746C357.508 81.049 376.783 93.9297 393.879 109.405C396.119 111.405 398.296 113.461 400.409 115.575C407.008 122.074 413.197 128.977 418.939 136.245C425.822 144.938 432.03 154.145 437.509 163.785C445.36 177.502 451.579 192.091 456.039 207.255C458.99 217.203 460.927 227.426 461.819 237.765C463.349 257.175 462.019 276.765 459.409 296.015C459.169 297.855 458.909 299.695 458.629 301.535C458.559 302.045 458.489 302.535 458.409 303.065C455.539 322.235 451.479 341.575 442.409 358.295C432.509 376.565 397.969 427.255 360.509 428.565C341.079 429.255 323.919 416.565 306.309 407.565C278.309 393.285 246.619 390.485 215.719 389.655C184.819 388.825 153.539 389.715 123.429 382.055C93.3192 374.395 63.7992 356.805 48.4092 327.565C43.1792 317.625 39.2092 303.305 39.1992 291.845C39.1992 258.035 44.7192 228.465 54.3592 202.775C57.4204 194.583 60.9907 186.591 65.0492 178.845C70.9939 167.486 77.9983 156.715 85.9692 146.675L92.6692 138.565Z" fill="#FB5934"/>
<g opacity="0.7">
<path d="M93.0227 141.838C163.093 62.108 283.393 48.838 337.023 74.448C357.861 84.3224 377.137 97.2031 394.233 112.678C396.473 114.678 398.649 116.735 400.763 118.848C407.361 125.348 413.55 132.251 419.293 139.518C426.176 148.211 432.384 157.418 437.863 167.058C445.714 180.776 451.932 195.365 456.393 210.528C459.344 220.477 461.28 230.699 462.173 241.038C463.703 260.448 462.373 280.038 459.763 299.288C459.523 301.128 459.263 302.968 458.983 304.808C458.913 305.318 458.843 305.808 458.763 306.338C455.893 325.508 451.833 344.848 442.763 361.568C432.863 379.838 398.323 430.528 360.863 431.838C341.433 432.528 324.273 419.838 306.663 410.838C278.663 396.558 246.973 393.758 216.073 392.928C185.173 392.098 153.893 392.988 123.783 385.328C93.6727 377.668 64.1527 360.078 48.7627 330.838C43.5327 320.898 39.5627 306.578 39.5527 295.118C39.5527 261.308 45.0727 231.738 54.7127 206.048C57.7739 197.856 61.3442 189.864 65.4027 182.118C71.3474 170.76 78.3519 159.989 86.3227 149.948L93.0227 141.838Z" fill="white"/>
</g>
<path d="M39.1992 427.406H469.249" stroke="#263238" stroke-linecap="round" stroke-linejoin="round"/>
<path d="M370.16 282.328V282.438C370.16 282.618 370.2 282.808 370.28 283.008C370.728 285.199 371.061 287.412 371.28 289.638C371.47 291.548 371.62 293.728 371.66 296.158C371.755 301.774 371.371 307.388 370.51 312.938C370.29 314.398 370.03 315.938 369.72 317.478C369.23 320.018 368.63 322.678 367.89 325.428C367.56 326.708 367.18 328.018 366.78 329.338L366.31 330.948C366.13 331.598 365.95 332.248 365.78 332.948C364.631 337.391 363.713 341.89 363.03 346.428C362.18 352.078 361.65 357.688 361.36 362.998C360.97 370.078 360.99 376.618 361.16 381.998C361.156 382.088 361.156 382.178 361.16 382.268C361.34 387.738 361.68 392.028 361.91 394.468C362.04 395.898 362.13 396.708 362.14 396.758" stroke="#263238" stroke-linecap="round" stroke-linejoin="round"/>
<path d="M370.191 282.472C368.694 281.142 366.89 280.204 364.941 279.742L370.191 282.472Z" fill="white"/>
<path d="M370.191 282.472C368.694 281.142 366.89 280.204 364.941 279.742" stroke="#263238" stroke-linecap="round" stroke-linejoin="round"/>
<path d="M371.311 289.668L373.971 287.258" stroke="#263238" stroke-linecap="round" stroke-linejoin="round"/>
<path d="M367.921 325.437C367.782 324.735 367.574 324.048 367.301 323.387C366.907 322.417 366.371 321.51 365.711 320.697C365.218 320.086 364.658 319.532 364.041 319.047" stroke="#263238" stroke-linecap="round" stroke-linejoin="round"/>
<path d="M365.791 332.938C366.168 332.004 366.732 331.158 367.45 330.451C368.167 329.744 369.022 329.191 369.961 328.828" stroke="#263238" stroke-linecap="round" stroke-linejoin="round"/>
<path d="M361.17 370.137C362.06 369.057 362.73 364.967 363.09 362.767C363.18 362.247 363.25 361.767 363.32 361.477" fill="white"/>
<path d="M361.17 370.137C362.06 369.057 362.73 364.967 363.09 362.767C363.18 362.247 363.25 361.767 363.32 361.477" stroke="#263238" stroke-linecap="round" stroke-linejoin="round"/>
<path d="M354.32 377.562C354.616 377.532 354.914 377.532 355.21 377.562C356.52 377.689 357.771 378.17 358.828 378.954C359.885 379.738 360.708 380.795 361.21 382.012" fill="white"/>
<path d="M354.32 377.562C354.616 377.532 354.914 377.532 355.21 377.562C356.52 377.689 357.771 378.17 358.828 378.954C359.885 379.738 360.708 380.795 361.21 382.012" stroke="#263238" stroke-linecap="round" stroke-linejoin="round"/>
<path d="M369.751 317.557C369.751 317.557 370.221 301.327 361.311 295.438" stroke="#263238" stroke-linecap="round" stroke-linejoin="round"/>
<path d="M370.51 352.351C371.68 356.141 363.51 363.351 363.51 363.351C363.51 363.351 352.72 362.001 351.51 358.221C350.3 354.441 353.07 348.221 358.31 346.621C363.55 345.021 369.38 348.561 370.51 352.351Z" fill="#6E4E37"/>
<path d="M379.6 306.422C378.6 310.422 370.84 313.292 370.84 313.292C370.84 313.292 365.51 307.062 366.51 303.042C367.51 299.022 371.82 294.602 375.44 295.532C379.06 296.462 380.64 302.402 379.6 306.422Z" fill="#6E4E37"/>
<path d="M348.611 366.489C353.461 368.369 356.431 376.949 356.431 376.949C356.431 376.949 348.431 381.259 343.591 379.369C338.751 377.479 333.591 372.159 334.991 368.609C336.391 365.059 343.761 364.559 348.611 366.489Z" fill="#6E4E37"/>
<path d="M359.24 319.286C360.222 320.112 361.347 320.749 362.56 321.166C363.169 321.363 363.82 321.389 364.443 321.241C365.066 321.093 365.635 320.777 366.09 320.326C367.09 319.136 366.85 317.326 366.2 315.836C364.9 312.986 360.12 308.136 356.45 309.526C351.15 311.556 356.88 317.556 359.24 319.286Z" fill="#6E4E37"/>
<path d="M370.092 326.561C369.392 327.421 368.652 328.511 369.042 329.561C369.259 330.002 369.616 330.359 370.058 330.576C370.499 330.793 370.999 330.858 371.482 330.761C372.441 330.533 373.336 330.092 374.102 329.471C375.972 328.171 379.812 325.471 377.362 322.901C374.912 320.331 371.512 324.751 370.092 326.561Z" fill="#6E4E37"/>
<path d="M354.441 290.289C354.038 290.313 353.651 290.463 353.337 290.717C353.023 290.972 352.797 291.319 352.691 291.709C352.531 292.639 353.301 293.449 354.041 294.019C355.901 295.459 361.491 299.319 362.731 295.589C363.911 292.069 356.901 290.019 354.441 290.289Z" fill="#6E4E37"/>
<path d="M364.73 278.029C363.58 278.139 362.43 277.719 361.27 277.789C360.11 277.859 358.84 278.789 359.09 279.929C359.34 281.069 360.63 281.319 361.69 281.379C363.515 281.496 365.348 281.372 367.14 281.009C367.565 280.969 367.958 280.769 368.24 280.449C368.71 279.759 367.97 278.839 367.17 278.599C366.349 278.49 365.541 278.296 364.76 278.019L364.73 278.029Z" fill="#6E4E37"/>
<path d="M375.992 285.962C377.142 285.962 378.262 285.502 379.422 285.492C380.582 285.482 381.922 286.332 381.732 287.492C381.542 288.652 380.302 288.982 379.242 289.112C377.43 289.352 375.594 289.352 373.782 289.112C373.353 289.102 372.944 288.927 372.642 288.622C372.132 287.972 372.812 287.002 373.582 286.702C374.397 286.55 375.192 286.305 375.952 285.972L375.992 285.962Z" fill="#6E4E37"/>
<path d="M374.851 371.177C375.116 370.901 375.47 370.728 375.851 370.688C376.108 370.712 376.348 370.825 376.531 371.008C376.713 371.19 376.827 371.431 376.851 371.688C376.906 372.182 376.845 372.682 376.671 373.147C375.881 375.777 367.081 394.767 365.051 391.357C363.861 389.357 366.801 382.667 367.671 380.777C369.331 377.09 371.783 373.812 374.851 371.177Z" fill="#6E4E37"/>
<path d="M370.56 283.562C370.56 283.562 370.03 278.952 371.14 278.562" stroke="#263238" stroke-linecap="round" stroke-linejoin="round"/>
<path d="M369.58 278.752C370.147 277.124 371.125 275.671 372.42 274.532C373.81 273.532 376.04 273.452 377.05 274.842C378.18 276.392 377.05 278.742 375.32 279.572C373.59 280.402 371.55 280.152 369.65 279.882C369.65 279.602 369.65 279.322 369.65 279.042L369.58 278.752Z" fill="#6E4E37"/>
<path d="M374.32 427.167C364.893 428.757 355.267 428.757 345.84 427.167L334.76 394.477H385.4L374.32 427.167Z" fill="white" stroke="#263238" stroke-linecap="round" stroke-linejoin="round"/>
<path d="M181.061 190.992V191.102C181.101 191.282 181.141 191.472 181.181 191.672C181.634 193.862 181.967 196.076 182.181 198.302C182.371 200.212 182.511 202.392 182.561 204.822C182.663 210.424 182.288 216.024 181.441 221.562C181.221 223.022 180.961 224.562 180.651 226.102C180.161 228.642 179.551 231.302 178.821 234.052C178.481 235.332 178.111 236.642 177.711 237.962C177.551 238.502 177.391 239.032 177.241 239.572C177.091 240.112 176.871 240.872 176.701 241.572C175.552 246.015 174.634 250.514 173.951 255.052C173.101 260.702 172.581 266.312 172.291 271.622C171.901 278.702 171.911 285.242 172.091 290.622V290.892C172.281 296.362 172.611 300.652 172.851 303.102C172.971 304.522 173.071 305.332 173.071 305.382" stroke="#263238" stroke-linecap="round" stroke-linejoin="round"/>
<path d="M181.08 191.128C180.363 190.5 179.578 189.954 178.74 189.498C177.817 189.012 176.836 188.642 175.82 188.398" fill="white"/>
<path d="M181.08 191.128C180.363 190.5 179.578 189.954 178.74 189.498C177.817 189.012 176.836 188.642 175.82 188.398" stroke="#263238" stroke-linecap="round" stroke-linejoin="round"/>
<path d="M182.201 198.332L184.871 195.922" stroke="#263238" stroke-linecap="round" stroke-linejoin="round"/>
<path d="M178.822 234.101C178.679 233.399 178.468 232.712 178.192 232.051C177.797 231.081 177.262 230.174 176.602 229.361C176.109 228.75 175.549 228.196 174.932 227.711" stroke="#263238" stroke-linecap="round" stroke-linejoin="round"/>
<path d="M176.691 241.555C177.065 240.621 177.627 239.773 178.343 239.066C179.058 238.359 179.912 237.807 180.851 237.445" stroke="#263238" stroke-linecap="round" stroke-linejoin="round"/>
<path d="M172.061 278.801C172.951 277.721 173.631 273.631 173.991 271.431C174.071 270.911 174.151 270.431 174.211 270.141" fill="white"/>
<path d="M172.061 278.801C172.951 277.721 173.631 273.631 173.991 271.431C174.071 270.911 174.151 270.431 174.211 270.141" stroke="#263238" stroke-linecap="round" stroke-linejoin="round"/>
<path d="M165.211 286.179C165.51 286.149 165.812 286.149 166.111 286.179C167.42 286.309 168.669 286.792 169.725 287.575C170.782 288.359 171.606 289.414 172.111 290.629" fill="white"/>
<path d="M165.211 286.179C165.51 286.149 165.812 286.149 166.111 286.179C167.42 286.309 168.669 286.792 169.725 287.575C170.782 288.359 171.606 289.414 172.111 290.629" stroke="#263238" stroke-linecap="round" stroke-linejoin="round"/>
<path d="M180.641 226.182C180.641 226.182 181.121 209.952 172.201 204.062" stroke="#263238" stroke-linecap="round" stroke-linejoin="round"/>
<path d="M181.451 261.007C182.611 264.797 174.451 272.007 174.451 272.007C174.451 272.007 163.651 270.656 162.451 266.876C161.251 263.096 164.021 256.876 169.251 255.276C174.481 253.676 180.281 257.227 181.451 261.007Z" fill="#6E4E37"/>
<path d="M190.511 215.078C189.511 219.078 181.751 221.948 181.751 221.948C181.751 221.948 176.361 215.718 177.401 211.698C178.441 207.678 182.701 203.258 186.321 204.188C189.941 205.118 191.511 211.058 190.511 215.078Z" fill="#6E4E37"/>
<path d="M159.511 275.151C164.361 277.041 167.341 285.611 167.341 285.611C167.341 285.611 159.341 289.921 154.491 288.031C149.641 286.141 144.491 280.821 145.901 277.271C147.311 273.721 154.651 273.261 159.511 275.151Z" fill="#6E4E37"/>
<path d="M170.14 227.95C171.118 228.776 172.24 229.413 173.45 229.83C174.059 230.027 174.71 230.053 175.333 229.905C175.955 229.757 176.525 229.441 176.98 228.99C177.98 227.8 177.74 225.99 177.09 224.5C175.79 221.65 171.02 216.8 167.34 218.19C162.05 220.2 167.77 226.2 170.14 227.95Z" fill="#6E4E37"/>
<path d="M180.981 235.226C180.291 236.086 179.551 237.226 179.931 238.226C180.149 238.667 180.506 239.024 180.947 239.241C181.389 239.458 181.889 239.523 182.371 239.426C183.331 239.2 184.227 238.759 184.991 238.136C186.861 236.846 190.701 234.136 188.251 231.566C185.801 228.996 182.451 233.406 180.981 235.226Z" fill="#6E4E37"/>
<path d="M165.33 198.946C164.927 198.971 164.541 199.121 164.228 199.375C163.914 199.63 163.687 199.976 163.58 200.366C163.42 201.296 164.19 202.106 164.94 202.676C166.8 204.116 172.38 207.976 173.63 204.246C174.8 200.726 167.8 198.676 165.33 198.946Z" fill="#6E4E37"/>
<path d="M175.621 186.685C174.471 186.795 173.321 186.375 172.171 186.445C171.021 186.515 169.731 187.445 169.991 188.585C170.251 189.725 171.521 189.975 172.591 190.035C174.413 190.152 176.242 190.028 178.031 189.665C178.458 189.626 178.855 189.426 179.141 189.105C179.601 188.415 178.861 187.495 178.071 187.255C177.246 187.146 176.435 186.952 175.651 186.675L175.621 186.685Z" fill="#6E4E37"/>
<path d="M186.88 194.619C188.04 194.619 189.16 194.159 190.31 194.149C191.46 194.139 192.81 194.989 192.63 196.149C192.45 197.309 191.19 197.639 190.13 197.769C188.318 198.009 186.482 198.009 184.67 197.769C184.241 197.759 183.833 197.583 183.53 197.279C183.02 196.629 183.7 195.659 184.48 195.359C185.295 195.203 186.09 194.959 186.85 194.629L186.88 194.619Z" fill="#6E4E37"/>
<path d="M185.74 279.842C186.006 279.567 186.36 279.393 186.74 279.352C186.995 279.381 187.232 279.496 187.414 279.678C187.595 279.859 187.71 280.097 187.74 280.352C187.792 280.846 187.727 281.346 187.55 281.812C186.77 284.442 177.96 303.432 175.94 300.022C174.74 298.022 177.68 291.332 178.55 289.442C180.213 285.753 182.668 282.475 185.74 279.842Z" fill="#6E4E37"/>
<path d="M181.451 192.242C181.451 192.242 180.921 187.632 182.041 187.242" stroke="#263238" stroke-linecap="round" stroke-linejoin="round"/>
<path d="M180.51 187.409C181.069 185.777 182.049 184.321 183.35 183.189C184.74 182.189 186.96 182.109 187.97 183.499C189.1 185.049 187.97 187.399 186.24 188.229C184.51 189.059 182.48 188.809 180.58 188.539C180.58 188.259 180.58 187.979 180.58 187.699L180.51 187.409Z" fill="#6E4E37"/>
<path d="M54.3594 301.537V202.727" stroke="#263238" stroke-linecap="round" stroke-linejoin="round"/>
<path d="M362.858 301.539H350.648" stroke="#263238" stroke-linecap="round" stroke-linejoin="round"/>
<path d="M458.61 301.539H433.74" stroke="#263238" stroke-linecap="round" stroke-linejoin="round"/>
<path d="M349.529 151.425H393.599V109.445" stroke="#263238" stroke-linecap="round" stroke-linejoin="round"/>
<path d="M92.6699 138.602H139.49V172.752H190.81" stroke="#263238" stroke-linecap="round" stroke-linejoin="round"/>
<path d="M65.0488 254.257V178.797" stroke="#263238" stroke-linecap="round" stroke-linejoin="round"/>
<path d="M85.9688 146.047V205.187" stroke="#263238" stroke-linecap="round" stroke-linejoin="round"/>
<path d="M106.879 146.047V198.327" stroke="#263238" stroke-linecap="round" stroke-linejoin="round"/>
<path d="M127.789 146.047V237.497" stroke="#263238" stroke-linecap="round" stroke-linejoin="round"/>
<path d="M227.959 133.075V72.9453H313.089V133.075" stroke="#263238" stroke-linecap="round" stroke-linejoin="round"/>
<path d="M234.199 102.816V80.0859H249.939" stroke="#263238" stroke-linecap="round" stroke-linejoin="round"/>
<path d="M253.398 102.816V80.0859H269.138" stroke="#263238" stroke-linecap="round" stroke-linejoin="round"/>
<path d="M272.6 102.816V80.0859H288.34" stroke="#263238" stroke-linecap="round" stroke-linejoin="round"/>
<path d="M291.799 102.816V80.0859H307.539" stroke="#263238" stroke-linecap="round" stroke-linejoin="round"/>
<path d="M234.199 133.074V110.344H249.939" stroke="#263238" stroke-linecap="round" stroke-linejoin="round"/>
<path d="M253.398 133.074V110.344H269.138" stroke="#263238" stroke-linecap="round" stroke-linejoin="round"/>
<path d="M272.6 133.074V110.344H288.34" stroke="#263238" stroke-linecap="round" stroke-linejoin="round"/>
<path d="M291.799 133.074V110.344H307.539" stroke="#263238" stroke-linecap="round" stroke-linejoin="round"/>
<path d="M400.42 114.648V189.998" stroke="#263238" stroke-linecap="round" stroke-linejoin="round"/>
<path d="M431.33 296.016H433.74" stroke="#263238" stroke-linecap="round" stroke-linejoin="round"/>
<path d="M418.949 136.289V220.649" stroke="#263238" stroke-linecap="round" stroke-linejoin="round"/>
<path d="M437.49 274.477V296.017H452.28" stroke="#263238" stroke-linecap="round" stroke-linejoin="round"/>
<path d="M437.49 163.789V221.079" stroke="#263238" stroke-linecap="round" stroke-linejoin="round"/>
<path d="M456.02 207.258V296.018H459.39" stroke="#263238" stroke-linecap="round" stroke-linejoin="round"/>
<path d="M230.199 303.344H39.1992V427.404H230.199V303.344Z" fill="white" stroke="#263238" stroke-linecap="round" stroke-linejoin="round"/>
<path d="M39.1992 303.344L134.699 365.374L230.199 303.344H39.1992Z" fill="white" stroke="#263238" stroke-linecap="round" stroke-linejoin="round"/>
<path d="M105.989 346.727L39.1992 427.407" stroke="#263238" stroke-linecap="round" stroke-linejoin="round"/>
<path d="M163.93 346.727L230.72 427.407" stroke="#263238" stroke-linecap="round" stroke-linejoin="round"/>
<path d="M332.41 145.043H288.01C286.731 145.044 285.476 145.388 284.375 146.039C283.275 146.69 282.368 147.623 281.75 148.743C280.659 150.712 279.061 152.353 277.121 153.496C275.182 154.639 272.971 155.241 270.72 155.241C268.469 155.241 266.259 154.639 264.319 153.496C262.38 152.353 260.781 150.712 259.69 148.743C259.077 147.609 258.169 146.662 257.062 146.002C255.954 145.341 254.689 144.993 253.4 144.993H209.05C207.833 144.977 206.624 145.201 205.493 145.652C204.363 146.104 203.332 146.773 202.46 147.623C201.588 148.473 200.892 149.486 200.412 150.605C199.931 151.723 199.676 152.926 199.66 154.143V404.563C199.694 407.021 200.702 409.365 202.463 411.08C204.223 412.795 206.592 413.742 209.05 413.713H332.41C334.869 413.742 337.239 412.796 339.001 411.081C340.763 409.365 341.773 407.022 341.81 404.563V154.193C341.776 151.733 340.767 149.388 339.004 147.672C337.241 145.957 334.87 145.011 332.41 145.043Z" fill="white"/>
<path d="M346.14 151.423C346.145 149.736 345.818 148.064 345.176 146.504C344.534 144.944 343.59 143.526 342.399 142.332C341.208 141.137 339.793 140.189 338.235 139.542C336.677 138.895 335.007 138.562 333.32 138.563H208.15C206.467 138.561 204.8 138.892 203.245 139.535C201.689 140.178 200.276 141.121 199.086 142.311C197.895 143.501 196.951 144.913 196.306 146.468C195.662 148.023 195.33 149.689 195.33 151.373V414.562C195.33 417.96 196.68 421.218 199.082 423.621C201.484 426.023 204.743 427.372 208.14 427.372H333.32C336.718 427.372 339.978 426.023 342.382 423.621C344.786 421.219 346.137 417.961 346.14 414.562V151.423ZM341.81 404.562C341.773 407.021 340.763 409.365 339.001 411.08C337.239 412.795 334.869 413.742 332.41 413.712H209.05C206.592 413.742 204.223 412.795 202.463 411.079C200.702 409.364 199.694 407.02 199.66 404.562V154.193C199.676 152.975 199.931 151.773 200.411 150.654C200.892 149.535 201.588 148.522 202.46 147.673C203.332 146.823 204.363 146.153 205.493 145.702C206.624 145.251 207.833 145.027 209.05 145.042H253.42C254.708 145.042 255.972 145.391 257.078 146.051C258.183 146.711 259.09 147.659 259.7 148.792C260.791 150.762 262.389 152.403 264.329 153.546C266.269 154.688 268.479 155.291 270.73 155.291C272.981 155.291 275.191 154.688 277.131 153.546C279.071 152.403 280.669 150.762 281.76 148.792C282.376 147.672 283.283 146.737 284.384 146.086C285.485 145.435 286.741 145.092 288.02 145.093H332.42C333.637 145.077 334.846 145.301 335.977 145.752C337.108 146.203 338.138 146.873 339.01 147.723C339.882 148.572 340.578 149.585 341.059 150.704C341.539 151.823 341.794 153.025 341.81 154.242V404.562Z" fill="#263238"/>
<path opacity="0.2" d="M303.611 138.602L220.461 427.392L253.481 427.362L333.551 138.602H303.611Z" fill="white"/>
<path opacity="0.2" d="M291.211 138.602L203.301 427.402L208.111 427.372L294.371 138.602H291.211Z" fill="white"/>
<path d="M293.161 353.293C293.222 356.155 292.71 359.001 291.655 361.663C290.6 364.325 289.022 366.748 287.016 368.791C285.01 370.833 282.615 372.454 279.973 373.557C277.33 374.66 274.494 375.223 271.631 375.213C265.789 375.191 260.187 372.886 256.02 368.791C251.854 364.695 249.453 359.134 249.331 353.293C249.271 350.431 249.784 347.586 250.84 344.926C251.896 342.266 253.473 339.843 255.479 337.802C257.486 335.76 259.88 334.14 262.522 333.038C265.163 331.936 267.999 331.373 270.861 331.383C276.702 331.403 282.304 333.705 286.471 337.799C290.637 341.893 293.038 347.453 293.161 353.293Z" fill="white" stroke="#263238" stroke-linecap="round" stroke-linejoin="round"/>
<path d="M264.061 369.653C262.025 368.9 260.159 367.752 258.571 366.273C256.969 364.735 255.729 362.859 254.941 360.783C254.042 358.456 253.597 355.978 253.631 353.483C253.618 351.356 253.994 349.245 254.741 347.253C255.419 345.414 256.437 343.718 257.741 342.253C260.311 339.441 263.631 337.422 267.311 336.433C269.117 335.946 270.98 335.701 272.851 335.703C274.404 335.696 275.952 335.881 277.461 336.253C278.916 336.611 280.309 337.187 281.591 337.963C282.86 338.726 283.998 339.688 284.961 340.813C285.964 342.027 286.73 343.417 287.221 344.913C287.781 346.62 288.058 348.407 288.041 350.203C288.02 353.675 286.769 357.027 284.511 359.663C283.54 360.764 282.39 361.694 281.111 362.413C280.007 363.046 278.762 363.39 277.491 363.413C276.613 363.425 275.755 363.147 275.051 362.623C274.697 362.361 274.409 362.021 274.209 361.629C274.01 361.237 273.904 360.803 273.901 360.363C273.245 361.361 272.344 362.174 271.285 362.725C270.226 363.276 269.044 363.548 267.851 363.513C266.912 363.555 265.976 363.387 265.11 363.02C264.245 362.653 263.473 362.097 262.851 361.393C261.602 359.942 260.942 358.077 261.001 356.163C261.009 354.589 261.283 353.027 261.811 351.543C262.336 350.048 263.081 348.639 264.021 347.363C264.957 346.109 266.15 345.069 267.521 344.313C268.89 343.54 270.438 343.137 272.011 343.143C273.104 343.132 274.183 343.393 275.151 343.903C276.09 344.404 276.851 345.183 277.331 346.133L277.531 345.463C277.69 344.994 278.029 344.607 278.474 344.388C278.918 344.168 279.431 344.134 279.901 344.293C280.082 344.355 280.254 344.443 280.411 344.553C280.56 344.672 280.678 344.825 280.757 344.999C280.835 345.173 280.871 345.363 280.861 345.553C280.861 345.74 280.831 345.926 280.771 346.103L277.531 356.883C277.245 357.705 277.06 358.557 276.981 359.423C276.951 359.585 276.961 359.751 277.011 359.908C277.061 360.064 277.148 360.206 277.266 360.321C277.384 360.436 277.528 360.52 277.686 360.565C277.843 360.611 278.01 360.617 278.171 360.583C279.317 360.51 280.392 359.998 281.171 359.153C282.251 358.085 283.081 356.791 283.601 355.363C284.221 353.804 284.54 352.141 284.541 350.463C284.554 348.986 284.338 347.515 283.901 346.103C283.533 344.886 282.951 343.745 282.181 342.733C281.452 341.812 280.568 341.024 279.571 340.403C278.576 339.776 277.49 339.307 276.351 339.013C275.182 338.706 273.979 338.552 272.771 338.553C271.238 338.555 269.714 338.771 268.241 339.193C266.724 339.623 265.278 340.273 263.951 341.123C262.612 341.968 261.4 342.998 260.351 344.183C259.27 345.432 258.429 346.869 257.871 348.423C257.243 350.116 256.927 351.908 256.941 353.713C256.908 355.851 257.295 357.975 258.081 359.963C258.758 361.685 259.826 363.225 261.201 364.463C262.529 365.616 264.062 366.508 265.721 367.093C267.471 367.712 269.315 368.024 271.171 368.013C273.154 368.013 275.127 367.713 277.021 367.123C277.21 367.055 277.41 367.021 277.611 367.023C277.798 367.02 277.984 367.057 278.157 367.131C278.329 367.205 278.484 367.315 278.611 367.453C278.738 367.586 278.838 367.743 278.905 367.914C278.972 368.086 279.005 368.269 279.001 368.453C279.025 368.744 278.943 369.034 278.77 369.269C278.597 369.504 278.345 369.669 278.061 369.733C275.701 370.455 273.249 370.832 270.781 370.853C268.488 370.85 266.213 370.444 264.061 369.653ZM272.321 359.283C273.309 358.573 274.042 357.563 274.411 356.403L276.501 349.053L276.361 348.753C276.231 348.512 276.073 348.288 275.891 348.083C275.64 347.794 275.366 347.527 275.071 347.283C274.696 346.984 274.273 346.751 273.821 346.593C272.637 346.18 271.342 346.226 270.191 346.723C269.56 346.99 268.981 347.366 268.481 347.833C267.96 348.319 267.497 348.862 267.101 349.453C266.704 350.069 266.369 350.722 266.101 351.403C265.82 352.085 265.602 352.792 265.451 353.513C265.3 354.2 265.222 354.9 265.221 355.603C265.212 356.055 265.239 356.506 265.301 356.953C265.347 357.351 265.434 357.743 265.561 358.123C265.67 358.477 265.828 358.813 266.031 359.123C266.212 359.403 266.442 359.647 266.711 359.843C266.997 360.051 267.319 360.203 267.661 360.293C268.06 360.41 268.475 360.464 268.891 360.453C270.142 360.469 271.362 360.068 272.361 359.313L272.321 359.283Z" fill="#FB5934" stroke="#263238" stroke-linecap="round" stroke-linejoin="round"/>
<path d="M292.669 278.162C292.729 281.024 292.216 283.869 291.16 286.529C290.104 289.19 288.527 291.612 286.521 293.654C284.514 295.695 282.12 297.315 279.478 298.417C276.837 299.52 274.001 300.082 271.139 300.072C265.298 300.053 259.696 297.75 255.529 293.657C251.363 289.563 248.962 284.002 248.839 278.162C248.776 275.299 249.287 272.453 250.342 269.791C251.397 267.129 252.974 264.704 254.981 262.662C256.988 260.619 259.383 258.998 262.026 257.896C264.669 256.793 267.506 256.231 270.369 256.242C276.211 256.265 281.813 258.569 285.98 262.665C290.146 266.76 292.547 272.322 292.669 278.162Z" fill="white" stroke="#263238" stroke-linecap="round" stroke-linejoin="round"/>
<path d="M284.51 276.164C277.64 271.664 264.17 271.664 257.62 276.164C256.422 276.389 255.345 277.036 254.585 277.989C253.825 278.942 253.433 280.136 253.48 281.354C253.58 284.264 265.67 284.264 265.57 281.354C265.512 280.137 265.047 278.976 264.25 278.054C268.785 277.074 273.476 277.074 278.01 278.054C277.272 278.992 276.89 280.161 276.93 281.354C277.03 284.264 289.12 284.264 289.01 281.354C288.954 280.109 288.478 278.919 287.662 277.977C286.845 277.036 285.735 276.397 284.51 276.164Z" fill="#FB5934" stroke="#263238" stroke-linecap="round" stroke-linejoin="round"/>
<path d="M292.669 205.18C292.789 210.57 289.849 215.39 285.129 218.6V231.69L275.739 222.29C274.221 222.561 272.682 222.695 271.139 222.69C259.039 222.69 249.049 214.85 248.839 205.18C248.629 195.51 258.259 187.68 270.369 187.68C282.479 187.68 292.509 195.56 292.669 205.18Z" fill="white" stroke="#263238" stroke-linecap="round" stroke-linejoin="round"/>
<path d="M261.42 205.182C261.422 205.744 261.257 206.294 260.946 206.762C260.636 207.23 260.193 207.596 259.674 207.812C259.155 208.029 258.584 208.087 258.032 207.978C257.481 207.87 256.974 207.6 256.576 207.203C256.177 206.807 255.906 206.3 255.796 205.749C255.685 205.198 255.741 204.627 255.955 204.107C256.17 203.588 256.534 203.143 257.001 202.831C257.469 202.518 258.018 202.352 258.58 202.352C259.332 202.352 260.053 202.649 260.585 203.18C261.117 203.71 261.418 204.43 261.42 205.182Z" fill="#FB5934" stroke="#263238" stroke-linecap="round" stroke-linejoin="round"/>
<path d="M273.571 205.182C273.573 205.744 273.408 206.294 273.097 206.762C272.786 207.23 272.343 207.596 271.824 207.812C271.306 208.029 270.734 208.087 270.183 207.978C269.631 207.87 269.124 207.6 268.726 207.203C268.328 206.807 268.056 206.3 267.946 205.749C267.836 205.198 267.891 204.627 268.106 204.107C268.321 203.588 268.684 203.143 269.152 202.831C269.619 202.518 270.168 202.352 270.731 202.352C271.482 202.352 272.203 202.649 272.735 203.18C273.268 203.71 273.568 204.43 273.571 205.182Z" fill="#FB5934" stroke="#263238" stroke-linecap="round" stroke-linejoin="round"/>
<path d="M285.721 205.182C285.723 205.744 285.558 206.294 285.247 206.762C284.936 207.23 284.494 207.596 283.975 207.812C283.456 208.029 282.885 208.087 282.333 207.978C281.782 207.87 281.275 207.6 280.876 207.203C280.478 206.807 280.207 206.3 280.096 205.749C279.986 205.198 280.042 204.627 280.256 204.107C280.471 203.588 280.835 203.143 281.302 202.831C281.769 202.518 282.319 202.352 282.881 202.352C283.632 202.352 284.353 202.649 284.886 203.18C285.418 203.71 285.718 204.43 285.721 205.182Z" fill="#FB5934" stroke="#263238" stroke-linecap="round" stroke-linejoin="round"/>
<path d="M148.31 245.097C147.955 245.757 147.443 246.32 146.82 246.737C142.206 250.417 137.486 253.947 132.66 257.327C130.89 258.567 129.05 259.847 127.34 261.237C117.06 268.117 123.34 269.797 117.06 284.357C115.58 287.837 115.85 304.887 115.85 304.887H115.34C114.136 303.699 112.857 302.59 111.51 301.567C111.324 301.442 111.13 301.328 110.93 301.227C110.742 301.13 110.539 301.066 110.33 301.037C109.33 300.977 105.52 301.437 101.67 301.187L100.67 301.107C100.11 301.047 99.5597 300.977 99.0097 300.877C98.4597 300.777 97.9297 300.667 97.4197 300.527C93.766 299.355 90.1834 297.973 86.6897 296.387L84.9497 295.637L84.0897 295.267L83.3097 294.927L82.7497 294.687L82.2097 294.457C81.2997 294.077 80.4497 293.727 79.6697 293.457C79.3121 293.329 78.9483 293.218 78.5797 293.127C78.5797 293.947 78.4497 294.787 78.3397 295.607C77.8597 299.517 76.7897 303.127 74.8797 303.607C74.8403 303.617 74.799 303.617 74.7597 303.607C74.5915 303.638 74.4208 303.655 74.2497 303.657H74.0997C73.6766 303.648 73.2577 303.571 72.8597 303.427C71.1263 302.687 69.7097 301.359 68.8597 299.677C68.4799 298.968 68.2678 298.181 68.2397 297.377C68.2397 294.467 67.4297 277.297 67.4297 272.297C67.4297 267.297 68.4297 258.547 70.9197 255.297C71.8928 253.919 73.1218 252.741 74.5397 251.827C76.3642 250.306 78.4567 249.139 80.7097 248.387C83.3697 247.517 89.3197 245.297 93.4697 243.727L87.1997 246.147C88.7897 248.867 92.1997 253.147 98.3497 253.697C104.13 254.187 107.71 248.957 109.54 245.137C109.7 245.197 119.76 243.287 122.09 243.397C129.68 243.727 135.87 239.617 138.67 237.987C139.514 237.482 140.462 237.175 141.442 237.088C142.422 237.001 143.409 237.137 144.329 237.485C145.249 237.833 146.079 238.384 146.756 239.098C147.433 239.812 147.941 240.67 148.24 241.607V241.697C148.677 242.784 148.702 243.993 148.31 245.097Z" fill="#6E4E37" stroke="#263238" stroke-linecap="round" stroke-linejoin="round"/>
<path d="M109.429 245.191L108.969 245.031" stroke="#263238" stroke-linecap="round" stroke-linejoin="round"/>
<path d="M117.96 309.285C117.965 309.325 117.965 309.365 117.96 309.405C117.92 309.502 117.858 309.588 117.779 309.658C117.701 309.727 117.608 309.778 117.507 309.807C117.406 309.836 117.3 309.842 117.197 309.824C117.094 309.807 116.996 309.766 116.91 309.705C116.45 309.445 115.74 307.775 115.74 307.775L114.95 306.955L114.43 306.405C114.51 306.605 115.14 308.135 114.81 308.845C114.793 308.894 114.766 308.938 114.73 308.975C114.509 309.271 114.222 309.51 113.893 309.675C113.563 309.84 113.199 309.926 112.83 309.925C112.4 309.925 111.14 310.075 110.04 310.145H109.92C109.587 310.164 109.253 310.164 108.92 310.145C108.032 310.031 107.176 309.742 106.4 309.295C104.641 309.037 102.908 308.625 101.22 308.065L100.92 307.905L100.65 307.745C100.473 307.638 100.308 307.511 100.16 307.365C99.5508 306.857 99.0333 306.249 98.6302 305.565C98.6302 305.565 94.5702 305.395 89.1202 304.975C87.1202 304.825 84.9602 304.635 82.7202 304.415C79.2802 304.065 76.4402 304.085 74.2102 303.775H74.0502C73.6102 303.715 73.2002 303.635 72.8102 303.545C71.8585 303.359 70.9784 302.909 70.2709 302.246C69.5635 301.582 69.0572 300.733 68.8102 299.795C68.6793 299.351 68.5725 298.901 68.4902 298.445L70.2302 295.445C71.1371 294.718 72.1485 294.131 73.2302 293.705C74.9085 293.003 76.7618 292.832 78.5402 293.215C78.9089 293.307 79.2727 293.417 79.6302 293.545C80.4102 293.845 81.2602 294.195 82.1702 294.545L82.7202 294.775L83.2802 295.015L84.0602 295.355C88.5102 297.195 93.8202 299.565 97.3702 300.565C98.4365 300.845 99.5232 301.038 100.62 301.145L101.62 301.225C105.47 301.475 109.27 301.015 110.28 301.075C111.29 301.135 113.76 303.485 115.34 304.935C115.77 305.335 116.15 305.665 116.41 305.865L116.53 305.965L116.62 306.045C117.193 306.633 117.594 307.366 117.78 308.165C117.859 308.433 117.912 308.708 117.94 308.985C117.958 309.084 117.965 309.185 117.96 309.285Z" fill="white" stroke="#263238" stroke-linecap="round" stroke-linejoin="round"/>
<path d="M117.96 309.283C117.965 309.323 117.965 309.363 117.96 309.403C117.919 309.499 117.856 309.584 117.777 309.653C117.698 309.721 117.605 309.771 117.505 309.799C117.404 309.827 117.298 309.832 117.195 309.813C117.093 309.795 116.995 309.754 116.91 309.693C116.416 309.119 116.02 308.467 115.74 307.763L114.95 306.953L114.43 306.413C114.5 306.573 115.15 308.133 114.82 308.853C114.803 308.902 114.776 308.946 114.74 308.983C114.629 309.131 114.502 309.265 114.36 309.383C113.929 309.73 113.393 309.92 112.84 309.923C112.4 309.923 111.15 310.063 110.06 310.143H109.92C109.587 310.162 109.253 310.162 108.92 310.143C108.038 310.025 107.186 309.74 106.41 309.303C104.651 309.04 102.918 308.625 101.23 308.063L100.94 307.923L100.67 307.763C100.497 307.649 100.334 307.522 100.18 307.383C99.5619 306.871 99.0374 306.255 98.6303 305.563C98.6303 305.563 94.6903 305.393 89.3503 304.983C87.3503 304.833 85.0403 304.633 82.7203 304.403C79.5603 304.093 76.9503 304.003 74.8403 303.673L74.1903 303.553L73.4403 303.383C73.2674 302.158 73.3943 300.909 73.8103 299.743C74.1979 298.76 74.799 297.875 75.5703 297.152C76.3416 296.429 77.2638 295.886 78.2703 295.563C79.5194 295.104 80.7992 294.733 82.1003 294.453L82.6403 294.683L83.2003 294.923L83.9803 295.263C88.5103 297.213 93.7603 299.573 97.3203 300.543C98.3857 300.824 99.4729 301.014 100.57 301.113L101.57 301.193C105.42 301.453 109.22 300.993 110.23 301.053C111.24 301.113 113.7 303.453 115.23 304.903C115.577 305.235 115.941 305.549 116.32 305.843L116.44 305.933L116.53 306.013C117.114 306.593 117.517 307.329 117.69 308.133C117.769 308.401 117.823 308.675 117.85 308.953C117.901 309.058 117.938 309.169 117.96 309.283Z" fill="white" stroke="#263238" stroke-linecap="round" stroke-linejoin="round"/>
<path d="M105.99 306.625C105.99 306.625 108.26 307.805 109.16 308.215C110.06 308.625 109.98 310.275 109.98 310.275" fill="white"/>
<path d="M105.99 306.625C105.99 306.625 108.26 307.805 109.16 308.215C110.06 308.625 109.98 310.275 109.98 310.275" stroke="#263238" stroke-linecap="round" stroke-linejoin="round"/>
<path d="M108.42 305.023C109.848 306.043 111.223 307.134 112.54 308.293C112.732 308.519 112.858 308.794 112.902 309.088C112.946 309.381 112.907 309.681 112.79 309.953" fill="white"/>
<path d="M108.42 305.023C109.848 306.043 111.223 307.134 112.54 308.293C112.732 308.519 112.858 308.794 112.902 309.088C112.946 309.381 112.907 309.681 112.79 309.953" stroke="#263238" stroke-linecap="round" stroke-linejoin="round"/>
<path d="M114.4 306.397C113.217 305.129 111.965 303.927 110.65 302.797L114.4 306.397Z" fill="white"/>
<path d="M114.4 306.397C113.217 305.129 111.965 303.927 110.65 302.797" stroke="#263238" stroke-linecap="round" stroke-linejoin="round"/>
<path d="M109.42 245.211C107.61 249.021 104.02 254.211 98.2398 253.761C92.1198 253.241 88.6798 248.931 87.0898 246.201C89.2898 245.361 91.5198 244.501 93.3498 243.781C93.3498 241.921 93.2898 239.691 93.0898 237.481C93.0898 237.001 92.9898 236.481 92.9398 236.031C92.8898 235.581 92.8298 235.261 92.7698 234.891H104.4C104.4 234.891 104.33 235.351 104.24 236.121C104.17 236.811 104.08 237.731 104.01 238.771C103.92 240.151 103.86 241.771 103.9 243.301C104.46 243.491 105.03 243.701 105.6 243.921L106.7 244.301C107.14 244.461 107.57 244.601 108.03 244.751L109.03 245.051C109.163 245.096 109.293 245.149 109.42 245.211Z" fill="white" stroke="#263238" stroke-linecap="round" stroke-linejoin="round"/>
<path d="M92.9395 235.992C92.9395 235.992 95.1095 241.632 98.2595 242.592C101.409 243.552 104.259 236.122 104.259 236.122C104.259 236.122 99.8195 240.862 98.1695 240.122C96.5195 239.382 92.9594 236.032 92.9594 236.032" fill="#263238"/>
<path d="M91.0704 204.847C88.1316 207.493 85.8014 210.744 84.2404 214.377C82.8104 217.377 81.6004 220.827 82.7004 223.967C83.3586 225.526 84.2899 226.955 85.4504 228.187C87.6104 230.777 90.6404 238.007 92.8004 240.597C92.9404 235.987 89.0804 228.537 89.4904 224.667C89.987 221.677 90.97 218.789 92.4004 216.117C93.8551 212.613 95.7576 209.312 98.0604 206.297C99.3704 204.717 103.58 201.907 99.3304 201.567C96.5104 201.337 93.2004 203.097 91.0704 204.847Z" fill="#263238" stroke="#263238" stroke-linecap="round" stroke-linejoin="round"/>
<path d="M88.3501 220.564C88.3501 220.564 86.8602 217.674 85.2902 220.414C84.1602 222.414 85.7902 225.564 86.4902 226.734C86.7224 227.067 87.0371 227.335 87.4033 227.51C87.7696 227.685 88.1751 227.763 88.5802 227.734L88.3501 220.564Z" fill="white" stroke="#263238" stroke-linecap="round" stroke-linejoin="round"/>
<path d="M107.929 231.001C106.973 232.889 105.728 234.617 104.239 236.121L103.339 237.051C101.479 238.891 99.469 240.351 98.149 240.051C96.999 239.821 95.499 238.641 94.029 237.131C93.659 236.761 93.299 236.361 92.939 235.961C91.3385 234.21 89.9644 232.264 88.849 230.171C88.5392 229.385 88.3406 228.561 88.259 227.721C88.0067 225.216 87.9198 222.697 87.999 220.181C87.999 219.291 87.999 218.581 87.999 218.181C87.999 216.441 94.519 210.391 94.519 210.391C94.6948 210.326 94.8835 210.306 95.069 210.331C96.1904 210.535 97.2712 210.92 98.269 211.471C102.219 213.391 107.729 217.201 108.129 218.651C108.739 220.761 108.509 229.121 107.929 231.001Z" fill="white" stroke="#263238" stroke-linecap="round" stroke-linejoin="round"/>
<path d="M94.9796 222.985C94.9796 223.685 94.7196 224.255 94.4296 224.255C94.1396 224.255 93.8496 223.705 93.8496 222.985C93.8496 222.265 94.1096 221.695 94.4296 221.695C94.7496 221.695 94.9796 222.285 94.9796 222.985Z" fill="#263238"/>
<path d="M102.43 221.703C102.75 221.703 103.01 222.273 103.01 222.983C103.01 223.693 102.75 224.253 102.43 224.253C102.11 224.253 101.85 223.683 101.85 222.983C101.85 222.283 102.11 221.703 102.43 221.703Z" fill="#263238"/>
<path d="M91.2598 219.834C91.2598 219.834 92.2598 217.834 95.7998 218.444" stroke="#263238" stroke-linecap="round" stroke-linejoin="round"/>
<path d="M105.72 219.834C105.72 219.834 104.72 217.834 101.18 218.444" stroke="#263238" stroke-linecap="round" stroke-linejoin="round"/>
<path d="M99.1699 227.871C99.5296 227.848 99.8725 227.711 100.148 227.478C100.423 227.246 100.617 226.931 100.7 226.581C100.7 226.581 98.7599 223.581 99.3499 220.641" stroke="#263238" stroke-linecap="round" stroke-linejoin="round"/>
<path d="M87.0891 213.562C86.2834 214.655 85.6743 215.88 85.2891 217.182" stroke="white" stroke-linecap="round" stroke-linejoin="round"/>
<path d="M95.4488 205.562C95.4488 205.562 94.3388 207.402 89.4488 211.152C89.1337 211.38 88.8331 211.627 88.5488 211.893" stroke="white" stroke-linecap="round" stroke-linejoin="round"/>
<path d="M79.7695 264.195C79.1029 273.702 78.4362 283.215 77.7695 292.735V292.005" fill="#263238"/>
<path d="M79.7695 264.195C79.1029 273.702 78.4362 283.215 77.7695 292.735V292.005" stroke="#263238" stroke-linecap="round" stroke-linejoin="round"/>
<path d="M142.939 232.806C143.843 232.453 144.82 232.326 145.784 232.438C146.748 232.549 147.67 232.895 148.469 233.446C150.064 234.575 151.225 236.216 151.759 238.096C152.397 239.968 152.333 242.007 151.579 243.836C151.189 244.737 150.562 245.515 149.764 246.088C148.966 246.66 148.028 247.005 147.049 247.086C145.591 247.067 144.181 246.556 143.049 245.636C139.309 242.836 137.439 235.176 142.939 232.806Z" fill="white" stroke="#263238" stroke-linecap="round" stroke-linejoin="round"/>
<path d="M151.22 200.874C151.22 200.994 151.22 201.784 151.29 201.924C151.64 203.464 152.38 207.314 150.51 208.094C151.22 210.624 152.96 227.154 152.73 235.584C152.67 238.104 152.23 241.094 149.97 242.174C146.16 243.984 142.54 239.574 142.97 236.124C143.64 231.414 143.41 226.614 143.97 221.854C144.58 216.914 145.7 211.854 144.47 207.024C144.17 206.694 142.25 202.884 141.62 201.834C141.337 201.385 141.115 200.901 140.96 200.394C140.714 198.668 140.593 196.927 140.6 195.184C141.17 194.104 141.91 195.104 142.3 195.814C142.618 196.68 142.728 197.608 142.62 198.524C142.583 198.748 142.614 198.978 142.71 199.184C142.794 199.302 142.907 199.395 143.039 199.455C143.171 199.515 143.316 199.539 143.46 199.524C144.69 199.344 144.64 198.314 144.62 197.524C144.62 194.874 144.62 192.224 144.62 189.594C144.62 189.154 144.76 187.964 145.18 187.924C145.6 187.884 146.23 188.224 146.29 189.634C146.36 191.224 146.36 196.124 146.36 196.124C146.4 196.164 146.449 196.194 146.503 196.21C146.557 196.225 146.615 196.227 146.67 196.214C146.77 196.214 146.81 196.034 146.85 195.934C147.44 193.474 148.04 191.014 148.63 188.554C148.7 188.264 149.13 187.664 149.44 187.664C150.18 187.664 150.2 188.524 150.24 188.774C150.5 190.094 148.65 195.534 148.34 196.774C148.34 196.994 148.34 197.324 148.57 197.264L151.47 191.414C151.604 191.072 151.816 190.766 152.088 190.52C152.361 190.274 152.686 190.094 153.04 189.994C153.089 189.979 153.141 189.979 153.19 189.994C153.242 190.024 153.284 190.07 153.31 190.124C153.59 190.624 153.31 191.314 153.15 191.864C152.99 192.414 150.82 196.454 150.05 198.084C149.94 198.314 149.76 198.834 149.98 199.084C150.2 199.334 150.6 198.854 150.76 198.524C151.25 197.524 151.71 196.584 152.16 195.604C152.3 195.314 152.51 194.904 152.84 194.974C154.79 195.394 152.02 199.484 151.22 200.874Z" fill="white" stroke="#263238" stroke-linecap="round" stroke-linejoin="round"/>
<path d="M145.84 200.016C146.847 200.813 147.721 201.765 148.43 202.836C148.779 203.374 149.013 203.979 149.117 204.613C149.22 205.246 149.19 205.894 149.03 206.516C148.981 206.678 148.918 206.835 148.84 206.986" fill="white"/>
<path d="M145.84 200.016C146.847 200.813 147.721 201.765 148.43 202.836C148.779 203.374 149.013 203.979 149.117 204.613C149.22 205.246 149.19 205.894 149.03 206.516C148.981 206.678 148.918 206.835 148.84 206.986" stroke="#263238" stroke-linecap="round" stroke-linejoin="round"/>
<path d="M117.67 262.484C118.728 264.618 119.44 266.907 119.78 269.264C120.07 271.624 120.16 273.474 118.55 280.104" stroke="#263238" stroke-linecap="round" stroke-linejoin="round"/>
<path d="M95.0991 208.891C94.9622 209.299 94.9278 209.736 94.9991 210.161C95.1888 210.696 95.5378 211.16 95.9991 211.491C99.1953 214.292 102.77 216.628 106.619 218.431C107.102 218.556 107.52 218.858 107.792 219.276C108.064 219.694 108.17 220.199 108.089 220.691V228.421C108.138 229.218 108.061 230.018 107.859 230.791C107.299 232.591 106.059 234.041 105.159 235.701C104.244 237.275 103.78 239.07 103.819 240.891C103.569 238.981 110.249 235.281 112.059 227.761C112.309 226.701 117.509 220.391 114.389 212.981C111.389 205.871 106.669 202.811 105.079 202.441C104 202.125 102.861 202.071 101.757 202.283C100.652 202.496 99.6146 202.968 98.7291 203.661C96.9816 204.962 95.707 206.798 95.0991 208.891Z" fill="#263238" stroke="#263238" stroke-linecap="round" stroke-linejoin="round"/>
<path d="M101.649 230.564C101.079 230.684 100.499 230.794 99.9188 230.864C97.9188 231.114 95.7787 230.804 94.4688 229.344C94.5688 230.654 95.4688 235.604 98.1588 235.744C100.849 235.884 101.649 230.564 101.649 230.564Z" stroke="#263238" stroke-linecap="round" stroke-linejoin="round"/>
<path d="M99.0488 205.875C100.202 208.493 102.04 210.753 104.369 212.415C106.059 213.625 107.989 214.495 109.539 215.875C111.539 217.705 112.849 220.605 112.079 223.235" stroke="white" stroke-linecap="round" stroke-linejoin="round"/>
<path d="M119.95 246.273C118.024 247.82 116.755 250.039 116.4 252.483C116.055 254.596 116.315 256.763 117.15 258.733" stroke="#263238" stroke-linecap="round" stroke-linejoin="round"/>
<path d="M82.7001 262.773C82.5401 265.393 80.9101 267.663 79.3301 269.773L82.7001 262.773Z" fill="#263238"/>
<path d="M82.7001 262.773C82.5401 265.393 80.9101 267.663 79.3301 269.773" stroke="#263238" stroke-linecap="round" stroke-linejoin="round"/>
<path d="M78.7988 282.805C79.5931 284.134 80.6562 285.284 81.9201 286.179C83.184 287.075 84.6209 287.696 86.1388 288.005" stroke="#263238" stroke-linecap="round" stroke-linejoin="round"/>
<path d="M117.06 284.367C117.06 284.367 114.37 288.367 105.23 289.207" stroke="#263238" stroke-linecap="round" stroke-linejoin="round"/>
<path d="M384.81 249.31C384.81 249.31 349.96 260.11 343.4 251.58L344.29 208.07H349.58L355.8 238.72L384.36 233.49C384.36 233.49 388.02 244.83 384.81 249.31Z" fill="white"/>
<mask id="mask0_3143_17706" style="mask-type:luminance" maskUnits="userSpaceOnUse" x="343" y="208" width="44" height="47">
<path d="M384.81 249.31C384.81 249.31 349.96 260.11 343.4 251.58L344.29 208.07H349.58L355.8 238.72L384.36 233.49C384.36 233.49 388.02 244.83 384.81 249.31Z" fill="white"/>
</mask>
<g mask="url(#mask0_3143_17706)">
<path d="M370.129 250.827C368.131 251.621 366.224 252.627 364.439 253.827C366.799 254.577 369.319 253.627 371.679 252.877C374.796 251.919 377.973 251.171 381.189 250.637C381.339 249.747 380.189 247.717 379.739 246.927C378.919 245.547 378.739 245.427 377.359 246.107C374.849 247.367 372.709 249.557 370.129 250.827Z" fill="#6E4E37"/>
</g>
<path d="M384.81 249.31C384.81 249.31 349.96 260.11 343.4 251.58L344.29 208.07H349.58L355.8 238.72L384.36 233.49C384.36 233.49 388.02 244.83 384.81 249.31Z" stroke="#263238" stroke-linecap="round" stroke-linejoin="round"/>
<path d="M381.391 250.456L387.511 288.136C387.351 312.556 399.001 308.886 407.091 308.816C416.441 308.736 430.631 299.466 423.671 285.036L426.351 232.806L410.061 231.566C404.691 231.146 382.691 231.836 380.941 234.646C376.401 241.936 381.391 250.456 381.391 250.456Z" fill="white"/>
<mask id="mask1_3143_17706" style="mask-type:luminance" maskUnits="userSpaceOnUse" x="379" y="231" width="48" height="79">
<path d="M381.391 250.456L387.511 288.136C387.351 312.556 399.001 308.886 407.091 308.816C416.441 308.736 430.631 299.466 423.671 285.036L426.351 232.806L410.061 231.566C404.691 231.146 382.691 231.836 380.941 234.646C376.401 241.936 381.391 250.456 381.391 250.456Z" fill="white"/>
</mask>
<g mask="url(#mask1_3143_17706)">
<path d="M382.351 253.562C385.986 267.312 394.702 279.17 406.741 286.742C405.438 286.536 404.165 286.17 402.951 285.652C401.73 285.127 400.362 285.052 399.091 285.443C398.784 285.553 398.502 285.723 398.261 285.943C398.02 286.163 397.825 286.428 397.686 286.723C397.548 287.019 397.469 287.339 397.454 287.664C397.44 287.99 397.49 288.316 397.601 288.622C397.893 289.091 398.29 289.485 398.761 289.772C400.746 291.168 402.917 292.279 405.211 293.073C403.2 292.866 401.167 293.022 399.211 293.533C398.851 295.273 400.791 296.533 402.321 297.383C404.762 298.822 406.852 300.786 408.441 303.133C403.071 303.144 397.707 303.451 392.371 304.052C391.667 304.21 390.932 304.14 390.271 303.853C389.579 303.337 389.113 302.574 388.971 301.723C387.782 297.562 387.09 293.276 386.911 288.953C386.811 286.523 386.911 284.073 386.591 281.663C386.333 279.762 385.979 277.877 385.531 276.013C383.978 268.799 382.788 261.529 381.961 254.202C381.591 254.232 382.351 253.562 382.351 253.562Z" fill="#6E4E37"/>
<path d="M423.661 250.562C422.312 250.13 421.054 249.452 419.951 248.562C420.261 250.062 422.501 252.652 423.811 253.452C424.081 253.622 424.471 253.763 424.711 253.533C424.951 253.303 425.111 252.713 425.351 252.533L423.661 250.562Z" fill="#6E4E37"/>
</g>
<path d="M381.391 250.456L387.511 288.136C387.351 312.556 399.001 308.886 407.091 308.816C416.441 308.736 430.631 299.466 423.671 285.036L426.351 232.806L410.061 231.566C404.691 231.146 382.691 231.836 380.941 234.646C376.401 241.936 381.391 250.456 381.391 250.456Z" stroke="#263238" stroke-linecap="round" stroke-linejoin="round"/>
<path d="M393.3 230.791C391.547 234 390.704 237.627 390.86 241.281C390.858 241.6 390.919 241.916 391.04 242.211C391.49 243.101 392.72 243.101 393.71 243.211C397.56 243.701 399.95 247.761 403.58 249.121C403.707 249.199 403.849 249.251 403.997 249.274C404.145 249.296 404.296 249.288 404.44 249.251C404.585 249.214 404.721 249.148 404.839 249.056C404.958 248.965 405.057 248.851 405.13 248.721C406.71 246.721 407.27 243.911 409.43 242.621C410.37 242.061 411.56 241.831 412.21 240.951C412.95 239.951 412.62 238.511 412.26 237.291C411.67 235.291 411.01 233.211 409.48 231.821C407.85 230.549 405.848 229.846 403.78 229.821C400.754 229.573 397.708 229.858 394.78 230.661C394.82 231.041 393.3 230.791 393.3 230.791Z" fill="#6E4E37" stroke="#263238" stroke-linecap="round" stroke-linejoin="round"/>
<path d="M441.7 256.359C439.256 252.8 437.455 248.84 436.38 244.659C435.988 242.564 435.378 240.516 434.56 238.549C433.788 237.029 432.673 235.71 431.304 234.694C429.935 233.679 428.348 232.996 426.67 232.699C425.954 232.541 425.209 232.576 424.51 232.799C423.06 233.349 422.42 235.019 422.13 236.539C421.502 239.804 421.688 243.173 422.67 246.349C423.34 248.509 431.39 264.169 436.67 270.239C436.21 267.179 439.73 256.949 441.7 256.359Z" fill="white"/>
<mask id="mask2_3143_17706" style="mask-type:luminance" maskUnits="userSpaceOnUse" x="421" y="232" width="21" height="39">
<path d="M441.7 256.359C439.256 252.8 437.455 248.84 436.38 244.659C435.988 242.564 435.378 240.516 434.56 238.549C433.788 237.029 432.673 235.71 431.304 234.694C429.935 233.679 428.348 232.996 426.67 232.699C425.954 232.541 425.209 232.576 424.51 232.799C423.06 233.349 422.42 235.019 422.13 236.539C421.502 239.804 421.688 243.173 422.67 246.349C423.34 248.509 431.39 264.169 436.67 270.239C436.21 267.179 439.73 256.949 441.7 256.359Z" fill="white"/>
</mask>
<g mask="url(#mask2_3143_17706)">
<path d="M425.909 253.286L430.849 262.596C431.559 263.926 432.359 265.346 433.739 265.926C432.871 262.85 432.377 259.68 432.269 256.486C432.323 254.88 432.138 253.276 431.719 251.726C431.519 251.896 431.309 251.176 431.309 251.176C431.089 251.586 430.509 251.596 430.059 251.506C426.829 250.826 424.609 247.946 422.689 245.266C422.439 246.163 422.399 247.107 422.573 248.022C422.746 248.938 423.128 249.801 423.689 250.546C423.689 250.546 425.749 252.976 425.909 253.286Z" fill="#6E4E37"/>
</g>
<path d="M441.7 256.359C439.256 252.8 437.455 248.84 436.38 244.659C435.988 242.564 435.378 240.516 434.56 238.549C433.788 237.029 432.673 235.71 431.304 234.694C429.935 233.679 428.348 232.996 426.67 232.699C425.954 232.541 425.209 232.576 424.51 232.799C423.06 233.349 422.42 235.019 422.13 236.539C421.502 239.804 421.688 243.173 422.67 246.349C423.34 248.509 431.39 264.169 436.67 270.239C436.21 267.179 439.73 256.949 441.7 256.359Z" stroke="#263238" stroke-linecap="round" stroke-linejoin="round"/>
<path d="M434.76 267.559C429.38 257.249 431.98 233.489 431.82 229.669L438.92 229.289C439.63 229.289 442.92 249.549 445.16 257.959C447.16 265.619 445.24 273.369 441.7 273.369C438.76 273.369 435.89 269.729 434.76 267.559Z" fill="white" stroke="#263238" stroke-linecap="round" stroke-linejoin="round"/>
<path d="M370.65 240.794C375.65 233.494 385.46 232.914 385.46 232.914" stroke="#263238" stroke-linecap="round" stroke-linejoin="round"/>
<path d="M351.361 244.883C352.874 243.493 354.059 241.786 354.831 239.883L351.361 244.883Z" fill="white"/>
<path d="M351.361 244.883C352.874 243.493 354.059 241.786 354.831 239.883" stroke="#263238" stroke-linecap="round" stroke-linejoin="round"/>
<path d="M388.51 279.383C391.36 284.053 409.82 289.043 417.18 287.973" stroke="#263238" stroke-linecap="round" stroke-linejoin="round"/>
<path d="M393.73 292.563C399.048 293.478 404.498 293.27 409.73 291.953" stroke="#263238" stroke-linecap="round" stroke-linejoin="round"/>
<path d="M418.221 247.25L421.741 252.02C422.221 252.67 422.891 253.4 423.681 253.22" stroke="#263238" stroke-linecap="round" stroke-linejoin="round"/>
<path d="M444.38 428.196C444.07 429.466 443.97 430.976 444.88 431.926C445.79 432.876 447.11 432.856 448.34 432.836L452.57 432.756C454.202 432.837 455.832 432.582 457.36 432.006C458.125 431.709 458.779 431.184 459.235 430.502C459.692 429.821 459.927 429.016 459.91 428.196C459.806 427.562 459.604 426.947 459.31 426.376C458.93 425.556 458.55 424.726 458.18 423.906C453.51 413.616 446.38 419.876 444.38 428.196Z" fill="white" stroke="#263238" stroke-linecap="round" stroke-linejoin="round"/>
<path d="M438.42 416.064C438.568 420.787 438.172 425.512 437.24 430.144C437.02 431.194 437.24 432.784 438.24 432.684C438.632 432.624 438.988 432.421 439.24 432.114C442.915 428.489 445.544 423.939 446.85 418.944C447.046 418.425 447.138 417.873 447.119 417.318C447.1 416.764 446.971 416.219 446.74 415.714C446.466 415.309 446.128 414.951 445.74 414.654C442.35 411.944 438.11 409.254 438.42 416.064Z" fill="white" stroke="#263238" stroke-linecap="round" stroke-linejoin="round"/>
<path d="M426.811 295.195C426.811 295.195 432.081 304.355 433.211 306.485C434.341 308.615 458.211 339.985 462.791 362.825C463.651 367.165 446.041 415.705 446.041 415.705L442.041 413.445C442.041 413.445 444.821 369.175 444.141 365.495C443.461 361.815 425.891 334.655 425.891 334.655C425.891 334.655 416.081 327.445 412.041 319.065L426.811 295.195Z" fill="#263238"/>
<path d="M427.381 318.14C427.381 318.14 424.381 324.82 424.381 325.78C424.381 326.74 440.881 378.88 445.731 390.94C448.798 398.706 451.501 406.653 453.841 414.78C453.841 414.78 455.721 417.25 454.301 419.78C452.881 422.31 447.231 423.97 446.071 421.71C444.911 419.45 433.481 407.71 428.661 396.03C423.841 384.35 417.061 364.83 413.201 357.56C408.145 348.27 403.657 338.682 399.761 328.85C394.911 316.44 389.951 303.06 389.951 303.06C391.966 303.241 393.99 303.298 396.011 303.23C400.771 303.067 405.485 302.232 410.011 300.75C420.551 297.21 425.111 290.43 425.111 290.43C425.111 290.43 427.721 297.5 428.401 298.87L427.381 318.14Z" fill="#263238"/>
<path d="M461.031 367.289C459.998 369.059 458.609 370.595 456.951 371.799" stroke="white" stroke-linecap="round" stroke-linejoin="round"/>
<path d="M462.321 364.383C462.171 364.87 461.991 365.348 461.781 365.813" stroke="white" stroke-linecap="round" stroke-linejoin="round"/>
<path d="M417.85 302.562C420.51 307.142 423 313.733 422.6 319.013C422.385 319.971 422.049 320.899 421.6 321.772" stroke="white" stroke-linecap="round" stroke-linejoin="round"/>
<path d="M401.751 307.656C402.041 310.206 402.431 314.446 401.871 316.946C401.398 319.503 399.931 321.769 397.791 323.246" stroke="white" stroke-linecap="round" stroke-linejoin="round"/>
<path d="M424.43 298C425.011 298.724 425.482 299.529 425.83 300.39C426.507 301.626 427.438 302.706 428.561 303.557C429.685 304.409 430.976 305.013 432.35 305.33" stroke="white" stroke-linecap="round" stroke-linejoin="round"/>
<path d="M415.939 308.227C419.469 315.947 422.169 323.687 427.649 336.807" stroke="white" stroke-linecap="round" stroke-linejoin="round"/>
<path d="M414.061 304.273C414.361 304.873 414.651 305.473 414.941 306.073" stroke="white" stroke-linecap="round" stroke-linejoin="round"/>
<path d="M443.439 363.336C445.058 366.454 447.115 369.323 449.549 371.856" stroke="white" stroke-linecap="round" stroke-linejoin="round"/>
<path d="M445.111 366.211C446.171 371.104 448.105 375.765 450.821 379.971" stroke="white" stroke-linecap="round" stroke-linejoin="round"/>
<path d="M420.249 366.467C412.459 349.847 404.149 333.357 393.939 308.227" stroke="white" stroke-linecap="round" stroke-linejoin="round"/>
<path d="M422.01 371.289C421.82 370.709 421.62 370.129 421.41 369.539" stroke="white" stroke-linecap="round" stroke-linejoin="round"/>
<path d="M448.94 422.39C446.94 419.78 432.36 399.39 428.74 390.15C426.33 383.99 424.51 379.64 422.74 373.5" stroke="white" stroke-linecap="round" stroke-linejoin="round"/>
<path d="M443.439 383.156L450.369 403.526" stroke="white" stroke-linecap="round" stroke-linejoin="round"/>
<path d="M438.77 229.299L436.67 229.469C434.009 229.942 431.276 229.816 428.67 229.099C427 228.689 423.13 227.489 422.67 227.409C421.52 227.164 420.359 226.977 419.19 226.849C415.66 226.639 417.45 225.319 418.92 225.379C420.86 225.469 421.51 225.429 423 225.539C422.82 225.439 422.27 225.329 422.26 224.899C422.26 223.849 423.64 223.899 423.64 223.899C423.64 223.899 422.13 223.259 422.34 222.469C422.55 221.679 423.56 221.469 424.2 221.529C424.2 221.529 423.35 221.119 423.39 220.679C423.57 218.979 427.06 218.859 427.06 218.859C426.216 218.482 425.425 217.995 424.71 217.409C424.449 217.128 424.266 216.783 424.18 216.409C424.161 216.231 424.19 216.051 424.265 215.888C424.34 215.725 424.457 215.586 424.604 215.483C424.751 215.381 424.923 215.32 425.102 215.307C425.28 215.294 425.459 215.33 425.62 215.409C426.523 216.011 427.394 216.658 428.23 217.349C429.31 218.119 430.56 218.609 431.7 219.299C432.811 220.25 433.707 221.426 434.33 222.749C434.51 223.029 438.77 229.299 438.77 229.299Z" fill="white" stroke="#263238" stroke-linecap="round" stroke-linejoin="round"/>
<path d="M344.291 208.073V202.563C344.278 199.798 344.683 197.047 345.491 194.403C345.951 192.943 346.491 191.673 346.981 191.483C347.891 191.153 348.291 194.843 348.291 194.843C347.607 191.884 347.169 188.874 346.981 185.843C346.981 182.633 351.301 195.963 351.301 195.963L349.581 208.073H344.291Z" fill="white" stroke="#263238" stroke-linecap="round" stroke-linejoin="round"/>
<path d="M349.51 199.111C350.032 198.708 350.422 198.158 350.63 197.531L349.51 199.111Z" fill="white"/>
<path d="M349.51 199.111C350.032 198.708 350.422 198.158 350.63 197.531" stroke="#263238" stroke-linecap="round" stroke-linejoin="round"/>
<path d="M391.391 219.559C393.258 222.703 394.291 226.273 394.391 229.929C394.571 236.009 401.611 244.519 403.621 244.929C405.631 245.339 407.491 235.329 407.401 232.299C407.311 229.269 406.191 220.899 406.191 220.899C406.191 220.899 396.561 213.619 391.391 219.559Z" fill="white" stroke="#263238" stroke-linecap="round" stroke-linejoin="round"/>
<path d="M394.221 227.613C394.221 227.613 403.451 240.203 407.071 227.403C410.691 214.603 396.921 230.903 394.221 227.613Z" fill="#263238"/>
<path d="M409.8 218.563C409.31 226.033 405.9 230.233 401.97 230.973C398.38 231.633 393.13 227.973 390.51 222.543C390.31 222.413 387.12 220.203 386.36 219.663C385.963 219.385 385.639 219.015 385.416 218.585C385.194 218.155 385.078 217.677 385.08 217.193C385.106 216.728 385.27 216.281 385.551 215.911C385.833 215.54 386.219 215.262 386.66 215.113H386.75C387.2 215.015 387.669 215.049 388.1 215.213C387.44 212.663 386.9 210.073 386.49 207.463C386.68 201.463 388.67 196.563 395.07 196.083C401.47 195.603 406.82 199.183 407.07 201.763C407.25 203.763 407.9 209.053 408.48 214.523C408.64 215.943 409.91 216.883 409.8 218.563Z" fill="white" stroke="#263238" stroke-linecap="round" stroke-linejoin="round"/>
<path d="M407.07 209.923C407.07 209.923 402.95 208.033 403.65 214.173C403.79 215.383 406.04 217.173 406.04 217.173C406.04 217.173 405.46 218.983 404.39 218.983" fill="white"/>
<path d="M407.07 209.923C407.07 209.923 402.95 208.033 403.65 214.173C403.79 215.383 406.04 217.173 406.04 217.173C406.04 217.173 405.46 218.983 404.39 218.983" stroke="#263238" stroke-linecap="round" stroke-linejoin="round"/>
<path d="M399.11 212.021C399.11 212.021 397.01 210.741 395.57 211.531C394.819 211.858 394.18 212.396 393.73 213.081" fill="white"/>
<path d="M399.11 212.021C399.11 212.021 397.01 210.741 395.57 211.531C394.819 211.858 394.18 212.396 393.73 213.081" stroke="#263238" stroke-linecap="round" stroke-linejoin="round"/>
<path d="M397.91 215.559C398.07 216.299 397.91 216.959 397.48 217.049C397.05 217.139 396.63 216.599 396.48 215.859C396.33 215.119 396.48 214.459 396.92 214.369C397.36 214.279 397.76 214.809 397.91 215.559Z" fill="#263238"/>
<path d="M406.03 213.399C406.19 214.139 406.03 214.799 405.6 214.889C405.17 214.979 404.75 214.439 404.6 213.709C404.45 212.979 404.6 212.299 405.03 212.219C405.46 212.139 405.88 212.669 406.03 213.399Z" fill="#263238"/>
<path d="M386.01 199.711C385.279 200.427 384.772 201.341 384.55 202.341C383.951 204.455 383.778 206.668 384.041 208.849C384.303 211.031 384.997 213.139 386.08 215.051C386.747 214.969 387.422 214.996 388.08 215.131C388.78 215.311 389.68 216.511 390.01 217.131C390.3 217.792 390.466 218.5 390.5 219.221C390.34 217.321 390.19 215.431 390.03 213.531C389.923 212.771 389.957 211.998 390.13 211.251C390.62 209.691 390.08 206.011 390.22 202.721C394.37 207.791 400.4 206.891 402.4 206.721C405.4 206.471 407.96 203.401 407.8 201.211C407.64 199.021 407.05 193.381 397.16 192.801C394.981 192.569 392.785 193.027 390.88 194.111C390.277 194.509 389.764 195.03 389.376 195.64C388.988 196.25 388.734 196.935 388.63 197.651C388.49 198.571 388.84 198.651 388.14 199.101C387.44 199.551 386.7 199.121 386.01 199.711Z" fill="#263238" stroke="#263238" stroke-linecap="round" stroke-linejoin="round"/>
<path d="M399.111 222.5C399.111 222.5 400.581 224.12 403.651 223.05L399.111 222.5Z" fill="white"/>
<path d="M399.111 222.5C399.111 222.5 400.581 224.12 403.651 223.05" stroke="#263238" stroke-linecap="round" stroke-linejoin="round"/>
</svg>
