<svg width="159" height="201" viewBox="0 0 159 201" fill="none" xmlns="http://www.w3.org/2000/svg">
<path d="M147.525 41.9365C145.693 32.471 141.255 23.4156 135.05 15.6749C128.846 7.93416 119.667 1.77454 109.278 0.522984C98.547 -0.763629 87.8891 3.18035 78.6187 8.23565C69.3482 13.291 60.8326 19.5978 51.0448 23.7837C42.4296 27.4682 32.8909 29.4946 25.0805 34.4587C14.4457 41.2143 8.31775 52.7938 6.50888 64.5206C4.7 76.2473 6.77713 88.1985 9.81619 99.7114C16.1588 123.698 26.7284 146.71 40.6093 167.87C46.8943 177.452 54.1145 186.896 64.3048 193.056C70.1003 196.511 76.6344 198.796 83.4714 199.759C90.3083 200.722 97.2912 200.34 103.954 198.64C114.819 195.79 124.868 189.122 130.938 180.351C133.544 176.607 166.38 139.179 147.525 41.9365Z" fill="#FF8100"/>
<path opacity="0.7" d="M147.525 41.9365C145.693 32.471 141.255 23.4156 135.05 15.6749C128.846 7.93416 119.667 1.77454 109.278 0.522984C98.547 -0.763629 87.8891 3.18035 78.6187 8.23565C69.3482 13.291 60.8326 19.5978 51.0448 23.7837C42.4296 27.4682 32.8909 29.4946 25.0805 34.4587C14.4457 41.2143 8.31775 52.7938 6.50888 64.5206C4.7 76.2473 6.77713 88.1985 9.81619 99.7114C16.1588 123.698 26.7284 146.71 40.6093 167.87C46.8943 177.452 54.1145 186.896 64.3048 193.056C70.1003 196.511 76.6344 198.796 83.4714 199.759C90.3083 200.722 97.2912 200.34 103.954 198.64C114.819 195.79 124.868 189.122 130.938 180.351C133.544 176.607 166.38 139.179 147.525 41.9365Z" fill="white"/>
<path d="M148.382 132.385H96.3945V102.301H148.382V132.385ZM96.7117 132.068H148.064V102.618H96.7117V132.068Z" fill="#E0E0E0"/>
<path d="M137.655 118.34H103.355V119.345H137.655V118.34Z" fill="#F0F0F0"/>
<path d="M140.018 122.09H103.355V123.187H140.018V122.09Z" fill="#F0F0F0"/>
<path d="M140.018 125.883H103.355V126.98H140.018V125.883Z" fill="#F0F0F0"/>
<path d="M115.343 112.895H103.355V115.505H115.343V112.895Z" fill="#F0F0F0"/>
<path d="M148.223 102.457H96.5625V107.247H148.223V102.457Z" fill="#E0E0E0"/>
<path d="M144.247 106.527C144.18 106.463 144.846 105.661 145.731 104.735C146.616 103.808 147.393 103.107 147.457 103.168C147.52 103.228 146.857 104.034 145.972 104.963C145.087 105.892 144.31 106.59 144.247 106.527Z" fill="white"/>
<path d="M147.465 106.527C147.401 106.591 146.627 105.893 145.739 104.963C144.851 104.034 144.188 103.232 144.255 103.168C144.321 103.105 145.092 103.802 145.98 104.735C146.868 105.668 147.525 106.464 147.465 106.527Z" fill="white"/>
<path d="M84.2373 43.0518V72.4834H32.915V43.0518H84.2373Z" fill="#E6E6E6" stroke="black" stroke-width="0.338243"/>
<path d="M73.6738 58.9424V59.6104H39.7119V58.9424H73.6738Z" fill="#F0F0F0" stroke="black" stroke-width="0.338243"/>
<path d="M76.2058 62.5234H39.543V63.621H76.2058V62.5234Z" fill="#F0F0F0"/>
<path d="M76.2058 66.3164H39.543V67.4139H76.2058V66.3164Z" fill="#F0F0F0"/>
<path d="M51.5302 53.3203H39.543V55.9309H51.5302V53.3203Z" fill="#F0F0F0"/>
<path d="M84.2373 43.0518V47.5039H32.915V43.0518H84.2373Z" fill="#E0E0E0" stroke="black" stroke-width="0.338243"/>
<path d="M80.2585 46.9343C80.1919 46.874 80.858 46.0683 81.743 45.142C82.628 44.2158 83.4052 43.5148 83.4686 43.5782C83.5321 43.6416 82.8691 44.4442 81.9841 45.3704C81.0991 46.2967 80.3219 46.9914 80.2585 46.9343Z" fill="white"/>
<path d="M83.4687 46.9343C83.4052 46.9977 82.6312 46.2999 81.743 45.3704C80.8549 44.441 80.1919 43.6417 80.2585 43.5782C80.3251 43.5148 81.0959 44.2126 81.9841 45.1421C82.8723 46.0715 83.5353 46.874 83.4687 46.9343Z" fill="white"/>
<path d="M64.8281 68.1143V98.168H12.8838V68.1143H64.8281ZM13.168 97.8848H64.5449V68.3984H13.168V97.8848Z" fill="#E0E0E0" stroke="black" stroke-width="0.0338243"/>
<path d="M54.1238 84.1406H19.8242V85.1462H54.1238V84.1406Z" fill="#F0F0F0"/>
<path d="M56.487 87.8906H19.8242V88.9882H56.487V87.8906Z" fill="#F0F0F0"/>
<path d="M56.487 91.6836H19.8242V92.7811H56.487V91.6836Z" fill="#F0F0F0"/>
<path d="M31.8115 78.6992H19.8242V81.3098H31.8115V78.6992Z" fill="#F0F0F0"/>
<path d="M64.6838 68.2578H13.0234V73.0476H64.6838V68.2578Z" fill="#E0E0E0"/>
<path d="M124.662 105.247V159.52H64.001V105.247H124.662Z" fill="#E6E6E6" stroke="black" stroke-width="0.338243"/>
<path d="M66.7285 88.0439V137.352H19.2822V88.0439H66.7285Z" fill="#F0F0F0" stroke="black" stroke-width="0.338243"/>
<path d="M66.7285 88.0439V93.1143H19.2822V88.0439H66.7285Z" fill="#E0E0E0" stroke="black" stroke-width="0.338243"/>
<path d="M23.0624 90.5233C23.0537 90.7195 22.9876 90.9087 22.8723 91.0676C22.757 91.2265 22.5976 91.3481 22.4138 91.4172C22.2301 91.4863 22.03 91.4999 21.8386 91.4563C21.6472 91.4128 21.4728 91.314 21.337 91.1722C21.2012 91.0304 21.1101 90.8519 21.0749 90.6587C21.0396 90.4656 21.0619 90.2664 21.1389 90.0858C21.2159 89.9052 21.3442 89.7512 21.508 89.6429C21.6717 89.5346 21.8637 89.4768 22.06 89.4766C22.3315 89.4832 22.5893 89.597 22.7771 89.7932C22.9649 89.9893 23.0675 90.2518 23.0624 90.5233Z" fill="white"/>
<path d="M27.1313 90.5233C27.1233 90.7204 27.0574 90.9107 26.942 91.0706C26.8265 91.2306 26.6666 91.353 26.4821 91.4227C26.2977 91.4924 26.0967 91.5064 25.9044 91.4628C25.7121 91.4192 25.5368 91.32 25.4004 91.1776C25.264 91.0351 25.1725 90.8557 25.1373 90.6617C25.102 90.4676 25.1247 90.2675 25.2023 90.0862C25.28 89.9049 25.4092 89.7504 25.574 89.6421C25.7387 89.5337 25.9317 89.4761 26.129 89.4766C26.4004 89.4832 26.6583 89.5971 26.8461 89.7932C27.0339 89.9893 27.1365 90.2518 27.1313 90.5233Z" fill="white"/>
<path d="M31.2017 90.5233C31.1936 90.7204 31.1277 90.9107 31.0123 91.0706C30.8968 91.2306 30.7369 91.353 30.5525 91.4227C30.368 91.4924 30.1671 91.5064 29.9747 91.4628C29.7824 91.4192 29.6071 91.32 29.4707 91.1776C29.3343 91.0351 29.2428 90.8557 29.2076 90.6617C29.1724 90.4676 29.195 90.2675 29.2726 90.0862C29.3503 89.9049 29.4795 89.7504 29.6443 89.6421C29.8091 89.5337 30.0021 89.4761 30.1993 89.4766C30.4708 89.4832 30.7286 89.5971 30.9164 89.7932C31.1042 89.9893 31.2068 90.2518 31.2017 90.5233Z" fill="white"/>
<path d="M141.389 53.9111V114.369H80.7275V53.9111H141.389Z" fill="#F0F0F0" stroke="black" stroke-width="0.338243"/>
<path d="M141.389 53.9111V60.6943H80.7275V53.9111H141.389Z" fill="#E0E0E0" stroke="black" stroke-width="0.338243"/>
<path d="M85.7576 57.2353C85.7464 57.4942 85.6594 57.7441 85.5074 57.954C85.3554 58.1639 85.1452 58.3245 84.9027 58.4159C84.6602 58.5073 84.3962 58.5255 84.1435 58.4682C83.8908 58.4109 83.6605 58.2806 83.4812 58.0936C83.3018 57.9065 83.1814 57.6709 83.1348 57.416C83.0882 57.1611 83.1176 56.8981 83.2191 56.6597C83.3207 56.4213 83.4901 56.218 83.7062 56.075C83.9223 55.9321 84.1757 55.8557 84.4348 55.8555C84.7929 55.8638 85.1332 56.0137 85.3811 56.2723C85.629 56.5309 85.7644 56.8771 85.7576 57.2353Z" fill="white"/>
<path d="M90.7255 56.2987C90.9013 56.4897 91.0171 56.7282 91.0584 56.9845C91.0996 57.2408 91.0646 57.5036 90.9576 57.7401C90.8505 57.9766 90.6763 58.1764 90.4565 58.3146C90.2367 58.4528 89.9811 58.5232 89.7216 58.5172C89.4621 58.5111 89.21 58.4288 88.9969 58.2805C88.7838 58.1323 88.6191 57.9246 88.5232 57.6833C88.4273 57.4421 88.4046 57.1779 88.4577 56.9238C88.5109 56.6697 88.6377 56.4369 88.8222 56.2543C89.0808 56.0083 89.4263 55.8749 89.783 55.8832C90.1398 55.8915 90.4787 56.0409 90.7255 56.2987Z" fill="white"/>
<path d="M96.4685 57.2353C96.4573 57.4942 96.3703 57.7441 96.2184 57.954C96.0664 58.1639 95.8561 58.3245 95.6136 58.4159C95.3712 58.5073 95.1072 58.5255 94.8545 58.4682C94.6017 58.4109 94.3714 58.2806 94.1921 58.0936C94.0128 57.9065 93.8923 57.6709 93.8458 57.416C93.7992 57.1611 93.8285 56.8981 93.9301 56.6597C94.0317 56.4213 94.201 56.218 94.4171 56.075C94.6333 55.9321 94.8866 55.8557 95.1457 55.8555C95.5039 55.8638 95.8441 56.0137 96.092 56.2723C96.3399 56.5309 96.4753 56.8771 96.4685 57.2353Z" fill="white"/>
<path d="M128.384 175.813C128.384 175.857 106.357 175.895 79.1949 175.895C52.0325 175.895 29.9961 175.857 29.9961 175.813C29.9961 175.769 52.0198 175.73 79.1949 175.73C106.37 175.73 128.384 175.772 128.384 175.813Z" fill="#263238"/>
<path d="M106.92 136.982C102.019 133.559 100.909 127.205 101.103 121.492C101.134 120.541 101.03 119.532 101.483 118.698C101.937 117.863 102.996 117.289 103.85 117.689C104.557 118.022 104.865 118.847 105.261 119.529C105.79 120.437 106.566 121.177 107.498 121.664C108.103 121.981 108.855 122.171 109.455 121.841C110.279 121.388 110.375 120.255 110.368 119.304C110.368 117.534 110.358 115.766 110.337 114C110.28 113.052 110.376 112.101 110.622 111.183C110.917 110.282 111.574 109.448 112.471 109.194C113.369 108.94 114.489 109.464 114.692 110.39C114.727 110.782 114.736 111.177 114.72 111.57C114.746 111.967 114.93 112.401 115.301 112.522C115.672 112.642 116.059 112.366 116.344 112.087C117.321 111.136 117.988 109.895 118.606 108.671C119.225 107.446 119.831 106.187 120.719 105.143C121.607 104.1 122.835 103.272 124.208 103.193C125.582 103.113 127.012 103.957 127.355 105.289C127.697 106.622 126.92 107.982 126.086 109.064C124.827 110.67 123.343 112.085 121.68 113.267C121.355 113.444 121.096 113.721 120.941 114.057C120.735 114.691 121.334 115.326 121.959 115.526C122.666 115.76 123.434 115.687 124.179 115.776C124.925 115.865 125.718 116.189 126 116.886C126.387 117.857 125.575 118.872 124.779 119.538C123.18 120.871 121.365 121.919 119.412 122.637C118.714 122.891 117.981 123.116 117.417 123.605C116.852 124.093 116.516 124.947 116.855 125.616C117.195 126.285 118.067 126.498 118.8 126.361C119.532 126.225 120.183 125.832 120.881 125.568C122.184 125.077 123.865 125.166 124.687 126.292C124.942 126.68 125.103 127.121 125.158 127.582C125.213 128.043 125.16 128.51 125.004 128.947C124.687 129.816 124.198 130.613 123.567 131.291C121.49 133.773 118.79 135.659 115.745 136.756C112.722 137.803 109.921 138.089 106.917 136.988" fill="#FF8100"/>
<path d="M125.96 103.977C125.96 103.977 125.931 104.008 125.868 104.065L125.585 104.316C125.338 104.538 124.973 104.862 124.513 105.29C123.209 106.501 121.998 107.808 120.891 109.201C120.183 110.08 119.45 111.076 118.67 112.157C117.89 113.239 117.084 114.406 116.285 115.647C115.432 116.955 114.652 118.308 113.947 119.701C113.579 120.427 113.255 121.185 112.922 121.959L111.939 124.322C110.643 127.299 109.514 130.346 108.558 133.448C107.787 135.987 107.256 138.592 106.972 141.229C106.787 143.009 106.757 144.802 106.883 146.587C106.933 147.221 106.981 147.707 107.025 148.037C107.044 148.195 107.057 148.322 107.07 148.414V148.544C107.056 148.503 107.047 148.46 107.041 148.417C107.025 148.325 107.006 148.202 106.981 148.043C106.924 147.726 106.864 147.225 106.807 146.59C106.654 144.802 106.664 143.003 106.838 141.217C107.105 138.568 107.625 135.951 108.389 133.401C109.338 130.289 110.464 127.235 111.761 124.252L112.77 121.899C113.103 121.128 113.43 120.363 113.801 119.634C114.511 118.237 115.298 116.88 116.158 115.57C116.97 114.302 117.788 113.153 118.559 112.081C119.33 111.009 120.075 110.007 120.78 109.131C121.898 107.742 123.126 106.444 124.45 105.249C124.919 104.827 125.293 104.509 125.547 104.297L125.842 104.059C125.878 104.028 125.918 104 125.96 103.977Z" fill="#263238"/>
<path d="M113.84 119.628C113.795 119.498 113.764 119.363 113.748 119.225C113.697 118.962 113.64 118.591 113.574 118.109C113.437 117.157 113.298 115.853 113.149 114.41C112.999 112.967 112.831 111.66 112.692 110.718C112.619 110.248 112.555 109.871 112.511 109.608C112.476 109.473 112.458 109.334 112.457 109.195C112.512 109.322 112.551 109.455 112.574 109.592C112.644 109.852 112.723 110.226 112.812 110.699C112.993 111.65 113.171 112.945 113.32 114.391C113.469 115.838 113.596 117.106 113.694 118.093C113.742 118.537 113.783 118.915 113.815 119.216C113.839 119.352 113.848 119.49 113.84 119.628Z" fill="#263238"/>
<path d="M126.048 117.35C125.894 117.383 125.737 117.402 125.579 117.407C125.262 117.435 124.811 117.473 124.253 117.537C123.136 117.657 121.601 117.879 119.917 118.197C118.232 118.514 116.719 118.872 115.631 119.148C115.089 119.288 114.651 119.415 114.363 119.5C114.208 119.555 114.049 119.593 113.887 119.614C114.033 119.541 114.186 119.48 114.343 119.434C114.642 119.329 115.073 119.183 115.612 119.028C116.694 118.71 118.207 118.333 119.898 118.009C121.33 117.736 122.775 117.534 124.228 117.407C124.789 117.359 125.243 117.34 125.56 117.334C125.723 117.323 125.887 117.328 126.048 117.35Z" fill="#263238"/>
<path d="M108.544 133.176C108.51 133.131 108.483 133.08 108.462 133.027L108.252 132.586C108.072 132.203 107.827 131.635 107.535 130.94C106.945 129.544 106.194 127.59 105.394 125.421C104.595 123.251 103.859 121.297 103.301 119.885C103.028 119.2 102.803 118.639 102.635 118.22L102.457 117.767C102.432 117.714 102.415 117.659 102.406 117.602C102.44 117.647 102.468 117.698 102.489 117.751L102.698 118.192C102.876 118.575 103.123 119.143 103.415 119.838C104.005 121.234 104.757 123.188 105.556 125.357C106.355 127.527 107.091 129.481 107.65 130.893C107.922 131.578 108.148 132.139 108.313 132.558C108.386 132.739 108.446 132.875 108.493 133.011C108.518 133.064 108.535 133.119 108.544 133.176Z" fill="#263238"/>
<path d="M124.745 127.957C124.694 127.986 124.64 128.009 124.583 128.024L124.114 128.182L122.379 128.744C120.913 129.22 118.89 129.898 116.669 130.647C114.449 131.396 112.415 132.062 110.94 132.506C110.204 132.731 109.605 132.902 109.189 133.016L108.71 133.14C108.655 133.158 108.597 133.17 108.539 133.175C108.59 133.146 108.644 133.124 108.701 133.108L109.17 132.95L110.905 132.388C112.371 131.913 114.395 131.234 116.615 130.485C118.836 129.737 120.866 129.07 122.341 128.626C123.08 128.401 123.676 128.23 124.095 128.116L124.574 127.992C124.63 127.974 124.687 127.963 124.745 127.957Z" fill="#263238"/>
<path d="M118.137 51.0082L116.503 51.5919L115.802 49.4571C114.514 45.5205 110.41 43.4301 106.638 44.7592C102.867 46.0883 100.859 50.4055 102.146 54.342L102.847 56.4769L101.208 57.0637C100.582 57.3062 100.074 57.7804 99.7896 58.3877C99.5048 58.995 99.4651 59.6887 99.6786 60.3246L104.224 74.2151C104.319 74.5298 104.475 74.8224 104.685 75.0755C104.894 75.3285 105.153 75.5368 105.445 75.688C105.736 75.8392 106.056 75.9302 106.383 75.9557C106.711 75.9811 107.04 75.9404 107.352 75.836L124.281 69.7805C124.915 69.5384 125.43 69.06 125.718 68.4459C126.006 67.8318 126.045 67.13 125.826 66.4879L121.277 52.5974C121.18 52.2835 121.021 51.9923 120.81 51.7413C120.598 51.4902 120.338 51.2843 120.044 51.136C119.751 50.9877 119.431 50.8999 119.104 50.878C118.776 50.856 118.447 50.9003 118.137 51.0082ZM105.233 53.2287C104.886 52.2051 104.948 51.0869 105.407 50.1082C105.866 49.1296 106.685 48.3665 107.694 47.9789C108.193 47.8084 108.72 47.7401 109.245 47.7779C109.77 47.8157 110.283 47.9589 110.751 48.199C111.22 48.4391 111.635 48.7712 111.973 49.1753C112.31 49.5795 112.563 50.0475 112.716 50.5514L113.414 52.6862L105.931 55.3635L105.233 53.2287ZM114.749 65.5553L115.91 69.1017C115.931 69.1728 115.924 69.2494 115.891 69.3156C115.857 69.3817 115.799 69.4324 115.729 69.457L114.102 70.0375C114.037 70.0554 113.968 70.0476 113.909 70.0157C113.85 69.9837 113.805 69.9302 113.785 69.8662L112.614 66.3356C111.969 66.3005 111.35 66.069 110.839 65.6722C110.329 65.2753 109.952 64.7321 109.759 64.1152C109.484 63.2996 109.534 62.409 109.9 61.6297C110.266 60.8504 110.919 60.2429 111.723 59.9344C112.12 59.7988 112.54 59.7445 112.958 59.7747C113.377 59.8049 113.784 59.919 114.158 60.1103C114.531 60.3015 114.862 60.5659 115.131 60.8877C115.4 61.2096 115.601 61.5823 115.723 61.9836C115.927 62.6102 115.944 63.2828 115.771 63.9189C115.599 64.555 115.245 65.127 114.752 65.5648L114.749 65.5553Z" fill="#FF8100"/>
<path d="M116.433 51.5519C116.433 51.5963 113.404 52.7351 109.635 54.0896C105.867 55.444 102.793 56.5321 102.777 56.5003C102.762 56.4686 105.807 55.3203 109.578 53.9627C113.35 52.605 116.417 51.5107 116.433 51.5519Z" fill="#263238"/>
<path d="M120.03 52.1367C120.044 52.1642 120.056 52.1929 120.065 52.2224C120.09 52.2858 120.119 52.3683 120.157 52.4698C120.24 52.7013 120.354 53.0217 120.496 53.4214L121.715 56.9678C122.222 58.4713 122.828 60.254 123.5 62.2334C123.818 63.2263 124.192 64.2604 124.541 65.3484C124.728 65.9091 124.808 66.4996 124.779 67.0899C124.752 67.3968 124.665 67.6954 124.522 67.9685C124.369 68.2407 124.166 68.4809 123.922 68.6759C123.432 69.0336 122.888 69.311 122.311 69.4975L120.677 70.0843L117.585 71.1913L112.347 73.0565L108.811 74.3L107.859 74.6172L107.605 74.6997C107.578 74.7117 107.549 74.7192 107.52 74.7219C107.52 74.7219 107.545 74.7219 107.599 74.6838L107.846 74.5855L108.798 74.227L112.316 72.9328L117.543 71.0296L120.63 69.913L122.263 69.323C122.824 69.1441 123.352 68.8752 123.827 68.5268C124.054 68.3459 124.243 68.1229 124.385 67.8702C124.52 67.6176 124.601 67.3401 124.623 67.055C124.653 66.4863 124.575 65.9171 124.395 65.3769C124.052 64.2984 123.691 63.2548 123.364 62.262C122.704 60.2794 122.095 58.4904 121.613 56.9868C121.131 55.4833 120.725 54.2747 120.446 53.4246C120.312 53.009 120.211 52.6855 120.129 52.4508L120.052 52.197C120.043 52.1778 120.035 52.1576 120.03 52.1367Z" fill="#263238"/>
<path d="M111.097 47.7671C111.097 47.7671 110.928 47.6847 110.618 47.5578C110.174 47.3875 109.706 47.2932 109.231 47.2786C108.528 47.2545 107.828 47.3867 107.182 47.6656C106.397 48.013 105.725 48.5748 105.244 49.2866C104.76 49.9963 104.5 50.8351 104.499 51.6942C104.505 52.3983 104.612 53.0979 104.816 53.7719C104.981 54.3492 105.152 54.8091 105.266 55.1295C105.334 55.2922 105.389 55.4598 105.431 55.6307C105.341 55.4786 105.266 55.3182 105.206 55.1517C105.076 54.8345 104.889 54.3841 104.705 53.8036C104.479 53.1225 104.356 52.4115 104.34 51.6942C104.332 50.8026 104.597 49.93 105.101 49.1946C105.599 48.4568 106.298 47.8776 107.116 47.5261C107.782 47.2456 108.503 47.1219 109.225 47.1644C109.71 47.1891 110.186 47.302 110.63 47.4975C110.749 47.5523 110.864 47.6159 110.973 47.6878C111.018 47.7077 111.06 47.7344 111.097 47.7671Z" fill="#263238"/>
<path d="M111.241 60.1708C111.291 60.1401 111.344 60.1136 111.399 60.0915C111.558 60.0198 111.723 59.9615 111.891 59.917C112.158 59.8381 112.434 59.7913 112.713 59.7775C113.091 59.7571 113.47 59.8143 113.826 59.9456C114.638 60.2311 115.383 61.059 115.751 62.166C115.928 62.7601 115.928 63.3927 115.751 63.9868C115.556 64.6316 115.205 65.2186 114.73 65.6965L114.749 65.6109C115.171 66.7687 115.631 68.0248 116.107 69.3349L116.135 69.4142L116.056 69.4428L115.33 69.6838L113.744 70.2136L113.664 70.2389L113.639 70.1596C113.204 68.8464 112.728 67.622 112.37 66.4198L112.44 66.4737C111.82 66.4222 111.228 66.1894 110.74 65.8044C110.297 65.4638 109.935 65.0307 109.677 64.5356C109.444 64.0964 109.329 63.6049 109.341 63.1081C109.355 62.6004 109.482 62.1022 109.712 61.6493C109.942 61.1963 110.269 60.7997 110.67 60.488C110.835 60.354 111.02 60.2469 111.219 60.1708C111.039 60.2771 110.866 60.3925 110.698 60.5165C110.258 60.8892 109.92 61.3687 109.718 61.9091C109.545 62.3166 109.463 62.7574 109.48 63.2C109.497 63.6426 109.612 64.076 109.817 64.4689C110.07 64.9453 110.424 65.3609 110.854 65.687C111.32 66.053 111.884 66.2736 112.475 66.3214H112.529L112.544 66.369C112.893 67.549 113.372 68.783 113.813 70.1025L113.709 70.0518L115.295 69.5221L116.018 69.2778L115.967 69.3857C115.495 68.0756 115.038 66.8163 114.619 65.6585V65.6109L114.657 65.5728C115.118 65.1147 115.462 64.5522 115.659 63.9329C115.828 63.3646 115.828 62.7597 115.659 62.1914C115.314 61.1256 114.6 60.3167 113.826 60.0312C113.483 59.8991 113.118 59.8376 112.751 59.8504C112.477 59.8567 112.204 59.8939 111.939 59.9614C111.466 60.0788 111.244 60.1866 111.241 60.1708Z" fill="#263238"/>
<path d="M101.436 151.766L69.7504 151.62C67.9206 151.61 66.1695 150.874 64.8819 149.573C63.5943 148.273 62.8753 146.515 62.8829 144.685L63.2191 65.2536C63.2229 64.347 63.4052 63.4501 63.7558 62.6141C64.1064 61.778 64.6183 61.0193 65.2623 60.3812C65.9063 59.7431 66.6697 59.2382 67.5089 58.8953C68.3481 58.5524 69.2467 58.3783 70.1533 58.3829L101.836 58.5288C103.666 58.538 105.417 59.2732 106.705 60.5727C107.994 61.8722 108.713 63.63 108.707 65.4598L108.37 144.888C108.367 145.795 108.184 146.693 107.834 147.529C107.483 148.365 106.972 149.125 106.328 149.763C105.684 150.402 104.92 150.907 104.081 151.251C103.242 151.594 102.343 151.769 101.436 151.766Z" fill="#455A64"/>
<path d="M101.788 61.2642H95.6471C95.4468 61.2679 95.2491 61.3111 95.0654 61.3912C94.8817 61.4713 94.7156 61.5868 94.5765 61.7312C94.4375 61.8755 94.3283 62.0458 94.2551 62.2324C94.1819 62.419 94.1461 62.6181 94.1499 62.8185V63.9319C94.1537 64.1321 94.118 64.3311 94.0447 64.5175C93.9715 64.7039 93.8622 64.874 93.7231 65.0181C93.584 65.1622 93.4179 65.2774 93.2342 65.3572C93.0505 65.437 92.8529 65.4797 92.6527 65.483L80.6813 65.4291C80.2763 65.4183 79.8922 65.2472 79.6132 64.9534C79.3343 64.6596 79.1834 64.2671 79.1936 63.8621V62.7487C79.2038 62.3442 79.0534 61.9522 78.7751 61.6585C78.4968 61.3648 78.1135 61.1933 77.7091 61.1817H75.5489L70.1722 61.1563C68.8934 61.1487 67.6636 61.6482 66.7522 62.5453C65.8408 63.4424 65.322 64.6642 65.3094 65.943L64.9922 143.475C64.9893 144.109 65.1114 144.738 65.3515 145.325C65.5916 145.912 65.945 146.447 66.3915 146.897C66.8381 147.348 67.369 147.706 67.954 147.952C68.539 148.197 69.1667 148.325 69.8011 148.328L101.42 148.474C102.055 148.477 102.684 148.355 103.272 148.114C103.86 147.874 104.394 147.521 104.845 147.074C105.296 146.627 105.655 146.096 105.9 145.51C106.146 144.925 106.274 144.297 106.277 143.662L106.594 66.1301C106.602 64.8477 106.1 63.6148 105.198 62.7023C104.297 61.7898 103.071 61.2726 101.788 61.2642Z" fill="white"/>
<path d="M97.5312 138.131L74.0198 138.03C73.7756 138.03 73.5789 137.763 73.5821 137.44L73.6074 131.289C73.6074 130.972 73.8073 130.699 74.0515 130.699L97.5629 130.807C97.6983 130.83 97.8194 130.905 97.9009 131.016C97.9825 131.126 98.0182 131.264 98.0007 131.4L97.9785 137.545C97.9785 137.871 97.7755 138.135 97.5312 138.131Z" fill="#FF8100"/>
<path d="M66.8306 76.7691C66.2585 76.7691 65.7084 76.6775 65.1803 76.4941C64.6596 76.3034 64.2562 76.0614 63.9702 75.768L64.2892 75.1409C64.5606 75.405 64.9236 75.6287 65.3784 75.812C65.8404 75.988 66.3245 76.076 66.8306 76.076C67.3146 76.076 67.707 76.0174 68.0077 75.9C68.3157 75.7753 68.5394 75.6103 68.6788 75.405C68.8255 75.1996 68.8988 74.9722 68.8988 74.7229C68.8988 74.4222 68.8108 74.1801 68.6348 73.9968C68.4661 73.8134 68.2424 73.6704 67.9637 73.5677C67.685 73.4577 67.377 73.3624 67.0396 73.2817C66.7022 73.201 66.3648 73.1167 66.0275 73.0287C65.6901 72.9333 65.3784 72.8086 65.0923 72.6546C64.8136 72.5006 64.5863 72.2989 64.4102 72.0495C64.2416 71.7928 64.1572 71.4591 64.1572 71.0484C64.1572 70.667 64.2562 70.3187 64.4543 70.0033C64.6596 69.6806 64.9713 69.4239 65.3894 69.2332C65.8074 69.0352 66.3428 68.9361 66.9956 68.9361C67.4283 68.9361 67.8573 68.9985 68.2827 69.1232C68.7081 69.2405 69.0748 69.4055 69.3829 69.6182L69.1078 70.2673C68.7778 70.0473 68.4258 69.8859 68.0517 69.7833C67.685 69.6806 67.3293 69.6292 66.9846 69.6292C66.5225 69.6292 66.1411 69.6916 65.8404 69.8163C65.5397 69.9409 65.316 70.1096 65.1693 70.3223C65.03 70.5277 64.9603 70.7624 64.9603 71.0264C64.9603 71.3271 65.0447 71.5691 65.2133 71.7525C65.3894 71.9359 65.6167 72.0789 65.8954 72.1816C66.1815 72.2842 66.4932 72.3759 66.8306 72.4566C67.1679 72.5373 67.5016 72.6253 67.8317 72.7206C68.1691 72.816 68.4771 72.9406 68.7558 73.0947C69.0418 73.2414 69.2692 73.4394 69.4379 73.6887C69.6139 73.9381 69.7019 74.2645 69.7019 74.6679C69.7019 75.0419 69.5992 75.3903 69.3939 75.713C69.1885 76.0284 68.8731 76.2851 68.4478 76.4831C68.0297 76.6738 67.4906 76.7691 66.8306 76.7691ZM71.4757 76.7031V69.0022H72.2898V76.7031H71.4757ZM74.7955 76.7031V69.0022H75.4666L80.7802 75.691H80.4282V69.0022H81.2313V76.7031H80.5602L75.2575 70.0143H75.6096V76.7031H74.7955ZM87.1223 76.7691C86.5355 76.7691 85.9928 76.6738 85.4941 76.4831C85.0027 76.2851 84.5736 76.01 84.2069 75.658C83.8475 75.3059 83.5652 74.8916 83.3598 74.4148C83.1618 73.9381 83.0628 73.4174 83.0628 72.8526C83.0628 72.2879 83.1618 71.7672 83.3598 71.2904C83.5652 70.8137 83.8512 70.3993 84.2179 70.0473C84.5846 69.6952 85.0137 69.4239 85.5051 69.2332C86.0038 69.0352 86.5465 68.9361 87.1333 68.9361C87.72 68.9361 88.2554 69.0278 88.7395 69.2112C89.2309 69.3945 89.6489 69.6732 89.9936 70.0473L89.4876 70.5643C89.1649 70.2416 88.8092 70.0106 88.4204 69.8713C88.0317 69.7319 87.6137 69.6622 87.1663 69.6622C86.6896 69.6622 86.2495 69.7429 85.8461 69.9043C85.4501 70.0583 85.1017 70.282 84.801 70.5754C84.5076 70.8614 84.2766 71.1988 84.1079 71.5875C83.9465 71.9689 83.8659 72.3906 83.8659 72.8526C83.8659 73.3074 83.9465 73.7291 84.1079 74.1178C84.2766 74.5065 84.5076 74.8476 84.801 75.1409C85.1017 75.427 85.4501 75.6507 85.8461 75.812C86.2495 75.966 86.6859 76.043 87.1553 76.043C87.5953 76.043 88.0097 75.977 88.3984 75.845C88.7945 75.713 89.1575 75.4893 89.4876 75.1739L89.9496 75.79C89.5829 76.1127 89.1539 76.3584 88.6625 76.5271C88.1711 76.6885 87.6577 76.7691 87.1223 76.7691ZM89.1685 75.691V72.8526H89.9496V75.79L89.1685 75.691ZM98.2354 76.7691C97.2526 76.7691 96.4788 76.4868 95.9141 75.922C95.3494 75.3573 95.067 74.5212 95.067 73.4137V69.0022H95.8811V73.3807C95.8811 74.2902 96.0865 74.9612 96.4972 75.394C96.9079 75.8267 97.4873 76.043 98.2354 76.043C98.9908 76.043 99.5739 75.8267 99.9846 75.394C100.395 74.9612 100.601 74.2902 100.601 73.3807V69.0022H101.393V73.4137C101.393 74.5212 101.11 75.3573 100.546 75.922C99.9883 76.4868 99.2182 76.7691 98.2354 76.7691ZM103.846 76.7031V69.0022H106.728C107.381 69.0022 107.942 69.1085 108.412 69.3212C108.881 69.5266 109.24 69.8273 109.49 70.2233C109.746 70.612 109.875 71.0851 109.875 71.6425C109.875 72.1852 109.746 72.6546 109.49 73.0507C109.24 73.4394 108.881 73.7401 108.412 73.9528C107.942 74.1655 107.381 74.2718 106.728 74.2718H104.297L104.66 73.8868V76.7031H103.846ZM104.66 73.9528L104.297 73.5567H106.706C107.476 73.5567 108.06 73.3917 108.456 73.0617C108.859 72.7243 109.061 72.2512 109.061 71.6425C109.061 71.0264 108.859 70.5497 108.456 70.2123C108.06 69.8749 107.476 69.7062 106.706 69.7062H104.297L104.66 69.3212V73.9528Z" fill="#E8E8E3"/>
<path d="M77.7015 89.5292L69.543 89.4922L69.5362 90.9894L77.6947 91.0264L77.7015 89.5292Z" fill="#FF8100"/>
<path opacity="0.1" d="M77.7015 89.5292L69.543 89.4922L69.5362 90.9894L77.6947 91.0264L77.7015 89.5292Z" fill="black"/>
<path d="M101.619 98.7181C101.683 98.7117 101.746 98.6967 101.806 98.6737C101.894 98.6394 101.97 98.581 102.026 98.5053C102.082 98.4295 102.116 98.3395 102.123 98.2455C102.123 97.7411 102.123 97.0052 102.123 96.0599C102.123 95.5873 102.123 95.0576 102.123 94.4739C102.123 94.3312 102.123 94.1821 102.123 94.033C102.144 93.8883 102.112 93.741 102.034 93.6174C101.991 93.5582 101.934 93.5099 101.868 93.4763C101.803 93.4427 101.73 93.4248 101.657 93.424H101.162H96.5784L70.0472 93.3256C69.9793 93.3245 69.9121 93.3397 69.8513 93.3701C69.7906 93.4005 69.7381 93.4451 69.6982 93.5001C69.6216 93.6242 69.5924 93.7717 69.6158 93.9156C69.6158 94.2328 69.6158 94.55 69.6158 94.8672C69.6158 95.5017 69.6158 96.1361 69.6158 96.7705C69.6158 97.0877 69.6158 97.4049 69.6158 97.7221C69.6026 97.8698 69.6026 98.0185 69.6158 98.1662C69.6324 98.2295 69.6634 98.2882 69.7063 98.3377C69.7492 98.3872 69.8029 98.4262 69.8632 98.4517C69.9257 98.4766 69.9926 98.4884 70.0599 98.4866H71.6744L78.7196 98.5246L90.6466 98.5976L98.6878 98.661L100.873 98.6864H101.441C101.571 98.6864 101.635 98.6864 101.635 98.6864H101.441H100.873H98.6878H90.6466L78.7196 98.6484L71.6744 98.6198H70.0599C69.971 98.6234 69.8824 98.6083 69.7997 98.5754C69.7162 98.5398 69.6419 98.4855 69.5826 98.4168C69.5232 98.3481 69.4803 98.2667 69.4572 98.1789C69.4388 98.0956 69.4324 98.0102 69.4381 97.9251V97.6904C69.4381 97.3732 69.4381 97.056 69.4381 96.7388C69.4381 96.1044 69.4381 95.4699 69.4381 94.8355C69.4381 94.5183 69.4381 94.2011 69.4381 93.8839C69.4321 93.7994 69.4321 93.7146 69.4381 93.6301C69.45 93.5368 69.4861 93.4482 69.5428 93.3732C69.5975 93.2966 69.67 93.2344 69.7539 93.1919C69.8379 93.1494 69.9309 93.1278 70.025 93.129L96.5562 93.2749L101.14 93.3066H101.635C101.722 93.3067 101.808 93.3277 101.885 93.368C101.962 93.4084 102.029 93.4667 102.079 93.5381C102.168 93.6761 102.204 93.8418 102.18 94.0044C102.18 94.1535 102.18 94.3026 102.18 94.4454C102.18 95.0227 102.18 95.5524 102.18 96.0314C102.18 96.983 102.158 97.7126 102.152 98.2201C102.144 98.3177 102.108 98.411 102.049 98.4892C101.99 98.5673 101.91 98.6269 101.819 98.661C101.759 98.6982 101.689 98.718 101.619 98.7181Z" fill="#E0E0E0"/>
<path d="M86.9175 94.9258H71.9961V96.3247H86.9175V94.9258Z" fill="#FF8100"/>
<path opacity="0.2" d="M86.9175 94.9258H71.9961V96.3247H86.9175V94.9258Z" fill="white"/>
<path d="M77.6468 103.185L69.4883 103.148L69.4815 104.646L77.64 104.683L77.6468 103.185Z" fill="#FF8100"/>
<path opacity="0.1" d="M77.6468 103.185L69.4883 103.148L69.4815 104.646L77.64 104.683L77.6468 103.185Z" fill="black"/>
<path d="M101.416 112.386C101.48 112.378 101.543 112.367 101.606 112.351C101.695 112.323 101.776 112.276 101.845 112.214C101.914 112.152 101.969 112.075 102.006 111.99C102.056 111.862 102.075 111.724 102.063 111.587C102.063 111.435 102.063 111.27 102.063 111.086C102.063 110.718 102.063 110.299 102.063 109.817V107.803C102.078 107.657 102.046 107.51 101.971 107.384C101.893 107.255 101.77 107.159 101.625 107.114C101.467 107.086 101.306 107.078 101.146 107.089H96.5815L70.1423 106.991C70.0001 106.991 69.8628 107.043 69.756 107.137C69.6493 107.231 69.5802 107.36 69.5618 107.501C69.5618 107.803 69.5618 108.136 69.5618 108.453C69.5618 109.087 69.5618 109.722 69.5618 110.356C69.5618 110.673 69.5618 110.991 69.5618 111.308C69.55 111.456 69.5564 111.605 69.5808 111.752C69.6204 111.881 69.7019 111.992 69.8124 112.069C69.9295 112.143 70.0672 112.179 70.2057 112.171H70.6466H71.5634L78.5832 112.206L90.4689 112.278L98.4816 112.342L100.661 112.367H98.4816H90.4689L78.5768 112.355L71.557 112.329H70.1772C70.0056 112.339 69.8353 112.294 69.6918 112.199C69.5475 112.099 69.4422 111.952 69.3937 111.784C69.3652 111.622 69.3567 111.458 69.3683 111.295C69.3683 110.978 69.3683 110.661 69.3683 110.344C69.3683 109.709 69.3683 109.075 69.3683 108.44C69.3683 108.123 69.3683 107.806 69.3683 107.489C69.3914 107.307 69.4799 107.141 69.6171 107.02C69.7543 106.899 69.9309 106.832 70.1137 106.832L96.5529 106.978L101.118 107.013C101.288 107.002 101.458 107.014 101.625 107.048C101.79 107.102 101.929 107.215 102.015 107.365C102.097 107.505 102.133 107.667 102.117 107.828C102.117 107.977 102.117 108.123 102.117 108.269C102.117 108.843 102.117 109.37 102.117 109.855C102.117 110.34 102.117 110.75 102.117 111.124C102.117 111.305 102.117 111.473 102.117 111.628C102.128 111.77 102.105 111.913 102.05 112.044C102.009 112.131 101.949 112.209 101.875 112.271C101.802 112.334 101.715 112.379 101.622 112.405C101.553 112.411 101.483 112.405 101.416 112.386Z" fill="#E0E0E0"/>
<path d="M77.5843 117.439L69.4258 117.402L69.419 118.9L77.5775 118.937L77.5843 117.439Z" fill="#FF8100"/>
<path opacity="0.1" d="M77.5843 117.439L69.4258 117.402L69.419 118.9L77.5775 118.937L77.5843 117.439Z" fill="black"/>
<path d="M101.348 126.627C101.412 126.619 101.476 126.608 101.538 126.592C101.627 126.564 101.708 126.517 101.777 126.456C101.846 126.394 101.901 126.318 101.938 126.233C101.988 126.105 102.007 125.967 101.995 125.831C101.995 125.675 101.995 125.513 101.995 125.326C101.995 124.961 101.995 124.54 101.995 124.057V122.043C102.01 121.897 101.978 121.75 101.903 121.624C101.823 121.498 101.701 121.403 101.557 121.358C101.4 121.329 101.239 121.319 101.078 121.329H96.5139L70.0747 121.231C69.9324 121.231 69.7952 121.283 69.6884 121.377C69.5816 121.471 69.5126 121.601 69.4942 121.742C69.4942 122.059 69.4942 122.376 69.4942 122.693C69.4942 123.328 69.4942 123.962 69.4942 124.597C69.4942 124.914 69.4942 125.231 69.4942 125.548C69.4824 125.695 69.4888 125.844 69.5132 125.989C69.5512 126.119 69.6331 126.231 69.7448 126.306C69.8612 126.382 69.9994 126.418 70.1381 126.408H71.518L78.5377 126.446L90.4235 126.519L98.4361 126.582L100.615 126.608H98.4361H90.4235L78.5377 126.573L71.518 126.544H70.1381C69.9664 126.556 69.7957 126.51 69.6528 126.414C69.5084 126.314 69.4031 126.167 69.3546 125.999C69.3262 125.838 69.3176 125.673 69.3292 125.51C69.3292 125.193 69.3292 124.876 69.3292 124.559C69.3292 123.924 69.3292 123.29 69.3292 122.655C69.3292 122.338 69.3292 122.021 69.3292 121.688C69.3516 121.507 69.4395 121.34 69.5762 121.219C69.7128 121.098 69.889 121.031 70.0715 121.031L96.5107 121.177L101.075 121.212C101.245 121.202 101.416 121.213 101.583 121.247C101.748 121.301 101.887 121.414 101.973 121.564C102.055 121.704 102.091 121.866 102.075 122.027C102.075 122.176 102.075 122.325 102.075 122.468C102.075 123.042 102.075 123.569 102.075 124.054C102.075 124.54 102.075 124.949 102.075 125.323C102.075 125.504 102.075 125.672 102.075 125.827C102.087 125.969 102.064 126.112 102.008 126.243C101.967 126.33 101.907 126.408 101.833 126.471C101.759 126.533 101.673 126.579 101.58 126.605C101.505 126.63 101.426 126.638 101.348 126.627Z" fill="#E0E0E0"/>
<path d="M86.5971 108.978L71.6758 108.91L71.6694 110.309L86.5907 110.377L86.5971 108.978Z" fill="#FF8100"/>
<path opacity="0.2" d="M86.5971 108.978L71.6758 108.91L71.6694 110.309L86.5907 110.377L86.5971 108.978Z" fill="white"/>
<path d="M73.0278 124.041C73.0184 124.169 72.9718 124.291 72.8937 124.392C72.8157 124.493 72.7096 124.57 72.5886 124.611C72.4676 124.653 72.337 124.658 72.2131 124.626C72.0893 124.594 71.9774 124.527 71.8916 124.432C71.8058 124.337 71.7496 124.219 71.7302 124.092C71.7108 123.966 71.7289 123.837 71.7824 123.72C71.8358 123.604 71.9222 123.506 72.0308 123.439C72.1394 123.371 72.2655 123.337 72.3934 123.34C72.5701 123.35 72.7358 123.429 72.8546 123.56C72.9733 123.692 73.0356 123.864 73.0278 124.041Z" fill="#FF8100"/>
<path d="M75.0475 124.047C75.0537 124.136 75.0415 124.226 75.0116 124.31C74.9816 124.395 74.9346 124.472 74.8735 124.538C74.8124 124.603 74.7384 124.656 74.6562 124.691C74.574 124.727 74.4853 124.746 74.3956 124.746C74.306 124.746 74.2173 124.727 74.1351 124.691C74.0529 124.656 73.9789 124.603 73.9178 124.538C73.8566 124.472 73.8096 124.395 73.7797 124.31C73.7498 124.226 73.7375 124.136 73.7438 124.047C73.7375 123.957 73.7498 123.867 73.7797 123.783C73.8096 123.698 73.8566 123.621 73.9178 123.555C73.9789 123.49 74.0529 123.438 74.1351 123.402C74.2173 123.366 74.306 123.348 74.3956 123.348C74.4853 123.348 74.574 123.366 74.6562 123.402C74.7384 123.438 74.8124 123.49 74.8735 123.555C74.9346 123.621 74.9816 123.698 75.0116 123.783C75.0415 123.867 75.0537 123.957 75.0475 124.047Z" fill="#FF8100"/>
<path d="M77.0669 124.057C77.0575 124.184 77.0109 124.306 76.9328 124.408C76.8547 124.509 76.7486 124.585 76.6276 124.627C76.5066 124.668 76.3761 124.674 76.2522 124.642C76.1283 124.61 76.0165 124.542 75.9307 124.447C75.8448 124.353 75.7887 124.235 75.7693 124.108C75.7499 123.982 75.768 123.852 75.8214 123.736C75.8749 123.62 75.9612 123.522 76.0699 123.454C76.1785 123.387 76.3046 123.352 76.4324 123.356C76.6089 123.366 76.7741 123.446 76.8927 123.577C77.0113 123.708 77.0738 123.88 77.0669 124.057Z" fill="#FF8100"/>
<path d="M79.0903 124.072C79.0809 124.2 79.0343 124.322 78.9562 124.423C78.8782 124.525 78.7721 124.601 78.6511 124.642C78.5301 124.684 78.3995 124.689 78.2756 124.657C78.1518 124.625 78.0399 124.558 77.9541 124.463C77.8683 124.368 77.8121 124.25 77.7927 124.124C77.7733 123.997 77.7914 123.868 77.8449 123.752C77.8983 123.635 77.9847 123.537 78.0933 123.47C78.2019 123.402 78.328 123.368 78.4559 123.371C78.6323 123.382 78.7975 123.461 78.9161 123.592C79.0347 123.723 79.0973 123.896 79.0903 124.072Z" fill="#FF8100"/>
<path d="M81.1101 124.073C81.1013 124.201 81.0552 124.323 80.9775 124.425C80.8997 124.527 80.7938 124.604 80.6728 124.646C80.5518 124.688 80.4212 124.693 80.297 124.662C80.1729 124.63 80.0608 124.563 79.9746 124.468C79.8885 124.373 79.8321 124.255 79.8124 124.129C79.7928 124.002 79.8108 123.873 79.8641 123.756C79.9175 123.64 80.0039 123.542 80.1127 123.474C80.2214 123.406 80.3476 123.372 80.4756 123.375C80.6515 123.386 80.8162 123.465 80.9348 123.595C81.0533 123.726 81.1162 123.897 81.1101 124.073Z" fill="#FF8100"/>
<path d="M83.1335 124.085C83.1249 124.212 83.0792 124.334 83.0022 124.435C82.9252 124.537 82.8202 124.613 82.7001 124.656C82.5801 124.699 82.4501 124.705 82.3264 124.675C82.2026 124.645 82.0904 124.579 82.0035 124.486C81.9166 124.392 81.8589 124.276 81.8375 124.15C81.816 124.025 81.8317 123.896 81.8827 123.779C81.9337 123.662 82.0177 123.563 82.1244 123.493C82.2311 123.423 82.3558 123.386 82.4832 123.387C82.6619 123.393 82.8307 123.471 82.9525 123.601C83.0744 123.732 83.1395 123.906 83.1335 124.085Z" fill="#FF8100"/>
<path d="M85.153 124.093C85.1592 124.183 85.147 124.273 85.117 124.357C85.0871 124.442 85.0401 124.519 84.979 124.585C84.9178 124.65 84.8438 124.702 84.7616 124.738C84.6794 124.774 84.5907 124.792 84.5011 124.792C84.4115 124.792 84.3228 124.774 84.2406 124.738C84.1583 124.702 84.0844 124.65 84.0232 124.585C83.9621 124.519 83.9151 124.442 83.8852 124.357C83.8552 124.273 83.843 124.183 83.8492 124.093C83.843 124.004 83.8552 123.914 83.8852 123.83C83.9151 123.745 83.9621 123.668 84.0232 123.602C84.0844 123.537 84.1583 123.484 84.2406 123.449C84.3228 123.413 84.4115 123.395 84.5011 123.395C84.5907 123.395 84.6794 123.413 84.7616 123.449C84.8438 123.484 84.9178 123.537 84.979 123.602C85.0401 123.668 85.0871 123.745 85.117 123.83C85.147 123.914 85.1592 124.004 85.153 124.093Z" fill="#FF8100"/>
<path d="M87.1765 124.1C87.1678 124.227 87.1222 124.349 87.0452 124.451C86.9682 124.552 86.8632 124.629 86.7431 124.672C86.623 124.714 86.4931 124.721 86.3693 124.691C86.2456 124.66 86.1333 124.594 86.0465 124.501C85.9596 124.408 85.9019 124.291 85.8804 124.166C85.859 124.04 85.8747 123.911 85.9257 123.794C85.9766 123.678 86.0607 123.578 86.1673 123.509C86.274 123.439 86.3988 123.402 86.5262 123.402C86.7049 123.409 86.8736 123.486 86.9955 123.617C87.1174 123.748 87.1825 123.922 87.1765 124.1Z" fill="#FF8100"/>
<path d="M89.1999 124.112C89.1911 124.24 89.145 124.362 89.0673 124.464C88.9896 124.566 88.8836 124.643 88.7626 124.685C88.6417 124.727 88.511 124.732 88.3869 124.701C88.2627 124.669 88.1506 124.602 88.0645 124.507C87.9783 124.412 87.9219 124.294 87.9023 124.168C87.8826 124.041 87.9006 123.912 87.954 123.795C88.0074 123.679 88.0938 123.581 88.2025 123.513C88.3112 123.445 88.4374 123.411 88.5655 123.414C88.7413 123.425 88.9061 123.504 89.0246 123.634C89.1431 123.765 89.206 123.936 89.1999 124.112Z" fill="#FF8100"/>
<g opacity="0.2">
<path d="M73.0278 124.041C73.0184 124.169 72.9718 124.291 72.8937 124.392C72.8157 124.493 72.7096 124.57 72.5886 124.611C72.4676 124.653 72.337 124.658 72.2131 124.626C72.0893 124.594 71.9774 124.527 71.8916 124.432C71.8058 124.337 71.7496 124.219 71.7302 124.092C71.7108 123.966 71.7289 123.837 71.7824 123.72C71.8358 123.604 71.9222 123.506 72.0308 123.439C72.1394 123.371 72.2655 123.337 72.3934 123.34C72.5701 123.35 72.7358 123.429 72.8546 123.56C72.9733 123.692 73.0356 123.864 73.0278 124.041Z" fill="white"/>
<path d="M75.0436 124.051C75.0498 124.14 75.0376 124.23 75.0077 124.314C74.9777 124.399 74.9307 124.476 74.8696 124.542C74.8085 124.607 74.7345 124.66 74.6523 124.695C74.5701 124.731 74.4814 124.749 74.3917 124.749C74.3021 124.749 74.2134 124.731 74.1312 124.695C74.049 124.66 73.975 124.607 73.9139 124.542C73.8527 124.476 73.8057 124.399 73.7758 124.314C73.7458 124.23 73.7336 124.14 73.7399 124.051C73.7336 123.961 73.7458 123.871 73.7758 123.787C73.8057 123.702 73.8527 123.625 73.9139 123.559C73.975 123.494 74.049 123.441 74.1312 123.406C74.2134 123.37 74.3021 123.352 74.3917 123.352C74.4814 123.352 74.5701 123.37 74.6523 123.406C74.7345 123.441 74.8085 123.494 74.8696 123.559C74.9307 123.625 74.9777 123.702 75.0077 123.787C75.0376 123.871 75.0498 123.961 75.0436 124.051Z" fill="white"/>
<path d="M77.0708 124.061C77.0614 124.188 77.0148 124.31 76.9367 124.412C76.8586 124.513 76.7525 124.589 76.6315 124.631C76.5106 124.672 76.38 124.678 76.2561 124.646C76.1322 124.614 76.0204 124.546 75.9346 124.451C75.8487 124.356 75.7926 124.238 75.7732 124.112C75.7538 123.986 75.7719 123.856 75.8253 123.74C75.8788 123.624 75.9652 123.526 76.0738 123.458C76.1824 123.39 76.3085 123.356 76.4364 123.36C76.6128 123.37 76.778 123.45 76.8966 123.581C77.0152 123.712 77.0777 123.884 77.0708 124.061Z" fill="white"/>
<path d="M79.0903 124.068C79.0809 124.196 79.0343 124.318 78.9562 124.419C78.8782 124.521 78.7721 124.597 78.6511 124.639C78.5301 124.68 78.3995 124.685 78.2756 124.653C78.1518 124.622 78.0399 124.554 77.9541 124.459C77.8683 124.364 77.8121 124.246 77.7927 124.12C77.7733 123.993 77.7914 123.864 77.8449 123.748C77.8983 123.631 77.9847 123.533 78.0933 123.466C78.2019 123.398 78.328 123.364 78.4559 123.367C78.6323 123.378 78.7975 123.457 78.9161 123.588C79.0347 123.72 79.0973 123.892 79.0903 124.068Z" fill="white"/>
<path d="M81.114 124.073C81.1052 124.201 81.0591 124.323 80.9814 124.425C80.9036 124.527 80.7977 124.604 80.6767 124.646C80.5557 124.688 80.4251 124.693 80.3009 124.662C80.1768 124.63 80.0647 124.563 79.9785 124.468C79.8924 124.373 79.836 124.255 79.8163 124.129C79.7967 124.002 79.8147 123.873 79.8681 123.756C79.9214 123.64 80.0079 123.542 80.1166 123.474C80.2253 123.406 80.3515 123.372 80.4795 123.375C80.6554 123.386 80.8201 123.465 80.9387 123.595C81.0572 123.726 81.1201 123.897 81.114 124.073Z" fill="white"/>
<path d="M83.1374 124.081C83.1288 124.208 83.0831 124.33 83.0061 124.431C82.9291 124.533 82.8241 124.609 82.704 124.652C82.584 124.695 82.454 124.701 82.3303 124.671C82.2065 124.641 82.0943 124.575 82.0074 124.482C81.9206 124.389 81.8628 124.272 81.8414 124.146C81.8199 124.021 81.8356 123.892 81.8866 123.775C81.9376 123.658 82.0216 123.559 82.1283 123.489C82.235 123.419 82.3597 123.382 82.4871 123.383C82.6658 123.389 82.8346 123.467 82.9565 123.597C83.0783 123.728 83.1434 123.902 83.1374 124.081Z" fill="white"/>
<path d="M85.1569 124.09C85.1631 124.179 85.1509 124.269 85.121 124.353C85.091 124.438 85.044 124.515 84.9829 124.581C84.9217 124.646 84.8478 124.699 84.7655 124.734C84.6833 124.77 84.5947 124.789 84.505 124.789C84.4154 124.789 84.3267 124.77 84.2445 124.734C84.1622 124.699 84.0883 124.646 84.0271 124.581C83.966 124.515 83.919 124.438 83.8891 124.353C83.8591 124.269 83.8469 124.179 83.8531 124.09C83.8469 124 83.8591 123.91 83.8891 123.826C83.919 123.741 83.966 123.664 84.0271 123.598C84.0883 123.533 84.1622 123.481 84.2445 123.445C84.3267 123.409 84.4154 123.391 84.505 123.391C84.5947 123.391 84.6833 123.409 84.7655 123.445C84.8478 123.481 84.9217 123.533 84.9829 123.598C85.044 123.664 85.091 123.741 85.121 123.826C85.1509 123.91 85.1631 124 85.1569 124.09Z" fill="white"/>
<path d="M87.1765 124.1C87.1678 124.227 87.1222 124.349 87.0452 124.451C86.9682 124.552 86.8632 124.629 86.7431 124.672C86.623 124.714 86.4931 124.721 86.3693 124.691C86.2456 124.66 86.1333 124.594 86.0465 124.501C85.9596 124.408 85.9019 124.291 85.8804 124.166C85.859 124.04 85.8747 123.911 85.9257 123.794C85.9766 123.678 86.0607 123.578 86.1673 123.509C86.274 123.439 86.3988 123.402 86.5262 123.402C86.7049 123.409 86.8736 123.486 86.9955 123.617C87.1174 123.748 87.1825 123.922 87.1765 124.1Z" fill="white"/>
<path d="M89.1999 124.112C89.1911 124.24 89.145 124.362 89.0673 124.464C88.9896 124.566 88.8836 124.643 88.7626 124.685C88.6417 124.727 88.511 124.732 88.3869 124.701C88.2627 124.669 88.1506 124.602 88.0645 124.507C87.9783 124.412 87.9219 124.294 87.9023 124.168C87.8826 124.041 87.9006 123.912 87.954 123.795C88.0074 123.679 88.0938 123.581 88.2025 123.513C88.3112 123.445 88.4374 123.411 88.5655 123.414C88.7413 123.425 88.9061 123.504 89.0246 123.634C89.1431 123.765 89.206 123.936 89.1999 124.112Z" fill="white"/>
</g>
<path d="M86.328 78.3187C86.5483 78.2217 86.7353 78.062 86.8656 77.8595C86.9959 77.6571 87.0637 77.4207 87.0607 77.18C87.0689 77.0235 87.0452 76.8669 86.991 76.7199C86.9367 76.5728 86.8531 76.4384 86.7452 76.3247C86.6374 76.211 86.5075 76.1205 86.3635 76.0586C86.2195 75.9968 86.0644 75.9648 85.9077 75.9648C85.751 75.9648 85.5959 75.9968 85.4519 76.0586C85.3079 76.1205 85.178 76.211 85.0701 76.3247C84.9622 76.4384 84.8786 76.5728 84.8244 76.7199C84.7702 76.8669 84.7464 77.0235 84.7546 77.18C84.7498 77.4231 84.8171 77.6623 84.9481 77.8672C85.0791 78.0722 85.2678 78.2337 85.4906 78.3314C83.7142 78.5979 83.7935 80.5265 83.7935 80.5265L87.9933 80.5455C87.9933 80.5455 88.0917 78.582 86.328 78.3187Z" fill="#FF8100"/>
<path opacity="0.1" d="M86.328 78.3187C86.5483 78.2217 86.7353 78.062 86.8656 77.8595C86.9959 77.6571 87.0637 77.4207 87.0607 77.18C87.0689 77.0235 87.0452 76.8669 86.991 76.7199C86.9367 76.5728 86.8531 76.4384 86.7452 76.3247C86.6374 76.211 86.5075 76.1205 86.3635 76.0586C86.2195 75.9968 86.0644 75.9648 85.9077 75.9648C85.751 75.9648 85.5959 75.9968 85.4519 76.0586C85.3079 76.1205 85.178 76.211 85.0701 76.3247C84.9622 76.4384 84.8786 76.5728 84.8244 76.7199C84.7702 76.8669 84.7464 77.0235 84.7546 77.18C84.7498 77.4231 84.8171 77.6623 84.9481 77.8672C85.0791 78.0722 85.2678 78.2337 85.4906 78.3314C83.7142 78.5979 83.7935 80.5265 83.7935 80.5265L87.9933 80.5455C87.9933 80.5455 88.0917 78.582 86.328 78.3187Z" fill="black"/>
<path d="M93.1524 81.7906L78.1836 81.7227L78.1755 83.5117L93.1443 83.5796L93.1524 81.7906Z" fill="#FF8100"/>
<path opacity="0.2" d="M93.1524 81.7906L78.1836 81.7227L78.1755 83.5117L93.1443 83.5796L93.1524 81.7906Z" fill="white"/>
<path d="M39.1289 85.586H38.9799L38.5485 85.6177C38.315 85.6317 38.0828 85.6625 37.8538 85.7097C37.7054 85.7305 37.5582 85.7591 37.4128 85.7953L36.9212 85.9317C36.0843 86.1885 35.2948 86.5795 34.5834 87.0895C33.6434 87.7718 32.8586 88.6453 32.2804 89.6526C31.9406 90.2332 31.6702 90.8518 31.4747 91.4955C31.2693 92.1952 31.1511 92.9175 31.1226 93.6462C31.1037 94.029 31.1101 94.4126 31.1417 94.7945C31.1417 94.988 31.1956 95.1815 31.221 95.3781C31.2423 95.5764 31.2794 95.7726 31.332 95.965C31.6172 97.2378 32.196 98.4265 33.0221 99.436C33.8482 100.445 34.8988 101.248 36.0901 101.779C36.9523 102.151 37.8764 102.359 38.8149 102.392C39.7842 102.445 40.7545 102.306 41.6698 101.982L41.9489 101.878H41.987L42.0187 101.897L46.0187 103.927L45.9013 104.028C45.4731 102.702 45.0607 101.418 44.661 100.184V100.136L44.6959 100.101C45.6663 99.124 46.3866 97.9271 46.7958 96.6121C47.1665 95.4099 47.2747 94.1421 47.113 92.8944C46.9693 91.7856 46.6128 90.715 46.0631 89.7414C45.5893 88.905 44.978 88.1544 44.255 87.5209C43.6585 87.0196 42.9983 86.5993 42.2915 86.2711C41.7567 86.0405 41.1998 85.8651 40.6293 85.7477L39.9949 85.6431L39.535 85.6082L39.2558 85.5891H39.1607C39.1923 85.5856 39.2242 85.5856 39.2558 85.5891H39.5381L39.9981 85.6082L40.6325 85.7002C41.21 85.8089 41.7746 85.978 42.3169 86.2045C43.0358 86.5288 43.7079 86.9481 44.3153 87.4511C45.0516 88.0818 45.6758 88.8325 46.1614 89.6716C46.7267 90.6557 47.0942 91.7408 47.2431 92.8659C47.4181 94.1328 47.3175 95.4225 46.9481 96.647C46.5362 97.9893 45.8047 99.2117 44.8165 100.209L44.8355 100.127C45.2352 101.361 45.6507 102.645 46.0821 103.968L46.1424 104.162L45.9616 104.07L41.9616 102.043H42.0314L41.7459 102.147C40.813 102.476 39.8248 102.618 38.8371 102.566C37.8784 102.53 36.9349 102.314 36.0552 101.932C34.3771 101.213 32.9809 99.9638 32.0806 98.3758C31.6663 97.6423 31.3637 96.8512 31.1829 96.0284C31.1334 95.8311 31.0963 95.6309 31.0719 95.4289C31.0465 95.2291 31.0053 95.0324 30.9957 94.8357C30.9099 93.707 31.0292 92.5722 31.3478 91.486C31.5482 90.8334 31.8261 90.2072 32.1758 89.6208C32.7677 88.6044 33.5689 87.7253 34.5263 87.0419C35.2494 86.5306 36.0522 86.1426 36.9021 85.8937L37.4002 85.7668C37.5467 85.7328 37.695 85.7063 37.8443 85.6875C38.0757 85.6446 38.31 85.6192 38.5453 85.6113L38.9799 85.5955C39.0293 85.5888 39.0791 85.5856 39.1289 85.586Z" fill="#FF8100"/>
<path d="M40.9346 92.9847H40.3478L39.079 91.202V90.0315C39.079 90.0315 38.1718 89.9744 38.2796 91.5065C38.3875 93.0386 38.2796 92.6485 38.2796 92.6485C38.2796 92.6485 36.3542 92.6485 36.1956 92.8229C36.037 92.9974 36.0274 94.8562 36.0052 95.8935C35.9931 96.1436 36.0648 96.3905 36.2091 96.5951C36.3533 96.7997 36.5618 96.9502 36.8014 97.0228C36.8686 97.0414 36.9379 97.051 37.0076 97.0513C37.4898 97.0513 39.9418 96.6612 39.9418 96.6612H40.9537L40.9346 92.9847Z" fill="#FF8100"/>
<path d="M42.6179 92.668L42.2563 96.6775H41.2539V92.7504L42.6179 92.668Z" fill="#FF8100"/>
<path d="M54.572 174.298V171.586L49.7092 171.551L49.668 175.652L49.9693 175.674C51.3111 175.76 56.7956 175.887 57.6965 175.608C58.6989 175.297 54.572 174.298 54.572 174.298Z" fill="#FF8100"/>
<path d="M57.8104 175.352C57.8104 175.396 55.9897 175.434 53.747 175.434C51.5044 175.434 49.6836 175.396 49.6836 175.352C49.6836 175.308 51.5044 175.27 53.747 175.27C55.9897 175.27 57.8104 175.308 57.8104 175.352Z" fill="#263238"/>
<path d="M54.6604 174.849C54.6192 174.827 54.6604 174.684 54.7587 174.532C54.8571 174.38 54.9903 174.316 55.022 174.348C55.0538 174.38 54.9871 174.5 54.892 174.63C54.7968 174.76 54.7017 174.871 54.6604 174.849Z" fill="#263238"/>
<path d="M54.9712 175.027C54.9268 175.027 54.949 174.85 55.0442 174.682C55.1393 174.514 55.2662 174.412 55.3011 174.437C55.336 174.463 55.2789 174.606 55.1901 174.755C55.1012 174.904 55.0124 175.043 54.9712 175.027Z" fill="#263238"/>
<path d="M51.1488 175.342C51.1298 175.342 51.0568 175.285 50.9522 175.165C50.8244 175.01 50.682 174.868 50.5271 174.74C50.3747 174.618 50.1932 174.538 50.0005 174.508C49.8514 174.489 49.7563 174.508 49.7468 174.489C49.7372 174.47 49.8292 174.404 50.0037 174.391C50.2339 174.386 50.4586 174.462 50.6381 174.607C50.8064 174.744 50.9482 174.91 51.0568 175.098C51.1298 175.238 51.1679 175.33 51.1488 175.342Z" fill="#263238"/>
<path d="M54.6768 174.34C54.699 174.379 54.6165 174.474 54.4769 174.524C54.3374 174.575 54.2137 174.556 54.2073 174.524C54.201 174.493 54.2993 174.426 54.4199 174.382C54.5404 174.337 54.6514 174.302 54.6768 174.34Z" fill="#263238"/>
<path d="M54.5954 174.076C54.5954 174.123 54.4686 174.161 54.3036 174.164C54.1387 174.168 54.0086 174.13 54.0118 174.085C54.0149 174.041 54.145 173.999 54.3036 173.996C54.4622 173.993 54.5891 174.031 54.5954 174.076Z" fill="#263238"/>
<path d="M66.5486 174.298V171.586L61.6858 171.551L61.6445 175.611L61.9459 175.633C63.2877 175.719 68.7753 175.887 69.673 175.608C70.6754 175.297 66.5486 174.298 66.5486 174.298Z" fill="#FF8100"/>
<path d="M69.7877 175.36C69.7877 175.404 67.9701 175.442 65.7243 175.442C63.4785 175.442 61.6641 175.404 61.6641 175.36C61.6641 175.315 63.4817 175.277 65.7243 175.277C67.967 175.277 69.7877 175.315 69.7877 175.36Z" fill="#263238"/>
<path d="M66.6356 174.849C66.5976 174.827 66.6356 174.684 66.734 174.532C66.8323 174.38 66.9655 174.316 66.9972 174.348C67.029 174.38 66.9623 174.5 66.8672 174.63C66.772 174.76 66.6769 174.871 66.6356 174.849Z" fill="#263238"/>
<path d="M66.9462 175.027C66.905 175.027 66.924 174.85 67.0224 174.682C67.1207 174.514 67.2444 174.412 67.2793 174.437C67.3142 174.463 67.2539 174.606 67.1651 174.755C67.0763 174.904 66.9906 175.043 66.9462 175.027Z" fill="#263238"/>
<path d="M63.1254 175.342C63.1063 175.342 63.0366 175.285 62.9287 175.165C62.8009 175.01 62.6586 174.868 62.5037 174.74C62.3513 174.618 62.1698 174.538 61.9771 174.508C61.8312 174.489 61.7328 174.508 61.7233 174.489C61.7138 174.47 61.8058 174.404 61.9803 174.391C62.2105 174.386 62.4351 174.462 62.6147 174.607C62.7838 174.743 62.9258 174.91 63.0334 175.098C63.1064 175.238 63.1444 175.33 63.1254 175.342Z" fill="#263238"/>
<path d="M66.6494 174.34C66.6716 174.379 66.5892 174.474 66.4496 174.524C66.31 174.575 66.1863 174.556 66.18 174.524C66.1736 174.493 66.272 174.426 66.3925 174.382C66.513 174.337 66.6241 174.302 66.6494 174.34Z" fill="#263238"/>
<path d="M66.5805 174.076C66.5805 174.123 66.4537 174.161 66.2887 174.164C66.1238 174.168 65.9969 174.13 66.0001 174.085C66.0032 174.041 66.1301 173.999 66.2887 173.996C66.4473 173.993 66.5805 174.031 66.5805 174.076Z" fill="#263238"/>
<path d="M84.4642 93.7564C84.3373 93.6264 84.0232 93.6898 84.0232 93.6898C84.0547 93.5072 84.0547 93.3205 84.0232 93.1379C83.9661 92.9602 83.5665 92.9951 83.5665 92.9951C83.548 92.8455 83.548 92.6943 83.5665 92.5447C83.5696 92.5115 83.5625 92.4782 83.5461 92.4492C83.5296 92.4203 83.5046 92.3971 83.4745 92.3829C83.2854 92.3058 83.0822 92.2691 82.8781 92.2751C82.6339 92.1006 83.6236 90.7144 83.9915 90.2703C84.3595 89.8262 84.2929 89.4805 83.9661 89.4805C83.7409 89.4805 82.5863 90.8127 82.231 91.26C81.8757 91.7073 80.9336 92.9507 80.9019 91.9579C80.8702 90.965 80.4705 90.2164 80.2199 90.0895C79.9693 89.9626 79.7029 90.2608 79.8393 90.5368C79.9591 90.8503 80.0339 91.1792 80.0613 91.5138C80.0958 91.7802 80.084 92.0507 80.0264 92.3131C79.9213 92.8015 79.7781 93.2809 79.5982 93.7469H79.5728C79.5728 93.7469 72.6514 100.386 72.1502 100.859C71.7029 101.284 62.7069 100.354 60.902 100.164C60.2887 100.074 59.6693 100.032 59.0495 100.037C58.266 100.072 58.1264 100.183 57.3461 100.193C55.3754 100.214 53.4093 100.387 51.4651 100.71C50.5847 100.859 49.7624 101.248 49.0878 101.833C48.4132 102.418 47.9122 103.177 47.6396 104.028C45.822 109.706 41.7046 123.146 40.9782 130.695C40.4293 131.691 39.9338 132.715 39.4937 133.763C38.983 135.152 39.1067 135.2 39.278 135.231C39.7411 135.317 40.2677 132.824 40.4643 133.426C40.661 134.029 39.4651 136.399 39.9505 136.468C40.5849 136.557 41.0892 133.931 41.1495 133.721C41.2098 133.512 41.5238 133.579 41.4667 133.775C41.3747 134.054 40.4834 137.014 41.1051 137.109C41.4477 137.16 41.4858 136.535 41.4858 136.535C41.4858 136.535 42.1202 133.702 42.4088 133.759C42.6975 133.817 42.3898 135.488 42.2439 136.046C42.098 136.605 42.301 136.887 42.5991 136.751C42.8022 136.656 43.2875 134.958 43.4207 134.407C43.5539 133.855 43.887 132.326 44.3343 133.211C44.7815 134.096 45.4604 134.61 45.7395 134.622C45.8024 134.615 45.8617 134.589 45.9097 134.548C45.9578 134.507 45.9924 134.452 46.0091 134.391C46.0258 134.33 46.0239 134.265 46.0035 134.205C45.9832 134.145 45.9454 134.093 45.8949 134.054C45.6548 133.82 45.4488 133.553 45.2827 133.261C45.1347 133.034 45.0274 132.783 44.9655 132.519C44.8377 131.993 44.7633 131.455 44.7435 130.914L44.6927 130.597C45.4033 127.079 47.4492 116.754 50.4024 110.159L51.6142 112.652L52.1407 114.499L48.9116 122.47L62.6847 122.289L60.6292 114.378L63.1256 106.131C65.8251 106.191 72.756 106.292 73.9107 105.769C75.3635 105.135 82.8781 95.6438 82.8781 95.6438C83.368 95.2632 83.837 94.8566 84.2833 94.4257C84.2833 94.4257 84.7401 94.0419 84.4642 93.7564Z" fill="#FFBE9D"/>
<path d="M48.3082 116.583C48.7079 115.219 50.7602 108.475 50.7602 108.475C50.7602 108.475 51.7689 113.972 51.5025 114.635C51.2574 115.202 50.9678 115.75 50.6365 116.272C48.3082 119.815 48.6127 121.588 48.6127 121.588L62.6808 121.16C62.7126 119.193 61.5484 114.619 61.3073 113.889C61.0662 113.16 61.8688 110.771 61.8688 110.771C61.8688 110.771 63.4548 109.157 63.3977 108.326C63.3676 107.579 63.2753 106.836 63.1217 106.105L71.6863 106.422L71.4167 100.617L59.1154 99.3867C58.6872 100.595 54.8141 100.002 54.8141 100.002C50.6333 100.142 50.3732 100.909 48.6349 102.261C46.8966 103.612 44.0195 115.209 44.0195 115.209L48.3082 116.583Z" fill="#FF8100"/>
<path d="M56.6205 115.207C56.3767 115.251 56.1284 115.264 55.8814 115.246C55.4215 115.246 54.7902 115.214 54.0955 115.144C53.4009 115.074 52.7728 114.976 52.3255 114.887C52.0789 114.855 51.8371 114.794 51.6055 114.703C51.8535 114.703 52.1009 114.727 52.3446 114.773C52.795 114.83 53.4199 114.909 54.1114 114.979C54.8029 115.049 55.431 115.096 55.8846 115.128C56.1319 115.131 56.3783 115.158 56.6205 115.207Z" fill="#263238"/>
<path d="M57.5895 114.008C57.3456 114.127 57.0877 114.216 56.8219 114.271C55.5563 114.604 54.2506 114.758 52.9424 114.731C52.6717 114.74 52.401 114.714 52.1367 114.655C52.4039 114.621 52.6732 114.607 52.9424 114.614C53.4404 114.598 54.1256 114.563 54.8806 114.474C55.6355 114.385 56.308 114.258 56.7838 114.157C57.0481 114.086 57.3175 114.036 57.5895 114.008Z" fill="#263238"/>
<path d="M62.3221 108.676C62.3157 108.918 62.2827 109.158 62.2238 109.393C62.1413 109.834 62.0144 110.436 61.8526 111.096C61.6909 111.756 61.5354 112.365 61.3959 112.777C61.3397 113.013 61.2567 113.242 61.1484 113.459C61.1661 113.218 61.2108 112.98 61.2817 112.749C61.4022 112.254 61.5386 111.683 61.6909 111.058C61.8431 110.433 61.989 109.862 62.1096 109.367C62.1525 109.129 62.2239 108.897 62.3221 108.676Z" fill="#263238"/>
<path d="M48.452 115.768C47.7181 115.655 46.9939 115.486 46.2854 115.264C45.5615 115.095 44.8512 114.872 44.1602 114.598C44.8936 114.713 45.6177 114.881 46.3267 115.102C47.0508 115.271 47.7612 115.493 48.452 115.768Z" fill="#263238"/>
<path d="M63.2723 106.034C63.1526 106.055 63.0303 106.055 62.9107 106.034C62.5793 106 62.254 105.923 61.9432 105.803C61.4243 105.608 60.9519 105.306 60.5564 104.918C60.1609 104.53 59.851 104.063 59.6466 103.548C59.4207 102.981 59.3243 102.371 59.3643 101.762C59.3784 101.259 59.5286 100.77 59.7989 100.347C59.9889 100.062 60.2729 99.8517 60.6014 99.7537C60.6892 99.7295 60.78 99.7177 60.871 99.7188C60.9345 99.7188 60.9662 99.7188 60.9662 99.7188C60.9662 99.7188 60.833 99.7188 60.6204 99.8045C60.319 99.9158 60.0634 100.125 59.894 100.398C59.4626 101.076 59.3421 102.317 59.802 103.475C60.0161 104.02 60.3512 104.511 60.7822 104.908C61.1353 105.234 61.5421 105.496 61.9844 105.682C62.3996 105.846 62.8314 105.964 63.2723 106.034Z" fill="#263238"/>
<path d="M70.6656 106.303C70.5863 105.33 70.5609 104.354 70.5895 103.379C70.5647 102.404 70.5943 101.428 70.6783 100.457C70.7577 101.429 70.7832 102.404 70.7545 103.379C70.7811 104.354 70.7515 105.331 70.6656 106.303Z" fill="#263238"/>
<path d="M59.0303 99.7368C59.0652 99.0294 59.1382 98.23 59.1382 98.23C59.1382 98.23 60.8892 98.0365 60.9939 96.2285C61.0985 94.4204 60.9939 90.2491 60.9939 90.2491L57.8218 88.625L54.3008 91.3942L54.8432 100.435L58.0724 100.641C58.3192 100.648 58.5587 100.556 58.7383 100.387C58.9178 100.217 59.0229 99.9836 59.0303 99.7368Z" fill="#FFBE9D"/>
<path d="M59.3438 94.8049C59.3438 94.8049 59.3438 94.8398 59.3153 94.881C59.2917 94.9109 59.2611 94.9346 59.2263 94.9501C59.1915 94.9656 59.1535 94.9724 59.1154 94.9698C58.9124 94.9698 58.7158 94.7351 58.646 94.4623C58.6128 94.3301 58.6128 94.1917 58.646 94.0595C58.6525 94.0017 58.6733 93.9466 58.7065 93.8989C58.7398 93.8513 58.7844 93.8127 58.8363 93.7867C58.879 93.769 58.9269 93.769 58.9695 93.7867C59.0011 93.8024 59.0268 93.828 59.0425 93.8596C59.0647 93.9135 59.0425 93.9484 59.0425 93.9453C59.0425 93.9421 59.0425 93.9135 59.0108 93.8818C58.9942 93.8591 58.9698 93.8433 58.9423 93.8374C58.9148 93.8316 58.8861 93.8361 58.8617 93.8501C58.8228 93.8736 58.7904 93.9066 58.7677 93.946C58.745 93.9854 58.7325 94.0298 58.7316 94.0753C58.7049 94.1933 58.7049 94.3158 58.7316 94.4338C58.7951 94.6812 58.9663 94.881 59.1186 94.9001C59.1484 94.9041 59.1787 94.9019 59.2076 94.8938C59.2365 94.8856 59.2635 94.8715 59.2867 94.8525C59.3248 94.8271 59.3375 94.8017 59.3438 94.8049Z" fill="#EB996E"/>
<path d="M62.0869 89.2761C61.8426 88.445 60.9576 88.0326 60.1519 87.8042C58.9243 87.4553 57.5984 87.303 56.3993 87.744C55.2003 88.1849 53.7602 88.9589 53.7602 90.2816C53.0528 90.2245 52.6468 90.8431 52.3676 91.6107C52.1892 92.0784 52.0822 92.5703 52.0504 93.0699C51.9616 94.8018 51.4763 97.1936 50.3534 98.4624C49.719 99.1698 48.8403 99.6583 48.4787 100.54C48.1615 101.305 48.3264 102.212 48.0314 102.986C47.7681 103.668 47.1876 104.153 46.7626 104.746C46.3295 105.419 46.0747 106.191 46.022 106.99C45.9693 107.788 46.1204 108.587 46.4612 109.311C46.8045 110.016 47.2878 110.644 47.8817 111.157C48.4756 111.67 49.1676 112.056 49.9156 112.293C51.3973 112.743 52.9773 112.759 54.4675 112.337C55.5859 112.07 56.6292 111.552 57.5191 110.824C58.4296 110.08 59.0549 109.045 59.2891 107.893C59.5143 106.599 59.1527 105.282 58.8831 103.994C58.0393 99.9247 58.2804 99.7122 59.3462 95.9343C59.3716 95.8676 59.3843 95.7979 59.4033 95.7312C59.4223 95.6646 59.4318 95.6329 59.4445 95.5822C59.4748 95.4328 59.4907 95.2809 59.4921 95.1285C59.3364 95.1864 59.1675 95.1987 59.0051 95.1638C58.8427 95.129 58.6936 95.0485 58.5754 94.9319C58.4569 94.8075 58.3743 94.6534 58.3363 94.4858C58.2983 94.3183 58.3064 94.1436 58.3597 93.9803C58.4345 93.8016 58.546 93.6407 58.687 93.5079C58.828 93.3752 58.9953 93.2735 59.1781 93.2094C59.5302 93.0635 59.9076 92.9874 60.2534 92.8256C60.9862 92.4767 61.4937 91.7535 61.8394 90.9953C62.1237 90.4699 62.2114 89.8603 62.0869 89.2761Z" fill="#263238"/>
<path d="M59.4736 94.8906C59.5406 94.9896 59.596 95.0961 59.6385 95.2078C59.7337 95.4077 59.8606 95.69 60.0001 96.0167L60.0255 96.077H59.9589L59.6417 96.1055C59.4228 96.1055 59.2389 96.1468 59.0231 96.1436C59.0044 96.1394 58.987 96.1305 58.9725 96.1177C58.9581 96.105 58.9472 96.0888 58.9407 96.0706C58.9312 96.0418 58.9312 96.0107 58.9407 95.9818C58.948 95.9391 58.9575 95.8967 58.9692 95.8549L59.0263 95.6297C59.055 95.4795 59.0997 95.3327 59.1596 95.192C59.1536 95.3451 59.1313 95.4972 59.0929 95.6456L59.0485 95.8708C59.0327 95.9469 59.0041 96.0643 59.0485 96.0548C59.2071 96.0548 59.4323 96.0199 59.6417 96.0072L59.9589 95.9786L59.9177 96.0484C59.7813 95.7312 59.6671 95.433 59.6005 95.2269C59.542 95.1216 59.4993 95.0083 59.4736 94.8906Z" fill="#FF8100"/>
<path d="M48.6126 121.588L62.6807 121.16L68.8028 145.059L67.6767 172.472H60.2382L61.1486 145.642L55.7085 129.005L56.5459 173.534L49.0281 173.645L48.2383 131.79C48.2034 130.626 47.8227 128.002 47.9655 126.848L48.6126 121.588Z" fill="#263238"/>
<path d="M57.5751 129.338C57.3448 129.353 57.1136 129.339 56.8868 129.297C56.4617 129.246 55.8812 129.158 55.2436 129.031C54.606 128.904 54.0351 128.758 53.6227 128.641C53.4023 128.592 53.189 128.515 52.9883 128.412C52.9883 128.365 54.0224 128.612 55.2912 128.869C56.56 129.126 57.5814 129.291 57.5751 129.338Z" fill="#455A64"/>
<path d="M67.5976 170.965C67.5976 171.01 65.9133 171.048 63.8356 171.048C61.7579 171.048 60.0703 171.01 60.0703 170.965C60.0703 170.921 61.7547 170.883 63.8356 170.883C65.9164 170.883 67.5976 170.918 67.5976 170.965Z" fill="#455A64"/>
<path d="M56.4732 172.372C56.4732 172.419 54.8365 172.454 52.819 172.454C50.8016 172.454 49.168 172.419 49.168 172.372C49.168 172.324 50.8048 172.289 52.819 172.289C54.8333 172.289 56.4732 172.327 56.4732 172.372Z" fill="#455A64"/>
<path d="M55.5064 172.261C55.4619 172.261 55.2653 162.532 55.0654 150.532C54.8656 138.532 54.7482 128.797 54.7895 128.797C54.8307 128.797 55.0337 138.522 55.2304 150.529C55.4271 162.535 55.5539 172.261 55.5064 172.261Z" fill="#455A64"/>
<path d="M66.5995 170.966C66.596 170.922 66.596 170.879 66.5995 170.836V170.455C66.5995 170.112 66.6249 169.621 66.6439 168.996C66.6883 167.727 66.7517 165.884 66.831 163.625C67.0023 159.083 67.2434 152.821 67.5067 145.909C67.5067 145.843 67.5067 145.779 67.5067 145.722V145.744C65.8414 139.083 64.3346 133.037 63.2403 128.663L61.9714 123.489C61.8255 122.883 61.7145 122.411 61.6352 122.081C61.5971 121.925 61.5718 121.805 61.5495 121.713C61.5372 121.672 61.5297 121.629 61.5273 121.586C61.5438 121.626 61.5566 121.667 61.5654 121.71C61.5908 121.798 61.6225 121.919 61.6669 122.071C61.7526 122.388 61.8763 122.871 62.0349 123.473C62.3521 124.698 62.7993 126.461 63.3576 128.634C64.4615 133.005 65.9841 139.035 67.6716 145.706V145.729C67.6716 145.786 67.6716 145.852 67.6716 145.916C67.3893 152.828 67.1324 159.086 66.9452 163.629C66.8469 165.89 66.7644 167.721 66.7073 168.996C66.6756 169.63 66.6502 170.112 66.6344 170.455C66.6344 170.617 66.6153 170.744 66.6122 170.836C66.6126 170.879 66.6084 170.923 66.5995 170.966Z" fill="#455A64"/>
<path d="M64.1712 145.16C63.6369 145.336 63.0865 145.458 62.5281 145.525C61.8429 145.642 61.2593 145.725 60.996 145.737V145.674C61.0816 145.699 61.126 145.715 61.126 145.728C61.126 145.741 61.0721 145.728 60.9833 145.728H60.793L60.9833 145.671C61.2307 145.598 61.8144 145.477 62.4995 145.354C63.0491 145.234 63.609 145.17 64.1712 145.16Z" fill="#455A64"/>
<path d="M64.0423 146.076C63.5475 146.099 63.0517 146.076 62.561 146.009C62.0655 145.999 61.5718 145.945 61.0859 145.848C62.0773 145.767 63.0752 145.844 64.0423 146.076Z" fill="#455A64"/>
<path opacity="0.2" d="M48.5508 122.093C48.7174 122.307 48.9272 122.483 49.1666 122.61C49.406 122.738 49.6696 122.813 49.9401 122.832C50.5067 122.899 51.0799 122.888 51.6436 122.8C55.2756 122.397 59.1233 122.026 62.6792 121.16C58.0765 121.417 53.2137 121.331 48.6111 121.588L48.5635 121.982" fill="black"/>
<g opacity="0.2">
<path d="M53.293 128.578L55.8877 138.646L55.7069 129.003L53.293 128.578Z" fill="black"/>
</g>
</svg>
