<svg width="87" height="87" viewBox="0 0 87 87" fill="none" xmlns="http://www.w3.org/2000/svg">
<path d="M56.812 70.0098C56.389 66.8643 54.839 63.979 52.45 61.8898C50.061 59.8003 46.995 58.6488 43.821 58.6488C40.6473 58.6488 37.5813 59.8003 35.1922 61.8898C32.8031 63.979 31.2533 66.8643 30.8303 70.0098M55.6923 35.6574V28.8024L31.951 28.8023V35.6573M71.3905 16.1403C70.245 16.4284 69.099 16.6973 67.9525 16.9468M71.3905 56.9373C70.245 56.649 69.099 56.3803 67.9525 56.1308M61.1283 18.2782C49.6045 20.2238 38.0502 20.2238 26.5266 18.2781M61.1283 54.7993C59.1693 54.4685 57.2093 54.194 55.2488 53.9758M26.5266 54.7995C28.4855 54.4688 30.4453 54.194 32.4057 53.9758M16.1719 16.1094C17.3174 16.3975 18.4634 16.6663 19.6097 16.9159M16.1719 56.968C17.3174 56.68 18.4634 56.4113 19.6097 56.1615M43.8213 52.6433C47.857 52.6433 51.1288 49.3715 51.1288 45.3358C51.1288 41.3003 47.857 38.0285 43.8213 38.0285C39.7855 38.0285 36.514 41.3003 36.514 45.3358C36.514 49.3715 39.7855 52.6433 43.8213 52.6433ZM62.3508 28.1837L71.3908 25.2362V49.058L62.3508 46.1108V28.1837ZM25.2936 28.1837L16.2537 25.2362V49.058L25.2936 46.1108V28.1837Z" stroke="#E56500" stroke-width="2" stroke-linecap="round" stroke-linejoin="round"/>
</svg>
