<svg width="87" height="87" viewBox="0 0 87 87" fill="none" xmlns="http://www.w3.org/2000/svg">
<path d="M64.6813 18.059C62.049 15.6514 58.5982 14.3372 55.0312 14.384C47.9062 14.384 42.1562 19.184 42.1562 25.109C42.3939 29.74 45.5483 33.708 50.0063 34.984C51.8562 35.634 53.3563 35.109 54.4062 32.734C54.825 31.5499 55.8383 30.6752 57.0709 30.4339C58.3034 30.1925 59.5718 30.6204 60.4062 31.559M67.1063 27.084L60.3812 40.534M48.1562 27.409C48.1562 27.0638 48.4361 26.784 48.7812 26.784C49.1264 26.784 49.4062 27.0638 49.4062 27.409C49.4131 27.5791 49.3502 27.7445 49.2323 27.8672C49.1143 27.9899 48.9514 28.0592 48.7812 28.059C48.4361 28.059 48.1562 27.7792 48.1562 27.434M51.2812 21.184C51.2812 20.8388 51.0014 20.559 50.6562 20.559C50.3206 20.5588 50.0447 20.8236 50.0312 21.159C50.0312 21.5042 50.3111 21.784 50.6562 21.784C51.0014 21.784 51.2812 21.5042 51.2812 21.159M56.9062 20.559C56.7361 20.5592 56.5732 20.4899 56.4552 20.3672C56.3373 20.2445 56.2744 20.0791 56.2812 19.909C56.2812 19.5638 56.5611 19.284 56.9062 19.284C57.2514 19.284 57.5312 19.5638 57.5312 19.909C57.5312 20.2542 57.2514 20.534 56.9062 20.534M50.0312 46.759V69.259C50.0312 70.6397 48.912 71.759 47.5312 71.759H17.5312C16.1505 71.759 15.0312 70.6397 15.0312 69.259V29.259C15.0312 27.8783 16.1505 26.759 17.5312 26.759H37.5312M15.0312 49.259H50.0312M15.0312 34.259H22.5312M22.5312 34.259V49.259M22.5312 34.259H28.7812C29.4716 34.259 30.0312 34.8187 30.0312 35.509V49.259M15.0312 56.759H21.2812C21.9716 56.759 22.5312 57.3187 22.5312 58.009V71.759M30.0312 71.759V58.059C30.0312 57.3687 30.5909 56.809 31.2812 56.809H36.2812C36.9716 56.809 37.5312 57.3687 37.5312 58.059V71.809M22.5312 59.259H30.0312M65.6813 22.759C64.9913 23.8046 64.9694 25.1551 65.6249 26.2227C66.2804 27.2902 67.4947 27.8815 68.7393 27.7393C69.9839 27.597 71.0335 26.7469 71.4313 25.559C73.3808 22.6001 72.7519 18.6428 69.9812 16.434C70.4812 20.359 67.5813 18.909 65.6813 22.759ZM33.4996 35.36L37.1454 34.4821C37.1454 34.4821 38.3606 34.1894 38.6533 35.4047L40.9945 45.1267C40.9945 45.1267 41.2872 46.342 40.0719 46.6347L36.4262 47.5126C36.4262 47.5126 35.2109 47.8053 34.9182 46.59L32.577 36.868C32.577 36.868 32.2844 35.6527 33.4996 35.36Z" stroke="#E56500" stroke-width="2" stroke-linecap="round" stroke-linejoin="round"/>
</svg>
