<svg width="153" height="57" viewBox="0 0 153 57" fill="none" xmlns="http://www.w3.org/2000/svg">
<path d="M22.3694 30.8864L14.7406 11.2768L9.211 25.5104C14.1262 25.8688 18.7342 27.8144 22.3694 30.8864ZM14.843 4.16H17.5054L31.2782 40H25.9022C23.291 33.1904 15.9694 28.224 8.2382 28.0704L3.579 40H0.916602L14.843 4.16ZM42.1702 18.9056C44.5254 18.9056 46.2662 19.5712 47.9046 21.2608C50.7718 24.2816 51.1302 32.064 44.423 33.7536L42.3238 28.6848C47.6998 26.5344 47.3926 23.3088 46.2662 22.3872C44.3206 20.7488 37.1526 22.7968 37.2038 32.1664V40L32.135 38.976V18.9056H37.2038V20.8512C38.3814 19.6224 40.0198 18.9056 42.1702 18.9056ZM53.4342 16.4992H28.039V13.9392H53.4342V16.4992ZM57.1726 16.4992V21.4144C57.1726 24.384 56.4558 35.4432 59.2718 36.6208C61.4222 37.5424 63.8286 35.8016 65.723 33.2416L68.3854 38.3104C67.771 38.72 67.0542 39.0784 66.2862 39.3856C63.3166 40.4608 60.091 40.1536 57.4286 38.9248C51.899 36.3136 52.1038 29.6064 52.0526 23.6672V16.4992H48.315V13.9392H52.0526V0.934402L57.1726 1.9584V13.9392H68.3854V16.4992H57.1726ZM86.0106 26.176C83.553 24.0768 71.777 21.6192 71.9306 25.664C72.033 29.504 86.0106 26.176 86.0618 33.4976C86.113 41.8432 73.569 40.7168 69.1146 38.1568V33.088C71.8794 35.5456 83.3482 36.7232 83.1946 33.5488C82.9386 28.6848 69.1146 33.088 69.217 25.1008C69.2682 18.752 77.9722 18.3424 83.4506 20.032V16.4992H65.377V13.9392H89.7994V16.4992H86.0106V26.176ZM111.3 16.4992H91.8438V19.8272C94.3014 19.008 97.2198 18.752 99.6774 19.3664C103.825 20.3904 107.153 23.9744 107.153 29.6064V40L102.084 38.976V37.8496C96.6566 41.2288 87.5942 40.3584 87.7478 32.9344C88.0038 21.0048 101.828 31.1936 102.084 26.9952V26.7392C102.084 26.5856 102.033 26.4832 102.033 26.3808C101.316 22.592 92.6118 23.2064 89.2838 25.9712V16.4992H83.703V13.9392H111.3V16.4992ZM102.084 34.6752V30.8864C97.9366 32.3712 90.3078 27.6096 90.3078 32.2176C90.3078 35.5456 97.6294 36.416 102.084 34.6752ZM105.703 13.9392H132.89V16.4992H115.687L118.145 22.2336L118.861 23.9744C111.642 25.4592 111.079 31.7056 113.229 34.4704C117.018 39.4368 123.725 32.0128 123.725 26.7392V19.9296L128.794 18.9056V40.0512C128.794 45.632 128.692 51.3152 122.497 54.2336C118.759 55.9744 112.769 56.4352 109.236 49.2672L112.359 44.2496C116.66 51.5712 119.169 52.6464 121.114 51.8272C123.367 50.8544 123.674 43.7376 123.725 39.3856V38.0544C122.548 39.2832 120.909 40.0512 118.759 40.0512C113.639 40.0512 109.441 34.9312 109.441 29.4528C109.441 25.1008 111.437 21.6192 114.356 19.8784L112.922 16.4992H105.703V13.9392ZM148.961 26.176C146.503 24.0768 134.727 21.6192 134.881 25.664C134.983 29.504 148.961 26.176 149.012 33.4976C149.063 41.8432 136.519 40.7168 132.065 38.1568V33.088C134.829 35.5456 146.298 36.7232 146.145 33.5488C145.889 28.6848 132.065 33.088 132.167 25.1008C132.218 18.752 140.922 18.3424 146.401 20.032V16.4992H128.327V13.9392H152.749V16.4992H148.961V26.176Z" fill="white"/>
</svg>
