<svg width="48" height="48" viewBox="0 0 48 48" fill="none" xmlns="http://www.w3.org/2000/svg">
<g filter="url(#filter0_d_1014_965)">
<rect x="4" width="40" height="40" rx="20" fill="white" shape-rendering="crispEdges"/>
<path d="M31 22C32.49 20.54 34 18.79 34 16.5C34 15.0413 33.4205 13.6424 32.3891 12.6109C31.3576 11.5795 29.9587 11 28.5 11C26.74 11 25.5 11.5 24 13C22.5 11.5 21.26 11 19.5 11C18.0413 11 16.6424 11.5795 15.6109 12.6109C14.5795 13.6424 14 15.0413 14 16.5C14 18.8 15.5 20.55 17 22L24 29L31 22Z" stroke="#6E4E37" stroke-width="2" stroke-linecap="round" stroke-linejoin="round"/>
</g>
<defs>
<filter id="filter0_d_1014_965" x="0" y="0" width="48" height="48" filterUnits="userSpaceOnUse" color-interpolation-filters="sRGB">
<feFlood flood-opacity="0" result="BackgroundImageFix"/>
<feColorMatrix in="SourceAlpha" type="matrix" values="0 0 0 0 0 0 0 0 0 0 0 0 0 0 0 0 0 0 127 0" result="hardAlpha"/>
<feOffset dy="4"/>
<feGaussianBlur stdDeviation="2"/>
<feComposite in2="hardAlpha" operator="out"/>
<feColorMatrix type="matrix" values="0 0 0 0 0.431373 0 0 0 0 0.305882 0 0 0 0 0.215686 0 0 0 0.25 0"/>
<feBlend mode="normal" in2="BackgroundImageFix" result="effect1_dropShadow_1014_965"/>
<feBlend mode="normal" in="SourceGraphic" in2="effect1_dropShadow_1014_965" result="shape"/>
</filter>
</defs>
</svg>
