<svg width="450" height="669" viewBox="0 0 450 669" fill="none" xmlns="http://www.w3.org/2000/svg">
<path d="M43.6789 328.504C-13.6743 348.274 -44.5953 416.33 -21.561 451.122C3.88759 489.544 163.017 483.707 181.276 474.339C199.536 464.97 50.2601 434.991 70.6297 399.639C93.2527 360.399 206.85 360.345 203.756 343.59C200.716 327.104 109.974 305.653 43.6789 328.504Z" stroke="#E56500" stroke-opacity="0.16" stroke-miterlimit="10"/>
<path d="M25.7249 323.669C-41.5001 340.898 -70.6686 423.276 -41.0352 462.085C-7.44951 506.041 165.433 489.748 191.096 482.792C213.218 476.805 69.6116 436.488 86.78 393.771C105.415 347.359 207.871 339.821 200.217 329.053C191.99 317.509 104.61 303.5 25.7249 323.669Z" stroke="#E56500" stroke-opacity="0.16" stroke-miterlimit="10"/>
<path d="M7.76999 318.845C-69.2196 333.479 -96.689 430.211 -60.5102 473.037C-18.7158 522.571 166.47 495.65 200.915 491.257C225.952 488.026 89.0874 438.04 102.912 387.881C117.666 334.384 211.198 318.695 196.676 314.592C185.839 307.323 99.5315 301.39 7.76999 318.845Z" stroke="#E56500" stroke-opacity="0.16" stroke-miterlimit="10"/>
<path d="M-10.1858 313.978C-96.8862 326.125 -122.657 437.103 -79.9324 483.966C-29.8579 538.971 169.957 509.326 210.786 499.688C236.36 493.647 108.688 439.569 119.096 382.001C130.059 321.419 213.415 297.858 193.188 300.087C178.398 297.427 94.4342 299.344 -10.1858 313.978Z" stroke="#E56500" stroke-opacity="0.16" stroke-miterlimit="10"/>
<path d="M-28.142 309.175C-124.517 318.867 -148.589 444.037 -99.4623 494.961C-41.0898 555.479 168.794 515.83 220.549 508.173C249.593 503.866 128.234 441.173 135.19 376.165C142.344 308.497 217.456 279.778 189.593 285.625C171.745 289.362 89.3721 297.352 -28.142 309.175Z" stroke="#E56500" stroke-opacity="0.16" stroke-miterlimit="10"/>
<path d="M-46.077 304.34C-152.146 311.631 -174.5 450.951 -118.935 505.912C-52.2111 571.933 167.956 510.801 230.388 516.681C262.74 519.706 147.908 442.788 151.342 370.329C154.918 295.597 220.194 258.435 186.054 271.185C164.808 279.067 84.3313 295.392 -46.077 304.34Z" stroke="#E56500" stroke-opacity="0.16" stroke-miterlimit="10"/>
<path d="M-64.0312 299.516C-179.775 304.405 -200.395 457.81 -138.428 516.874C-63.3159 588.376 168.726 515.237 240.189 525.09C275.152 529.915 167.563 444.328 167.456 364.417C167.349 282.577 222.359 237.135 182.496 256.647C157.495 268.891 79.2892 293.453 -64.0312 299.516Z" stroke="#E56500" stroke-opacity="0.16" stroke-miterlimit="10"/>
<path d="M-81.99 294.681C-207.409 297.201 -226.24 464.734 -157.906 527.836C-74.4609 604.819 169.688 519.512 250.004 533.554C287.667 540.134 187.268 445.879 183.602 358.548C179.864 269.645 224.377 216.008 178.952 242.164C150.052 258.79 74.2067 291.547 -81.99 294.681Z" stroke="#E56500" stroke-opacity="0.16" stroke-miterlimit="10"/>
<path d="M-99.9439 289.846C-235.038 290.008 -252.17 471.626 -177.38 538.799C-85.5653 621.262 170.816 523.723 259.824 542.029C300.277 550.353 206.995 447.462 199.734 352.69C192.384 256.702 226.363 194.978 175.412 227.681C142.542 248.755 69.1827 289.653 -99.9439 289.846Z" stroke="#E56500" stroke-opacity="0.16" stroke-miterlimit="10"/>
<path d="M-117.9 285.022C-262.758 282.868 -278.049 478.507 -196.856 549.75C-96.7073 637.684 172.085 527.815 269.641 550.471C312.956 560.529 226.72 449.012 215.865 346.81C204.92 243.736 228.384 173.968 171.853 213.176C135.012 238.751 64.1213 287.779 -117.9 285.022Z" stroke="#E56500" stroke-opacity="0.16" stroke-miterlimit="10"/>
<path d="M-135.855 280.187C-290.334 275.653 -303.962 485.388 -216.331 560.712C-107.741 654.116 173.534 531.896 279.46 558.935C325.689 570.716 246.482 450.574 232.014 340.942C217.475 230.771 230.333 153.013 168.312 198.692C127.466 228.768 59.0426 285.916 -135.855 280.187Z" stroke="#E56500" stroke-opacity="0.16" stroke-miterlimit="10"/>
<path d="M-153.811 275.352C-317.984 268.482 -329.769 492.269 -235.808 571.675C-118.812 670.538 174.91 535.945 289.277 567.367C338.439 580.892 266.225 452.146 248.144 335.041C230.028 217.785 232.317 132.048 164.77 184.177C119.936 218.797 53.9624 284.053 -153.811 275.352Z" stroke="#E56500" stroke-opacity="0.16" stroke-miterlimit="10"/>
<path d="M-171.764 270.527C-345.647 261.32 -355.627 499.192 -255.281 582.625C-129.88 686.959 176.433 539.982 299.115 575.852C351.264 591.1 286.007 453.685 264.296 329.193C242.585 204.701 234.305 111.146 161.232 169.682C112.391 208.836 48.8859 282.211 -171.764 270.527Z" stroke="#E56500" stroke-opacity="0.16" stroke-miterlimit="10"/>
<path d="M-189.719 265.693C-373.313 254.16 -381.486 506.02 -274.774 593.588C-140.95 703.424 178.025 544.054 308.916 584.316C364.087 601.298 305.769 455.237 280.427 323.325C255.158 191.876 236.308 90.2451 157.673 155.221C104.845 198.886 43.8074 280.359 -189.719 265.693Z" stroke="#E56500" stroke-opacity="0.16" stroke-miterlimit="10"/>
<path d="M-207.678 260.858C-400.983 246.999 -407.064 512.772 -294.199 604.55C-151.612 719.642 179.72 548.016 318.784 592.77C376.978 611.496 325.598 456.787 296.608 317.456C267.78 178.911 238.361 69.3331 154.182 140.727C97.2939 188.937 38.6888 278.529 -207.678 260.858Z" stroke="#E56500" stroke-opacity="0.16" stroke-miterlimit="10"/>
<path d="M-225.631 256.034C-428.647 239.849 -432.939 519.653 -313.726 615.491C-162.77 736.096 181.314 551.958 328.551 601.212C389.803 621.672 345.326 458.317 312.688 311.545C280.318 165.893 240.312 48.3996 150.59 126.19C89.749 178.987 33.594 276.688 -225.631 256.034Z" stroke="#E56500" stroke-opacity="0.16" stroke-miterlimit="10"/>
<path d="M-243.586 251.199C-456.402 232.699 -458.834 526.544 -333.201 626.463C-173.875 752.453 182.996 556.028 338.37 609.686C402.751 631.901 365.535 459.856 328.82 305.708C293.32 152.927 242.316 27.5412 147.049 111.749C82.2027 169.047 28.4799 274.857 -243.586 251.199Z" stroke="#E56500" stroke-opacity="0.16" stroke-miterlimit="10"/>
<path d="M-261.54 246.365C-484.067 225.786 -484.729 533.437 -352.675 637.426C-184.979 768.95 184.714 560.034 348.207 618.151C415.575 642.1 385.226 461.407 344.97 299.84C305.822 139.963 244.32 6.66208 143.492 97.2558C74.657 159.109 23.2949 273.328 -261.54 246.365Z" stroke="#E56500" stroke-opacity="0.16" stroke-miterlimit="10"/>
<path d="M-279.498 241.54C-511.736 218.582 -510.592 540.317 -372.154 648.388C-196.106 785.382 186.445 564.029 358.022 626.614C428.466 652.307 404.931 462.936 361.098 293.971C318.32 126.997 246.338 -14.2289 139.947 82.772C67.0532 149.223 18.1949 271.433 -279.498 241.54Z" stroke="#E56500" stroke-opacity="0.16" stroke-miterlimit="10"/>
<path d="M-297.453 236.704C-539.402 211.377 -536.505 547.208 -391.629 659.339C-207.212 801.782 188.216 568.034 367.84 635.067C441.378 662.515 424.728 464.519 377.229 288.134C330.731 114.064 248.055 -35.1954 136.407 68.3096C59.3455 139.154 13.0981 269.526 -297.453 236.704Z" stroke="#E56500" stroke-opacity="0.16" stroke-miterlimit="10"/>
<path d="M-315.406 231.87C-567.066 204.141 -562.452 554.111 -411.102 670.301C-218.315 818.247 189.989 572.04 377.661 643.488C454.311 672.692 444.349 466.026 393.381 282.19C343.324 101.056 250.221 -56.0425 132.868 53.7834C51.9082 129.269 8.0394 267.674 -315.406 231.87Z" stroke="#E56500" stroke-opacity="0.16" stroke-miterlimit="10"/>
<path d="M129.308 39.3C44.4673 119.373 2.88756 265.725 -333.363 227.045C-594.752 196.97 -588.296 560.981 -430.597 681.263C-229.422 834.69 191.758 576.046 387.478 651.984C545.749 713.407 377.409 -194.878 129.308 39.3Z" stroke="#E56500" stroke-opacity="0.16" stroke-miterlimit="10"/>
</svg>
