<svg width="70" height="70" viewBox="0 0 70 70" fill="none" xmlns="http://www.w3.org/2000/svg">
<g filter="url(#filter0_i_545_814)">
<rect width="70" height="70" rx="14" fill="white"/>
<path d="M46.6666 38.3333C49.1499 35.9 51.6666 32.9833 51.6666 29.1667C51.6666 26.7355 50.7008 24.4039 48.9817 22.6849C47.2626 20.9658 44.9311 20 42.4999 20C39.5666 20 37.4999 20.8333 34.9999 23.3333C32.4999 20.8333 30.4333 20 27.4999 20C25.0688 20 22.7372 20.9658 21.0181 22.6849C19.299 24.4039 18.3333 26.7355 18.3333 29.1667C18.3333 33 20.8333 35.9167 23.3333 38.3333L34.9999 50L46.6666 38.3333Z" fill="#FF3D36"/>
</g>
<defs>
<filter id="filter0_i_545_814" x="0" y="0" width="76" height="76" filterUnits="userSpaceOnUse" color-interpolation-filters="sRGB">
<feFlood flood-opacity="0" result="BackgroundImageFix"/>
<feBlend mode="normal" in="SourceGraphic" in2="BackgroundImageFix" result="shape"/>
<feColorMatrix in="SourceAlpha" type="matrix" values="0 0 0 0 0 0 0 0 0 0 0 0 0 0 0 0 0 0 127 0" result="hardAlpha"/>
<feOffset dx="6" dy="6"/>
<feGaussianBlur stdDeviation="8.25"/>
<feComposite in2="hardAlpha" operator="arithmetic" k2="-1" k3="1"/>
<feColorMatrix type="matrix" values="0 0 0 0 0 0 0 0 0 0 0 0 0 0 0 0 0 0 0.13 0"/>
<feBlend mode="normal" in2="shape" result="effect1_innerShadow_545_814"/>
</filter>
</defs>
</svg>
