<svg width="149" height="56" viewBox="0 0 149 56" fill="none" xmlns="http://www.w3.org/2000/svg">
<path d="M21.6 30.1L14.15 10.95L8.75 24.85C13.55 25.2 18.05 27.1 21.6 30.1ZM14.25 4H16.85L30.3 39H25.05C22.5 32.35 15.35 27.5 7.8 27.35L3.25 39H0.65L14.25 4ZM40.9367 18.4C43.2367 18.4 44.9367 19.05 46.5367 20.7C49.3367 23.65 49.6867 31.25 43.1367 32.9L41.0867 27.95C46.3367 25.85 46.0367 22.7 44.9367 21.8C43.0367 20.2 36.0367 22.2 36.0867 31.35V39L31.1367 38V18.4H36.0867V20.3C37.2367 19.1 38.8367 18.4 40.9367 18.4ZM51.9367 16.05H27.1367V13.55H51.9367V16.05ZM55.5875 16.05V20.85C55.5875 23.75 54.8875 34.55 57.6375 35.7C59.7375 36.6 62.0875 34.9 63.9375 32.4L66.5375 37.35C65.9375 37.75 65.2375 38.1 64.4875 38.4C61.5875 39.45 58.4375 39.15 55.8375 37.95C50.4375 35.4 50.6375 28.85 50.5875 23.05V16.05H46.9375V13.55H50.5875V0.849999L55.5875 1.85V13.55H66.5375V16.05H55.5875ZM83.7496 25.5C81.3496 23.45 69.8496 21.05 69.9996 25C70.0996 28.75 83.7496 25.5 83.7996 32.65C83.8496 40.8 71.5996 39.7 67.2496 37.2V32.25C69.9496 34.65 81.1496 35.8 80.9996 32.7C80.7496 27.95 67.2496 32.25 67.3496 24.45C67.3996 18.25 75.8996 17.85 81.2496 19.5V16.05H63.5996V13.55H87.4496V16.05H83.7496V25.5ZM108.446 16.05H89.4461V19.3C91.8461 18.5 94.6961 18.25 97.0961 18.85C101.146 19.85 104.396 23.35 104.396 28.85V39L99.4461 38V36.9C94.1461 40.2 85.2961 39.35 85.4461 32.1C85.6961 20.45 99.1961 30.4 99.4461 26.3V26.05C99.4461 25.9 99.3961 25.8 99.3961 25.7C98.6961 22 90.1961 22.6 86.9461 25.3V16.05H81.4961V13.55H108.446V16.05ZM99.4461 33.8V30.1C95.3961 31.55 87.9461 26.9 87.9461 31.4C87.9461 34.65 95.0961 35.5 99.4461 33.8ZM102.98 13.55H129.53V16.05H112.73L115.13 21.65L115.83 23.35C108.78 24.8 108.23 30.9 110.33 33.6C114.03 38.45 120.58 31.2 120.58 26.05V19.4L125.53 18.4V39.05C125.53 44.5 125.43 50.05 119.38 52.9C115.73 54.6 109.88 55.05 106.43 48.05L109.48 43.15C113.68 50.3 116.13 51.35 118.03 50.55C120.23 49.6 120.53 42.65 120.58 38.4V37.1C119.43 38.3 117.83 39.05 115.73 39.05C110.73 39.05 106.63 34.05 106.63 28.7C106.63 24.45 108.58 21.05 111.43 19.35L110.03 16.05H102.98V13.55ZM145.224 25.5C142.824 23.45 131.324 21.05 131.474 25C131.574 28.75 145.224 25.5 145.274 32.65C145.324 40.8 133.074 39.7 128.724 37.2V32.25C131.424 34.65 142.624 35.8 142.474 32.7C142.224 27.95 128.724 32.25 128.824 24.45C128.874 18.25 137.374 17.85 142.724 19.5V16.05H125.074V13.55H148.924V16.05H145.224V25.5Z" fill="#6E4E37"/>
</svg>
