<svg width="824" height="732" viewBox="0 0 824 732" fill="none" xmlns="http://www.w3.org/2000/svg">
<path d="M259.494 506.638C242.247 513.31 235.696 529.666 246.969 539.003C270.161 558.217 365.641 548.725 370.133 535.701C374.559 522.87 295.483 492.711 259.494 506.638Z" stroke="#E56500" stroke-opacity="0.16" stroke-miterlimit="10"/>
<path d="M302.23 463.902C341.626 451.152 407.775 541.93 380.47 563.361C363.683 576.54 323.043 574.893 289.901 570.562C258.788 566.497 214.332 549.875 203.365 522.269C197.557 507.613 201.043 486.734 213.343 479.421C222.862 473.764 235.713 476.309 238.548 475.368C252.062 480.548 254.046 482.561 264.813 483.776C278.887 485.364 291.396 467.408 302.23 463.902Z" stroke="#E56500" stroke-opacity="0.16" stroke-miterlimit="10"/>
<path d="M342.202 419.254C387.956 426.003 437.677 558.595 388.044 589.108C356.435 608.542 301.328 599.961 262.918 589.687C227.634 580.25 168.883 548.756 156.996 503.622C150.087 477.397 158.483 440.504 182.539 429.833C201.715 421.329 226.423 428.641 230.774 429.204C256.488 441.985 258.567 448.487 277.714 452.864C303.065 458.653 323.08 416.419 342.202 419.254Z" stroke="#E56500" stroke-opacity="0.16" stroke-miterlimit="10"/>
<path d="M379.276 374.902C429.794 387.344 464.681 575.448 392.72 615.149C346.277 640.768 276.687 625.4 233.037 609.105C193.549 594.369 120.749 547.997 107.731 485.268C99.8776 447.438 112.983 394.614 148.834 380.537C177.642 369.221 214.433 380.834 220.094 383.333C259.674 400.815 260.175 414.707 287.73 422.247C324.333 432.289 352.819 368.4 379.276 374.902Z" stroke="#E56500" stroke-opacity="0.16" stroke-miterlimit="10"/>
<path d="M414.121 332.568C470.067 350.517 489.364 594.13 395.167 643.21C333.827 674.884 249.783 652.897 200.931 630.548C157.193 610.544 70.4351 549.296 56.219 468.931C47.4807 419.531 65.2372 350.756 112.887 333.25C151.343 319.135 199.924 335.692 207.176 339.467C258.196 366.032 259.515 383.001 295.47 393.649C343.333 407.946 380.633 321.827 414.121 332.568Z" stroke="#E56500" stroke-opacity="0.16" stroke-miterlimit="10"/>
<path d="M75.3742 286.527C123.462 269.616 183.805 291.093 192.693 296.169C255.014 331.758 257.319 351.731 301.662 365.588C360.793 384.066 407.128 275.497 447.371 290.769C509.187 314.229 512.657 613.664 396.018 671.807C319.911 709.745 221.251 680.958 167.225 652.523C119.246 627.274 18.5935 551.151 3.14577 453.134C-6.45685 392.168 15.9173 307.434 75.3742 286.527Z" stroke="#E56500" stroke-opacity="0.16" stroke-miterlimit="10"/>
<path d="M595.736 255.674C576.794 255.527 554.077 225.179 571.066 220.112C580.877 217.181 606.854 221.816 617.058 230.066C631.429 241.674 608.771 255.778 595.736 255.674Z" stroke="#E56500" stroke-opacity="0.16" stroke-miterlimit="10"/>
<path d="M544.258 224.362C546.111 220.289 554.791 218.48 562.711 213.521C578.777 203.455 581.082 198.673 592.492 192.602C596.943 190.23 602.93 187.114 608.775 188.541C617.726 190.728 619.96 200.192 631.32 216.861C646.05 238.519 651.628 244.119 647.419 255.597C646.438 258.266 645.169 266.908 638.075 272.18C628.251 279.469 616.737 273.839 602.341 278.663C585.052 284.448 576.481 294.746 568.978 290.195C563.693 286.99 563.496 278.212 559.538 262.928C556.524 251.285 554.629 243.645 550.963 237.413C546.567 229.992 542.195 228.889 544.258 224.362Z" stroke="#E56500" stroke-opacity="0.16" stroke-miterlimit="10"/>
<path d="M515.304 232.85C515.625 225.631 527.9 222.136 538.016 211.704C558.762 190.304 549.151 175.012 565.78 159.377C572.836 152.74 583.908 146.311 595.006 147.556C610.754 149.327 616.044 164.356 640.288 194.827C671.985 234.667 685.487 242.469 682.527 263.7C681.922 268.027 681.333 284.641 668.946 294.641C652.425 307.978 632.623 295.845 606.758 305.868C577.859 317.052 567.058 340.964 557.313 336.016C550.545 332.579 553.138 318.742 547.936 291.753C544.254 272.57 541.978 261.359 534.618 252.176C525.328 240.594 514.957 240.691 515.304 232.85Z" stroke="#E56500" stroke-opacity="0.16" stroke-miterlimit="10"/>
<path d="M486.321 241.246C485.068 230.899 500.962 225.696 513.291 209.791C538.676 177.048 516.79 151.456 539.039 126.056C548.562 115.188 564.895 105.465 581.207 106.479C603.815 107.883 612.169 128.362 649.26 172.702C698.025 230.636 719.025 240.837 717.648 271.71C717.376 277.73 717.502 302.274 699.829 317.022C676.607 336.394 648.475 317.735 611.192 332.988C570.652 349.572 557.66 387.085 545.644 381.755C537.398 378.069 542.68 359.186 536.329 320.493C531.945 293.77 529.303 279.041 518.264 266.854C504.035 251.15 487.661 252.392 486.321 241.246Z" stroke="#E56500" stroke-opacity="0.16" stroke-miterlimit="10"/>
<path d="M457.271 249.619C454.461 236.155 473.929 229.225 488.5 207.859C518.468 163.754 484.262 127.961 512.235 92.7148C524.192 77.6353 545.828 64.6153 567.346 65.3789C596.83 66.4279 608.115 92.4256 658.149 150.557C723.827 226.687 752.409 239.26 752.664 279.701C752.714 287.414 753.541 319.864 730.603 339.379C700.651 364.763 664.245 339.591 615.518 360.089C563.329 382.049 548.145 433.199 533.908 427.476C524.18 423.55 532.154 399.608 524.656 349.213C519.558 314.947 516.565 296.72 501.848 281.513C482.667 261.706 460.293 264.097 457.271 249.619Z" stroke="#E56500" stroke-opacity="0.16" stroke-miterlimit="10"/>
<path d="M428.166 257.988C432.872 275.806 461.237 272.257 485.364 296.169C503.764 314.399 507.108 336.116 512.92 377.93C521.55 440.022 510.895 469.028 522.105 473.189C538.584 479.31 555.956 414.518 619.801 387.186C679.947 361.439 724.704 393.179 761.335 361.732C789.576 337.485 788.006 297.129 787.638 287.684C785.693 237.686 749.574 222.73 666.979 128.404C603.999 56.4816 589.795 24.9727 553.418 24.2747C526.697 23.7617 499.747 40.087 485.364 59.3702C451.684 104.493 498.278 150.507 463.654 205.923C446.875 232.777 423.787 241.412 428.166 257.988Z" stroke="#E56500" stroke-opacity="0.16" stroke-miterlimit="10"/>
<path d="M668.879 544.769C663.936 542.455 653.556 546.913 652.638 553.859C651.598 561.738 663.343 568.255 668.503 566.231C674.607 563.832 675.438 547.831 668.879 544.769Z" stroke="#E56500" stroke-opacity="0.16" stroke-miterlimit="10"/>
<path d="M682.807 586.632C691.232 579.355 694.915 565.999 699.127 543.106C703.302 520.406 702.647 504.154 698.977 502.974C696.977 502.338 691.312 507.317 686.452 510.965C677.354 517.776 661.781 517.02 657.79 517.756C643.177 520.456 638.885 525.47 632.777 535.073C629.951 539.508 623.358 549.343 620.457 560.912C616.031 578.433 596.195 583.832 598.613 590.855C600.646 596.718 620.298 598.141 633.04 598.307C651.302 598.546 669.781 597.871 682.807 586.632Z" stroke="#E56500" stroke-opacity="0.16" stroke-miterlimit="10"/>
<path d="M697.411 606.197C711.26 593.193 716.708 571.368 725.1 530.553C733.626 489.541 733.571 461.411 729.371 460.362C726.219 459.56 716.011 469.699 707.335 476.945C690.982 490.663 661.706 488.407 655.673 489.287C628.16 493.213 621.379 502.619 610.716 520.398C606.274 527.803 594.087 545.852 588.534 567.168C579.988 599.822 539.469 608.372 542.822 620.478C545.623 630.56 583.198 632.106 606.842 631.277C640.225 630.078 674.01 628.18 697.411 606.197Z" stroke="#E56500" stroke-opacity="0.16" stroke-miterlimit="10"/>
<path d="M711.936 625.635C731.221 606.907 738.373 576.597 750.99 517.872C763.803 458.538 764.4 418.594 759.682 417.599C755.361 416.674 740.619 431.946 728.152 442.81C704.584 463.47 661.568 459.671 653.49 460.666C613.083 465.649 603.777 479.583 588.588 505.577C582.526 515.948 564.753 542.215 556.541 573.265C543.886 621.057 482.68 632.75 486.959 649.943C490.533 664.244 546.04 665.975 580.576 664.082C629.074 661.556 678.214 658.385 711.936 625.635Z" stroke="#E56500" stroke-opacity="0.16" stroke-miterlimit="10"/>
<path d="M726.415 645.061C751.148 620.61 759.995 581.812 776.837 505.176C793.955 427.526 795.208 375.782 789.955 374.821C784.461 373.807 765.176 394.151 748.927 408.64C718.099 436.196 661.393 430.893 651.269 432.031C597.97 438.005 586.067 456.501 566.419 490.737C558.712 504.065 535.377 538.559 524.514 579.347C507.739 642.272 425.845 657.113 431.064 679.393C435.402 697.905 508.841 699.752 554.274 696.875C617.864 692.914 682.389 688.591 726.415 645.061Z" stroke="#E56500" stroke-opacity="0.16" stroke-miterlimit="10"/>
<path d="M649.027 403.384C582.839 410.326 568.448 433.465 544.233 475.889C534.922 492.198 505.981 534.895 492.462 585.418C471.587 663.484 368.993 681.468 375.143 708.83C380.253 731.585 471.62 733.513 527.95 729.656C606.658 724.257 686.556 718.788 740.878 664.479C771.059 634.301 781.597 587.026 802.668 492.472C824.057 396.503 825.965 332.969 820.204 332.036C813.524 330.956 789.726 356.332 769.686 374.459C731.592 408.906 661.201 402.107 649.027 403.384Z" stroke="#E56500" stroke-opacity="0.16" stroke-miterlimit="10"/>
<path d="M110.862 217.879C118.377 244.49 172.319 231.99 236.531 291.926C259.54 313.404 274.967 335.869 305.42 339.363C308.492 339.714 339 342.796 360.53 324.708C387.618 301.954 371.085 270.387 402.698 226.363C414.343 210.146 416.28 214.855 424.826 202.066C461.299 147.475 405.671 92.0553 437.769 36.616C452.544 11.0965 474.509 5.23825 472.422 1.9061C463.412 -12.3905 90.5547 146.172 110.862 217.879Z" stroke="#E56500" stroke-opacity="0.16" stroke-miterlimit="10"/>
<path d="M313.77 302.983C315.615 302.752 335.731 304.14 349.529 291.352C366.977 275.204 354.539 252.97 374.529 222.954C381.886 211.901 382.909 214.897 388.144 206.154C410.481 168.845 370.392 131.312 390.023 94.7897C399.108 77.8821 413.449 74.0062 411.316 72.3556C401.667 64.8274 155.56 176.042 174.891 224.435C182.139 242.584 221.706 236.144 266.98 275.235C283.442 289.439 294.59 305.386 313.77 302.983Z" stroke="#E56500" stroke-opacity="0.16" stroke-miterlimit="10"/>
<path d="M322.12 266.6C322.646 265.377 332.482 265.404 338.528 257.996C346.377 248.385 338.018 235.581 346.36 219.549C349.421 213.663 349.546 214.921 351.466 210.242C359.712 190.122 335.079 170.592 342.281 152.96C345.65 144.66 351.913 143.245 350.243 142.801C338.035 144.402 220.816 206.019 238.898 230.991C245.959 240.749 271.23 240.282 297.408 258.543C307.357 265.485 313.87 270.568 322.12 266.6Z" stroke="#E56500" stroke-opacity="0.16" stroke-miterlimit="10"/>
<path d="M330.47 230.22C323.99 212.73 298.481 206.783 289.137 213.251C275.359 222.8 287.112 235.234 302.915 237.548C314.726 239.264 337.885 250.236 330.47 230.22Z" stroke="#E56500" stroke-opacity="0.16" stroke-miterlimit="10"/>
</svg>
