<svg width="16" height="16" viewBox="0 0 16 16" fill="none" xmlns="http://www.w3.org/2000/svg">
<path d="M8.0038 3.95732C5.73238 3.95732 3.90023 5.76084 3.90023 7.99677C3.90023 10.2327 5.73238 12.0362 8.0038 12.0362C10.2752 12.0362 12.1074 10.2327 12.1074 7.99677C12.1074 5.76084 10.2752 3.95732 8.0038 3.95732ZM8.0038 10.6229C6.53595 10.6229 5.33595 9.44521 5.33595 7.99677C5.33595 6.54834 6.53238 5.3706 8.0038 5.3706C9.47523 5.3706 10.6717 6.54834 10.6717 7.99677C10.6717 9.44521 9.47166 10.6229 8.0038 10.6229ZM13.2324 3.79209C13.2324 4.31592 12.8038 4.73428 12.2752 4.73428C11.7431 4.73428 11.3181 4.3124 11.3181 3.79209C11.3181 3.27178 11.7467 2.8499 12.2752 2.8499C12.8038 2.8499 13.2324 3.27178 13.2324 3.79209ZM15.9502 4.74834C15.8895 3.48623 15.5967 2.36826 14.6574 1.44717C13.7217 0.526074 12.5859 0.237793 11.3038 0.174512C9.98237 0.100684 6.02166 0.100684 4.70023 0.174512C3.42166 0.234277 2.28595 0.522558 1.34666 1.44365C0.40738 2.36475 0.118094 3.48271 0.0538086 4.74482C-0.0211914 6.0456 -0.0211914 9.94443 0.0538086 11.2452C0.114523 12.5073 0.40738 13.6253 1.34666 14.5464C2.28595 15.4675 3.41809 15.7558 4.70023 15.819C6.02166 15.8929 9.98237 15.8929 11.3038 15.819C12.5859 15.7593 13.7217 15.471 14.6574 14.5464C15.5931 13.6253 15.8859 12.5073 15.9502 11.2452C16.0252 9.94443 16.0252 6.04912 15.9502 4.74834ZM14.2431 12.6409C13.9645 13.33 13.4252 13.8608 12.7217 14.1386C11.6681 14.5499 9.16809 14.455 8.0038 14.455C6.83952 14.455 4.33595 14.5464 3.28595 14.1386C2.58595 13.8643 2.04666 13.3335 1.76452 12.6409C1.34666 11.6038 1.44309 9.14287 1.44309 7.99677C1.44309 6.85068 1.35024 4.38623 1.76452 3.35264C2.04309 2.66357 2.58238 2.13271 3.28595 1.85498C4.33952 1.44365 6.83952 1.53857 8.0038 1.53857C9.16809 1.53857 11.6717 1.44717 12.7217 1.85498C13.4217 2.1292 13.9609 2.66006 14.2431 3.35264C14.6609 4.38974 14.5645 6.85068 14.5645 7.99677C14.5645 9.14287 14.6609 11.6073 14.2431 12.6409Z" fill="white"/>
</svg>
