<svg width="21" height="16" viewBox="0 0 21 16" fill="none" xmlns="http://www.w3.org/2000/svg">
<path d="M2.64418 0.799805H18.5442C20.0442 0.799805 20.8002 1.5078 20.8002 2.9478V13.0518C20.8002 14.4798 20.0442 15.1998 18.5442 15.1998H2.64418C1.14418 15.1998 0.388184 14.4798 0.388184 13.0518V2.9478C0.388184 1.5078 1.14418 0.799805 2.64418 0.799805ZM10.5882 11.1198L18.6762 4.4838C18.9642 4.2438 19.1922 3.6918 18.8322 3.1998C18.4842 2.7078 17.8482 2.6958 17.4282 2.9958L10.5882 7.6278L3.76018 2.9958C3.34018 2.6958 2.70418 2.7078 2.35618 3.1998C1.99618 3.6918 2.22418 4.2438 2.51218 4.4838L10.5882 11.1198Z" fill="white"/>
</svg>
