<svg width="86" height="86" viewBox="0 0 86 86" fill="none" xmlns="http://www.w3.org/2000/svg">
<path d="M63.9 17.9965C61.2678 15.5889 57.817 14.2747 54.25 14.3215C47.125 14.3215 41.375 19.1215 41.375 25.0465C41.6127 29.6775 44.767 33.6455 49.225 34.9215C51.075 35.5715 52.575 35.0465 53.625 32.6715C54.0438 31.4874 55.057 30.6127 56.2896 30.3714C57.5222 30.13 58.7905 30.5579 59.625 31.4965M66.325 27.0215L59.6 40.4715M47.375 27.3465C47.375 27.0013 47.6548 26.7215 48 26.7215C48.3452 26.7215 48.625 27.0013 48.625 27.3465C48.6318 27.5166 48.569 27.682 48.451 27.8047C48.3331 27.9274 48.1702 27.9967 48 27.9965C47.6548 27.9965 47.375 27.7167 47.375 27.3715M50.5 21.1215C50.5 20.7763 50.2202 20.4965 49.875 20.4965C49.5394 20.4963 49.2634 20.7611 49.25 21.0965C49.25 21.4417 49.5298 21.7215 49.875 21.7215C50.2202 21.7215 50.5 21.4417 50.5 21.0965M56.125 20.4965C55.9548 20.4967 55.7919 20.4274 55.674 20.3047C55.556 20.182 55.4932 20.0166 55.5 19.8465C55.5 19.5013 55.7798 19.2215 56.125 19.2215C56.4702 19.2215 56.75 19.5013 56.75 19.8465C56.75 20.1917 56.4702 20.4715 56.125 20.4715M49.25 46.6965V69.1965C49.25 70.5772 48.1307 71.6965 46.75 71.6965H16.75C15.3693 71.6965 14.25 70.5772 14.25 69.1965V29.1965C14.25 27.8158 15.3693 26.6965 16.75 26.6965H36.75M14.25 49.1965H49.25M14.25 34.1965H21.75M21.75 34.1965V49.1965M21.75 34.1965H28C28.6904 34.1965 29.25 34.7562 29.25 35.4465V49.1965M14.25 56.6965H20.5C21.1904 56.6965 21.75 57.2562 21.75 57.9465V71.6965M29.25 71.6965V57.9965C29.25 57.3062 29.8096 56.7465 30.5 56.7465H35.5C36.1904 56.7465 36.75 57.3062 36.75 57.9965V71.7465M21.75 59.1965H29.25M64.9 22.6965C64.2101 23.7421 64.1881 25.0926 64.8436 26.1602C65.4991 27.2277 66.7135 27.819 67.9581 27.6768C69.2027 27.5345 70.2523 26.6844 70.65 25.4965C72.5995 22.5376 71.9707 18.5803 69.2 16.3715C69.7 20.2965 66.8 18.8465 64.9 22.6965ZM32.7184 35.2975L36.3641 34.4196C36.3641 34.4196 37.5794 34.1269 37.8721 35.3422L40.2133 45.0642C40.2133 45.0642 40.5059 46.2795 39.2907 46.5722L35.6449 47.4501C35.6449 47.4501 34.4297 47.7428 34.137 46.5275L31.7958 36.8055C31.7958 36.8055 31.5031 35.5902 32.7184 35.2975Z" stroke="#E56500" stroke-width="2" stroke-linecap="round" stroke-linejoin="round"/>
</svg>
