<svg width="25" height="30" viewBox="0 0 25 30" fill="none" xmlns="http://www.w3.org/2000/svg">
<path d="M0.927734 22.2012H23.3301C23.6428 22.2012 23.8965 22.4548 23.8965 22.7676V25.7949C23.8925 27.4437 22.557 28.7794 20.9082 28.7832H3.35059C1.70135 28.7796 0.364914 27.4432 0.361328 25.7939V22.7676C0.361328 22.4549 0.615011 22.2012 0.927734 22.2012ZM14.5791 7.9541L16.6123 10.5967L13.1074 13.9355L12.6309 14.3896L13.2773 14.5186C15.2472 14.9099 16.7724 16.351 17.4355 18.1582L17.5566 18.5244C17.6915 18.9849 17.4282 19.4681 16.9678 19.6035C16.507 19.7389 16.0231 19.4744 15.8877 19.0137C15.4026 17.3642 13.9686 16.1514 12.1895 16.1514C10.3751 16.1515 8.87432 17.3948 8.50293 18.9678H8.50195L8.5 18.9775C8.43638 19.2875 8.2093 19.5387 7.90723 19.6328C7.60523 19.7268 7.27616 19.6486 7.04785 19.4297C6.81952 19.2107 6.72825 18.8849 6.80957 18.5791L6.81152 18.5703C7.29051 16.534 8.98624 14.9345 11.1016 14.5186L11.75 14.3906L11.2715 13.9355L7.76758 10.5977L9.80273 7.9541H14.5791ZM1.73047 10.9268H3.47461C3.95434 10.9269 4.34359 11.3162 4.34375 11.7959C4.34375 12.2758 3.95444 12.6649 3.47461 12.665H1.73047C1.25061 12.665 0.861328 12.2758 0.861328 11.7959C0.861492 11.3162 1.25071 10.9268 1.73047 10.9268ZM20.9062 10.9268H22.6494C23.1292 10.9268 23.5184 11.3161 23.5186 11.7959C23.5186 12.2758 23.1293 12.665 22.6494 12.665H20.9062C20.4263 12.665 20.0371 12.2758 20.0371 11.7959C20.0373 11.3161 20.4264 10.9268 20.9062 10.9268ZM19.043 3.71484C19.3982 3.39253 19.9479 3.41848 20.2705 3.77344L20.2812 3.78613C20.5922 4.14162 20.5629 4.68102 20.2119 5L18.9336 6.16309L18.9307 6.16602C18.7017 6.37912 18.3755 6.45246 18.0771 6.3584C17.7787 6.26427 17.5536 6.01696 17.4883 5.71094C17.4312 5.44313 17.5038 5.166 17.6797 4.96191L17.7646 4.87695L19.043 3.71484ZM4.17188 3.71094C4.49901 3.41633 5.0026 3.41115 5.33594 3.71289L6.61426 4.87598C6.95962 5.20055 6.98121 5.74262 6.66211 6.09375C6.36204 6.4235 5.86579 6.46944 5.51172 6.21387L5.44238 6.15918L4.16699 4.99902C3.81606 4.67938 3.78727 4.13836 4.09961 3.7832L4.17188 3.71094ZM12.1895 0.466797C12.6694 0.466797 13.0586 0.856017 13.0586 1.33594V2.96387C13.0584 3.44362 12.6693 3.83203 12.1895 3.83203C11.7097 3.83193 11.3205 3.44356 11.3203 2.96387V1.33594C11.3203 0.856083 11.7096 0.466902 12.1895 0.466797Z" fill="#FB5934" stroke="#48372D" stroke-width="0.683936"/>
</svg>
