<svg width="87" height="87" viewBox="0 0 87 87" fill="none" xmlns="http://www.w3.org/2000/svg">
<path d="M30.8468 71.8125C32.8097 66.4163 37.8993 62.7914 43.6406 62.7005C49.382 62.6095 54.5839 66.0713 56.7168 71.4025M33.0893 67.86C31.2084 66.3854 28.8868 65.5851 26.4968 65.5875C22.4455 65.5983 18.7414 67.8766 16.9043 71.4875M70.6593 71.4875C68.8222 67.8766 65.1181 65.5983 61.0668 65.5875C58.7174 65.5824 56.4321 66.3541 54.5668 67.7825M60.0318 14.3125L50.9218 14.5625C49.2534 14.6096 47.6398 15.1682 46.2993 16.1625L37.5818 22.63C35.7509 23.9914 34.4303 25.9283 33.8318 28.13L32.3318 33.6675C31.7359 35.3656 31.7289 37.2149 32.3118 38.9175C33.2229 40.6982 35.3093 41.5321 37.1968 40.87C38.3071 40.5164 39.1572 39.6162 39.4468 38.4875L41.3168 30.6675C41.6236 29.9423 42.1398 29.3252 42.7993 28.895L49.0618 24.8125C50.2291 24.0489 51.7116 23.954 52.9668 24.5625C53.9668 25.0625 55.7318 26.0275 56.1218 27.0275C56.8925 28.6126 56.6191 30.5074 55.4318 31.81L50.7443 36.3825C49.3071 37.6942 49.0673 39.8692 50.1843 41.4625C51.6218 43.175 53.6418 42.1675 55.5068 40.8775L63.9318 35.0475C64.6686 34.5355 65.2119 33.7906 65.4743 32.9325L67.2243 27.21M35.3718 52.5375C35.371 57.2255 39.1713 61.0263 43.8593 61.0263C48.5473 61.0263 52.3475 57.2255 52.3468 52.5375C52.3475 47.8495 48.5473 44.0486 43.8593 44.0486C39.1713 44.0486 35.371 47.8495 35.3718 52.5375ZM21.0268 55.555C21.0268 58.576 23.4758 61.025 26.4968 61.025C29.5178 61.025 31.9668 58.576 31.9668 55.555C31.9668 52.534 29.5178 50.085 26.4968 50.085C23.4758 50.085 21.0268 52.534 21.0268 55.555ZM55.5968 55.555C55.5968 58.576 58.0458 61.025 61.0668 61.025C64.0878 61.025 66.5368 58.576 66.5368 55.555C66.5368 52.534 64.0878 50.085 61.0668 50.085C58.0458 50.085 55.5968 52.534 55.5968 55.555Z" stroke="#E56500" stroke-width="2" stroke-linecap="round" stroke-linejoin="round"/>
</svg>
