<svg width="100" height="89" viewBox="0 0 100 89" fill="none" xmlns="http://www.w3.org/2000/svg">
<path d="M27.4423 86.6989C26.7137 88.156 25.7018 88.6417 24.4066 88.156C23.1113 87.6703 22.1399 86.6584 21.4923 85.1203L20.7637 83.4203C20.6828 82.6917 20.4399 81.9632 20.0352 81.2346C19.6304 80.4251 19.2256 79.6965 18.8209 79.0489C17.9304 77.4298 16.959 75.6489 15.9066 73.706C14.8542 71.6822 13.6399 69.9822 12.2637 68.606L8.37801 62.0489C8.37801 60.9965 8.0542 60.0251 7.40658 59.1346C6.83992 58.2441 6.27325 57.3941 5.70658 56.5846C5.22087 55.6941 4.4923 54.3584 3.52087 52.5775C2.63039 50.7155 1.82087 48.9346 1.0923 47.2346C0.363726 45.5346 -0.000560005 44.4417 -0.000560005 43.956C0.242297 42.5798 0.687535 41.3251 1.33515 40.1917C1.98277 38.8155 2.9542 37.1155 4.24944 35.0917C5.54468 32.987 6.83992 30.8822 8.13515 28.7775C9.51135 26.5917 10.6852 24.6894 11.6566 23.0703C12.628 21.4513 13.1542 20.4394 13.2352 20.0346C13.9637 19.6298 14.2875 19.0632 14.2066 18.3346C14.2066 17.606 14.4899 16.9584 15.0566 16.3917C15.7042 15.6632 16.2709 14.9346 16.7566 14.206C17.3233 13.3965 17.809 12.587 18.2137 11.7775C18.6185 10.887 19.0233 9.9965 19.428 9.10602C19.8328 8.13459 20.3185 7.24412 20.8852 6.43459C21.209 6.02983 21.3709 5.66554 21.3709 5.34174C21.4518 5.01793 21.5328 4.69412 21.6137 4.37031C21.8566 3.72269 22.0994 3.11555 22.3423 2.54888C22.6661 1.90126 23.1113 1.33459 23.678 0.848882C24.4066 0.282213 25.0137 0.241735 25.4994 0.727448C26.5518 1.53697 27.3613 2.38697 27.928 3.27745C28.4947 4.08697 29.1828 5.50364 29.9923 7.52745C30.3971 8.49888 30.9233 9.47031 31.5709 10.4417C32.2185 11.3322 32.7042 12.587 33.028 14.206C33.1899 15.0965 33.5542 15.9465 34.1209 16.756C34.6875 17.4846 35.1328 18.2941 35.4566 19.1846C35.6994 19.6703 36.1852 20.6013 36.9137 21.9774C37.7233 23.2727 38.5328 24.6084 39.3423 25.9846C40.1518 27.2798 40.678 28.2108 40.9209 28.7775C41.2447 29.3441 41.5685 29.9108 41.8923 30.4775C42.2971 31.0441 42.5399 31.7322 42.6209 32.5417C42.6209 32.9465 42.7423 33.3513 42.9852 33.756C43.228 34.1608 43.5113 34.5251 43.8352 34.8489C45.2113 36.1441 46.3042 37.6417 47.1137 39.3417C47.9233 40.9608 48.8542 42.4989 49.9066 43.956C50.3923 44.6846 50.4328 45.3727 50.028 46.0203C48.8137 47.8013 47.7613 49.7441 46.8709 51.8489C45.9804 53.9536 44.8471 55.8155 43.4709 57.4346C42.5804 58.487 41.8518 59.6608 41.2852 60.956C40.7185 62.2513 39.909 63.4251 38.8566 64.4775C38.8566 65.4489 38.4923 66.4203 37.7637 67.3917C37.0352 68.3632 35.9828 70.0227 34.6066 72.3703C34.6875 73.0179 34.4852 73.5441 33.9994 73.9489C33.5137 74.2727 33.1494 74.6775 32.9066 75.1632C32.6637 75.487 32.5423 76.0941 32.5423 76.9846C32.5423 77.7941 32.4209 78.3203 32.178 78.5632C31.6113 79.3727 30.8018 80.6679 29.7494 82.4489C28.778 84.2298 28.009 85.6465 27.4423 86.6989ZM23.9209 82.0846C24.3256 82.6513 24.609 82.8941 24.7709 82.8132C25.0137 82.7322 25.4185 82.4489 25.9852 81.9632C26.6328 81.3965 26.9161 80.7084 26.8352 79.8989C26.8352 79.0084 27.1185 78.3608 27.6852 77.956C28.4947 77.3894 28.9399 76.5394 29.0209 75.406C29.1018 74.1917 29.3447 73.3013 29.7494 72.7346C30.0733 72.2489 30.559 71.5203 31.2066 70.5489C31.8542 69.4965 32.4613 68.4441 33.028 67.3917C33.6756 66.3394 34.0399 65.6108 34.1209 65.206C34.2828 64.4775 34.728 63.8703 35.4566 63.3846C36.1852 62.8179 36.5899 62.1298 36.6709 61.3203C37.3185 60.8346 37.7233 60.2275 37.8852 59.4989C38.0471 58.7703 38.3709 58.1227 38.8566 57.556C39.7471 56.6655 40.4756 55.6536 41.0423 54.5203C41.609 53.387 42.1352 52.1727 42.6209 50.8775C43.2685 49.1775 43.8352 47.9632 44.3209 47.2346C44.8875 46.4251 45.2923 45.6965 45.5352 45.0489L42.1352 39.8275C41.9733 39.5846 41.7709 39.3417 41.528 39.0989C41.2852 38.856 41.1637 38.6132 41.1637 38.3703C41.0828 37.6417 40.7994 36.9941 40.3137 36.4275C39.909 35.8608 39.6256 35.2536 39.4637 34.606C39.3828 34.2822 38.978 33.4727 38.2494 32.1775C37.5209 30.8013 36.7113 29.2632 35.8209 27.5632C34.9304 25.7822 34.0399 24.1632 33.1494 22.706C32.259 21.2489 31.5709 20.237 31.0852 19.6703C30.5185 18.9417 29.8709 17.8489 29.1423 16.3917C28.4137 14.8536 27.6852 13.3155 26.9566 11.7775C26.309 10.2394 25.7423 9.10602 25.2566 8.37745C24.7709 8.62031 24.4066 9.02507 24.1637 9.59174C23.9209 10.0774 23.5566 10.7251 23.0709 11.5346C22.4233 12.0203 21.5733 13.1132 20.5209 14.8132C19.5494 16.5132 18.6185 18.2536 17.728 20.0346C16.8375 21.8155 16.2304 23.0703 15.9066 23.7989C15.5828 24.5274 15.259 25.2965 14.9352 26.106C14.6923 26.8346 14.1256 27.4417 13.2352 27.9275C12.1828 30.437 10.8875 32.7846 9.34944 34.9703C7.81135 37.0751 6.51611 39.3013 5.46373 41.6489C5.30182 42.0536 5.01849 42.4989 4.61373 42.9846C4.28992 43.3894 4.16849 43.9155 4.24944 44.5632C4.33039 45.0489 4.69468 45.5751 5.3423 46.1417C5.98992 46.7084 6.31373 47.1941 6.31373 47.5989C6.31373 48.4084 6.55658 49.137 7.0423 49.7846C7.52801 50.3513 7.93277 50.9584 8.25658 51.606C9.87563 55.1679 11.4947 58.2846 13.1137 60.956C13.4375 61.5227 13.559 62.0894 13.478 62.656C13.3971 63.1417 13.6399 63.587 14.2066 63.9917C14.8542 64.3965 15.3399 64.9227 15.6637 65.5703C15.9875 66.2179 16.3113 66.8251 16.6352 67.3917C17.9304 69.5775 19.1447 72.006 20.278 74.6775C21.4923 77.3489 22.7066 79.8179 23.9209 82.0846ZM26.228 48.4489C23.5566 48.4489 22.0994 48.3275 21.8566 48.0846C21.4518 47.5989 21.128 47.0727 20.8852 46.506C20.6423 45.8584 20.3994 45.2513 20.1566 44.6846C19.9947 44.2798 20.278 43.7132 21.0066 42.9846C21.7352 42.256 22.3828 41.8513 22.9494 41.7703C23.4352 41.6894 23.8399 41.5275 24.1637 41.2846C24.4875 40.9608 25.0137 40.9203 25.7423 41.1632C26.6328 41.5679 27.2804 42.0941 27.6852 42.7417C28.1709 43.3894 28.5756 44.0775 28.8994 44.806C29.0613 45.1298 28.7375 45.8179 27.928 46.8703C27.1994 47.9227 26.6328 48.4489 26.228 48.4489ZM25.0137 45.7775C25.1756 45.7775 25.378 45.6155 25.6209 45.2917C25.8637 44.9679 25.9447 44.7655 25.8637 44.6846C25.7018 44.4417 25.5399 44.2394 25.378 44.0775C25.2971 43.8346 25.1352 43.6727 24.8923 43.5917C24.6494 43.4298 24.4875 43.4298 24.4066 43.5917C24.3256 43.6727 24.2042 43.7132 24.0423 43.7132C23.8804 43.7941 23.678 43.9155 23.4352 44.0775C23.1923 44.2394 23.1113 44.4013 23.1923 44.5632C23.3542 44.887 23.5566 45.2108 23.7994 45.5346C23.8804 45.6965 24.2852 45.7775 25.0137 45.7775ZM60.5714 86.6989C58.9524 86.537 58.1429 85.6465 58.1429 84.0275V83.4203H61.5429C63 83.4203 64.3357 83.137 65.55 82.5703C66.5214 82.5703 67.331 82.8941 67.9786 83.5417C68.2214 83.7846 68.5452 83.7441 68.95 83.4203C69.7595 82.7727 70.4476 82.4894 71.0143 82.5703C71.581 82.6513 72.1476 82.7727 72.7143 82.9346C73.281 83.0156 74.0095 82.8941 74.9 82.5703C75.3048 82.4084 75.6286 82.287 75.8714 82.206C76.1952 82.1251 76.3571 81.9227 76.3571 81.5989C76.3571 79.4941 76.3571 77.3894 76.3571 75.2846C76.3571 73.0989 76.3976 70.9536 76.4786 68.8489V55.6132C76.4786 51.7275 76.4381 47.8417 76.3571 43.956C76.3571 40.0703 76.3571 36.1846 76.3571 32.2989C76.3571 30.356 76.3571 28.9798 76.3571 28.1703C76.3571 27.2798 76.3571 26.5917 76.3571 26.106C76.4381 25.6203 76.4786 24.9727 76.4786 24.1632C76.4786 23.2727 76.4786 21.856 76.4786 19.9132C76.4786 19.2655 76.4381 18.6179 76.3571 17.9703C76.2762 17.2417 76.2357 16.5132 76.2357 15.7846C76.2357 15.137 76.4381 14.287 76.8429 13.2346C77.2476 12.1822 77.4095 11.6155 77.3286 11.5346C76.681 10.806 76.3571 9.02507 76.3571 6.19174C76.3571 4.65364 76.4381 3.72269 76.6 3.39888C76.7619 3.07507 77.45 2.5084 78.6643 1.69888C79.3119 1.69888 79.7976 2.02269 80.1214 2.67031C80.5262 3.23697 80.7286 3.76316 80.7286 4.24888C80.7286 4.49174 80.6881 5.30126 80.6071 6.67745C80.6071 7.97269 80.5667 9.34888 80.4857 10.806C80.4857 12.2632 80.4857 13.3965 80.4857 14.206V77.956C80.4857 78.5227 80.4857 79.1298 80.4857 79.7775C80.4857 80.3441 80.5262 80.9513 80.6071 81.5989C80.6071 82.1656 80.8905 82.4489 81.4571 82.4489C82.5905 82.4489 83.4 82.4894 83.8857 82.5703C84.4524 82.5703 84.9786 82.5703 85.4643 82.5703C85.95 82.5703 86.7595 82.5703 87.8929 82.5703C88.5405 82.1656 89.3095 82.0036 90.2 82.0846C91.0905 82.0846 92.4262 82.0846 94.2071 82.0846C95.0976 82.7322 95.9476 83.056 96.7571 83.056C97.5667 82.9751 98.3762 83.137 99.1857 83.5417C99.1857 85.1608 98.2548 86.0917 96.3929 86.3346C95.8262 86.5775 94.8548 86.7394 93.4786 86.8203C92.1024 86.9013 90.6452 86.9013 89.1071 86.8203C87.569 86.8203 86.1524 86.8203 84.8571 86.8203C83.6429 86.7394 82.8738 86.6989 82.55 86.6989C77.2881 86.7798 73.3619 86.8203 70.7714 86.8203C68.181 86.8203 66.4 86.7798 65.4286 86.6989C64.5381 86.6179 63.85 86.5775 63.3643 86.5775C62.9595 86.5775 62.5143 86.6179 62.0286 86.6989C61.5429 86.6989 61.0571 86.6989 60.5714 86.6989ZM66.2786 25.0132C64.8214 26.0655 63.4452 26.5917 62.15 26.5917C60.8548 26.5108 60.0857 25.9036 59.8429 24.7703C59.7619 24.2846 59.519 23.7989 59.1143 23.3132C58.7905 22.8275 58.6286 22.4227 58.6286 22.0989C58.7905 21.4513 58.9929 20.8846 59.2357 20.3989C59.5595 19.8322 59.8833 19.306 60.2071 18.8203C60.6929 18.3346 61.3405 18.2132 62.15 18.456C63.0405 18.6179 63.931 18.9417 64.8214 19.4275C65.7119 19.8322 66.319 20.2775 66.6429 20.7632C67.3714 21.4917 67.5738 22.2203 67.25 22.9489C67.0881 23.8394 66.7643 24.5275 66.2786 25.0132ZM63.9714 23.0703C64.1333 22.9084 64.2143 22.706 64.2143 22.4632C64.2952 22.2203 64.2548 22.0179 64.0929 21.856C64.0119 21.6941 63.7286 21.5322 63.2429 21.3703C62.7571 21.2084 62.4333 21.2084 62.2714 21.3703C62.1905 21.4513 62.1095 21.5727 62.0286 21.7346C61.9476 21.8965 61.9071 22.0584 61.9071 22.2203C61.9071 22.3013 61.9476 22.4227 62.0286 22.5846C62.1095 22.6655 62.1905 22.787 62.2714 22.9489C62.3524 23.2727 62.5548 23.4346 62.8786 23.4346C63.2833 23.4346 63.6476 23.3132 63.9714 23.0703Z" fill="#C53F3F"/>
</svg>
