<svg width="751" height="501" viewBox="0 0 751 501" fill="none" xmlns="http://www.w3.org/2000/svg">
<path d="M232.012 87.5707C233.331 86.9883 234.451 86.0319 235.233 84.8198C236.015 83.6077 236.425 82.193 236.412 80.7507C236.478 79.8046 236.349 78.855 236.034 77.9607C235.718 77.0663 235.223 76.2462 234.578 75.5512C233.932 74.8561 233.151 74.3009 232.283 73.9199C231.414 73.5388 230.477 73.3401 229.529 73.336C228.58 73.3319 227.641 73.5225 226.769 73.8959C225.898 74.2694 225.112 74.8179 224.461 75.5073C223.81 76.1967 223.307 77.0125 222.984 77.904C222.66 78.7956 222.524 79.7441 222.582 80.6907C222.551 82.1443 222.953 83.5742 223.736 84.7991C224.52 86.024 225.649 86.9886 226.982 87.5707C216.342 89.1807 216.822 100.741 216.822 100.741L241.992 100.861C241.992 100.861 242.562 89.1707 232.012 87.5707Z" fill="#E0E0E0"/>
<path d="M640.563 148.422L628.893 135.852L632.673 132.342L640.733 141.012L657.663 124.352L661.283 128.032L640.563 148.422Z" fill="#F5F5F5"/>
<path d="M471.282 217.069C471.282 208.479 462.282 203.069 453.062 207.349C450.983 208.322 449.282 209.953 448.222 211.989C445.912 216.469 446.932 221.589 449.032 225.839L456.192 243.969C456.419 244.546 456.815 245.041 457.328 245.39C457.841 245.74 458.447 245.926 459.067 245.926C459.687 245.926 460.293 245.74 460.806 245.39C461.319 245.041 461.715 244.546 461.942 243.969L468.942 225.739C471.402 220.159 471.282 217.069 471.282 217.069ZM462.662 224.509C456.482 228.099 450.212 221.459 453.602 214.899C454.058 214.03 454.751 213.308 455.602 212.819C461.792 209.219 468.052 215.819 464.662 222.429C464.206 223.298 463.512 224.019 462.662 224.509Z" fill="#EBEBEB"/>
<path d="M577.651 341.688C558.381 324.088 557.281 296.188 561.471 271.818C562.171 267.748 562.301 263.378 564.761 260.068C567.221 256.758 572.151 254.928 575.621 257.158C578.501 259.008 579.361 262.728 580.681 265.888C582.463 270.108 585.394 273.743 589.141 276.378C591.591 278.088 594.741 279.378 597.541 278.298C601.381 276.848 602.461 272.038 602.991 267.968L605.991 245.218C606.521 241.148 607.071 236.998 608.881 233.318C610.691 229.638 614.011 226.438 618.081 225.898C622.151 225.358 626.681 228.248 626.971 232.338C627.081 234.038 626.511 235.708 626.391 237.418C626.271 239.128 626.821 241.098 628.391 241.788C629.961 242.478 631.781 241.568 633.171 240.548C637.981 237.028 641.591 232.138 645.011 227.248C648.431 222.358 651.771 217.338 656.241 213.388C660.711 209.438 666.531 206.628 672.471 207.108C678.411 207.588 684.211 212.048 684.921 217.968C685.631 223.888 681.451 229.248 677.131 233.388C670.707 239.527 663.428 244.704 655.521 248.758C654.101 249.488 652.521 250.278 651.861 251.758C650.591 254.348 652.861 257.398 655.411 258.658C658.351 260.088 661.721 260.228 664.881 261.048C668.041 261.868 671.331 263.738 672.131 266.898C673.251 271.288 669.131 275.158 665.281 277.528C657.545 282.298 649.049 285.708 640.161 287.608C636.981 288.288 633.661 288.808 630.931 290.608C628.201 292.408 626.231 295.818 627.311 298.888C628.391 301.958 632.061 303.388 635.311 303.248C638.561 303.108 641.641 301.788 644.811 301.078C650.761 299.748 658.021 301.138 660.981 306.468C662.981 309.968 662.541 314.418 660.811 318.028C659.081 321.638 656.201 324.568 653.201 327.218C642.691 336.478 629.921 343.338 616.201 346.028C602.481 348.718 590.121 348.258 577.721 341.758" fill="#EBEBEB"/>
<path d="M579.182 351.614C581.412 342.044 580.852 339.084 586.182 327.254C592.13 314.481 598.807 302.06 606.182 290.054L611.932 280.574C613.832 277.464 615.702 274.384 617.732 271.484C621.637 265.922 625.847 260.581 630.342 255.484C634.612 250.584 638.832 246.094 642.822 241.914C646.812 237.734 650.612 233.914 654.222 230.594C659.898 225.302 665.984 220.467 672.422 216.134C674.702 214.604 676.502 213.464 677.732 212.714L679.142 211.864C679.462 211.674 679.632 211.594 679.632 211.594C679.632 211.594 679.482 211.714 679.182 211.914L677.802 212.814C676.592 213.604 674.802 214.814 672.562 216.334C666.19 220.737 660.157 225.611 654.512 230.914C650.932 234.264 647.162 238.094 643.192 242.274C639.222 246.454 635.022 250.964 630.782 255.864C626.305 260.96 622.115 266.302 618.232 271.864C616.232 274.754 614.352 277.814 612.462 280.924L606.712 290.404C599.351 302.387 592.674 314.777 586.712 327.514C581.332 339.314 581.872 342.214 579.592 351.744" fill="#E0E0E0"/>
<path d="M617.943 271.438C617.845 270.847 617.801 270.248 617.813 269.648C617.753 268.498 617.733 266.828 617.723 264.768C617.723 260.638 617.873 254.938 618.073 248.658C618.273 242.378 618.333 236.658 618.223 232.568C618.223 230.508 618.123 228.838 618.063 227.688C618.002 227.093 618.002 226.494 618.063 225.898C618.199 226.48 618.282 227.072 618.313 227.668C618.453 228.818 618.573 230.488 618.673 232.548C618.893 236.668 618.893 242.378 618.673 248.678C618.453 254.978 618.283 260.538 618.143 264.768C618.143 266.768 618.063 268.388 618.033 269.648C618.061 270.247 618.031 270.846 617.943 271.438Z" fill="#E0E0E0"/>
<path d="M672.282 268.954C672.096 268.981 671.908 268.981 671.722 268.954L670.132 268.874C668.762 268.794 666.772 268.674 664.312 268.614C659.392 268.454 652.582 268.474 645.082 268.824C637.582 269.174 630.792 269.824 625.912 270.424C623.462 270.704 621.492 270.994 620.122 271.184L618.552 271.394C618.192 271.394 618.002 271.454 617.992 271.394C618.165 271.32 618.346 271.269 618.532 271.244L620.082 270.914C621.442 270.654 623.402 270.304 625.852 269.964C630.732 269.244 637.522 268.544 645.052 268.174C652.582 267.804 659.392 267.874 664.322 268.174C666.792 268.294 668.782 268.474 670.152 268.634L671.732 268.824C671.921 268.841 672.106 268.885 672.282 268.954Z" fill="#E0E0E0"/>
<path d="M586.941 326.349C586.831 326.127 586.741 325.896 586.671 325.659C586.511 325.129 586.301 324.459 586.041 323.659C585.491 321.899 584.771 319.349 583.911 316.179C582.191 309.829 580.071 301.009 577.911 291.229C575.751 281.449 573.661 272.619 572.051 266.229C571.251 263.109 570.591 260.559 570.111 258.699C569.901 257.869 569.731 257.189 569.591 256.699C569.52 256.461 569.473 256.216 569.451 255.969C569.565 256.188 569.652 256.419 569.711 256.659L570.341 258.659C570.891 260.409 571.621 262.969 572.471 266.139C574.201 272.479 576.311 281.309 578.471 291.089C580.631 300.869 582.721 309.689 584.331 316.089C585.141 319.209 585.791 321.769 586.271 323.619C586.491 324.459 586.661 325.139 586.791 325.669C586.866 325.889 586.916 326.117 586.941 326.349Z" fill="#E0E0E0"/>
<path d="M660.351 313.643C660.115 313.728 659.87 313.785 659.621 313.813L657.481 314.193L649.611 315.513C642.971 316.663 633.811 318.363 623.701 320.273C613.591 322.183 604.421 323.803 597.751 324.843C594.421 325.363 591.751 325.763 589.851 326.003L587.691 326.273C587.442 326.298 587.191 326.298 586.941 326.273C587.181 326.187 587.429 326.127 587.681 326.093L589.811 325.713L597.681 324.363C604.321 323.213 613.481 321.513 623.591 319.613C633.701 317.713 642.871 316.073 649.591 315.033C652.921 314.513 655.591 314.113 657.491 313.873L659.651 313.613C659.885 313.591 660.121 313.601 660.351 313.643Z" fill="#E0E0E0"/>
<path d="M70.7422 232.352C70.7422 232.352 70.8422 232.432 71.0022 232.612L71.7422 233.402C72.3922 234.142 73.3222 235.172 74.5122 236.502L84.6722 247.942L118.342 285.512C131.522 300.172 143.402 313.512 151.912 323.212L161.912 334.762L164.622 337.922L165.312 338.752C165.392 338.843 165.466 338.94 165.532 339.042C165.532 339.042 165.442 338.962 165.272 338.782L164.542 337.992L161.762 334.892L151.632 323.512C143.052 313.852 131.142 300.572 117.952 285.912C104.762 271.252 92.9522 257.912 84.4022 248.212L74.4022 236.672C73.2422 235.312 72.3322 234.252 71.7022 233.502L71.0022 232.672C70.9072 232.572 70.8202 232.465 70.7422 232.352Z" fill="#E0E0E0"/>
<path d="M109.173 251.32C109.316 252.518 109.376 253.724 109.353 254.93C109.423 257.3 109.523 260.3 109.623 263.63C109.723 266.96 109.823 270.11 109.813 272.34C109.813 273.46 109.813 274.34 109.743 274.99C109.758 275.328 109.718 275.666 109.623 275.99C109.499 274.794 109.439 273.593 109.443 272.39C109.353 270.02 109.233 267.01 109.103 263.69C108.973 260.37 108.953 257.2 108.983 254.97C108.983 253.86 108.983 252.97 109.063 252.33C109.058 251.99 109.095 251.651 109.173 251.32Z" fill="#E0E0E0"/>
<path d="M108.492 276.509C108.492 276.649 102.132 276.679 94.292 276.569C86.452 276.459 80.082 276.249 80.082 276.099C80.082 275.949 86.452 275.929 94.292 276.039C102.132 276.149 108.502 276.359 108.492 276.509Z" fill="#E0E0E0"/>
<path d="M132.963 301.273C132.68 301.447 132.373 301.579 132.053 301.663C131.453 301.893 130.583 302.183 129.493 302.523C127.323 303.213 124.293 304.083 120.903 304.863C117.513 305.643 114.403 306.213 112.153 306.553C111.023 306.723 110.153 306.833 109.473 306.903C109.144 306.972 108.807 306.988 108.473 306.953C109.659 306.624 110.865 306.367 112.083 306.183C114.313 305.753 117.393 305.183 120.773 304.353C124.153 303.523 127.183 302.763 129.383 302.173C130.556 301.8 131.752 301.499 132.963 301.273Z" fill="#E0E0E0"/>
<path d="M138.592 278.633C138.447 279.762 138.216 280.879 137.902 281.973C137.422 283.973 136.712 286.833 135.902 289.973C135.092 293.113 134.332 295.883 133.752 297.903C133.503 299.01 133.169 300.097 132.752 301.153C132.889 300.023 133.116 298.906 133.432 297.813C133.922 295.813 134.632 292.953 135.432 289.813C136.232 286.673 137.012 283.903 137.592 281.883C137.841 280.775 138.175 279.689 138.592 278.633Z" fill="#E0E0E0"/>
<path d="M162.973 297.742C162.946 298.136 162.876 298.525 162.763 298.902C162.553 299.742 162.303 300.782 162.003 302.002C161.343 304.622 160.393 308.222 159.313 312.192C158.233 316.162 157.223 319.742 156.463 322.332C156.103 323.542 155.793 324.562 155.553 325.392C155.458 325.773 155.32 326.142 155.143 326.492C155.17 326.099 155.24 325.71 155.353 325.332C155.563 324.492 155.813 323.462 156.113 322.232C156.773 319.622 157.723 316.022 158.803 312.052C159.883 308.082 160.893 304.492 161.643 301.912C162.013 300.702 162.313 299.682 162.563 298.852C162.656 298.468 162.794 298.095 162.973 297.742Z" fill="#E0E0E0"/>
<path d="M155.131 325.75C154.753 325.929 154.357 326.069 153.951 326.17C153.181 326.41 152.051 326.73 150.651 327.1C147.861 327.85 143.981 328.8 139.651 329.68C135.321 330.56 131.391 331.21 128.521 331.61C127.091 331.81 125.931 331.95 125.131 332.03C124.716 332.108 124.293 332.135 123.871 332.11C124.27 331.973 124.682 331.879 125.101 331.83L128.471 331.24C131.311 330.75 135.231 330.05 139.551 329.17C143.871 328.29 147.741 327.4 150.551 326.75L153.881 325.97C154.288 325.85 154.708 325.776 155.131 325.75Z" fill="#E0E0E0"/>
<path d="M106.172 242.135C106.677 242.09 107.162 241.918 107.582 241.635C108.076 241.277 108.43 240.757 108.582 240.165C108.665 239.781 108.695 239.387 108.672 238.995C108.672 238.575 108.672 238.125 108.672 237.645C108.672 233.785 108.762 228.245 108.822 221.415C108.822 219.702 108.842 217.912 108.882 216.045C108.882 215.105 108.882 214.155 108.882 213.185C108.923 212.713 108.923 212.238 108.882 211.765C108.791 211.313 108.572 210.897 108.252 210.565C107.93 210.228 107.51 210 107.052 209.915C106.549 209.879 106.045 209.879 105.542 209.915H102.382H95.7619H66.3019C65.71 209.928 65.144 210.16 64.7135 210.567C64.2831 210.973 64.0188 211.525 63.9719 212.115L63.9119 215.935C63.9119 218.485 63.8319 220.935 63.7919 223.455C63.7219 228.385 63.6519 233.135 63.5819 237.665V239.355C63.5459 239.867 63.6718 240.378 63.9419 240.815C64.1996 241.245 64.5939 241.576 65.0619 241.755C65.5532 241.907 66.0696 241.961 66.5819 241.915H72.8219H84.0319L100.252 241.995L104.662 242.045H105.812H106.202C106.072 242.058 105.942 242.058 105.812 242.045H104.662H100.252L84.0319 242.135H72.8219H66.5519C65.9862 242.185 65.416 242.128 64.8719 241.965C64.308 241.746 63.8307 241.349 63.5119 240.835C63.1944 240.32 63.0441 239.719 63.0819 239.115C63.0819 238.555 63.0819 237.995 63.0819 237.425C63.1419 232.895 63.2019 228.145 63.2619 223.215C63.2619 220.755 63.3319 218.215 63.3719 215.695C63.3719 214.415 63.3719 213.135 63.4319 211.835C63.5446 211.158 63.892 210.543 64.4132 210.097C64.9343 209.651 65.5959 209.402 66.2819 209.395H95.7419H105.532C106.063 209.381 106.594 209.401 107.122 209.455C107.669 209.557 108.17 209.83 108.552 210.235C108.926 210.626 109.183 211.115 109.292 211.645C109.336 212.147 109.336 212.653 109.292 213.155C109.292 214.155 109.292 215.085 109.292 216.015C109.292 217.885 109.232 219.685 109.202 221.395C109.062 228.225 108.962 233.755 108.882 237.615C108.882 238.095 108.882 238.545 108.882 238.975C108.894 239.379 108.854 239.782 108.762 240.175C108.581 240.793 108.192 241.33 107.662 241.695C107.338 241.911 106.968 242.048 106.582 242.095C106.449 242.133 106.31 242.147 106.172 242.135Z" fill="#455A64"/>
<path d="M90.1958 226.463L97.8899 214.758C98.2842 214.138 98.1253 213.318 97.528 212.891C96.9308 212.464 96.1037 212.578 95.6446 213.151L86.9923 224.323M80.5091 228.924C77.7752 228.272 75.2653 227.001 74.5622 224.649C74.2923 223.747 73.4657 223.127 72.5242 223.119C72.0089 223.119 71.5187 223.341 71.1802 223.73C70.8417 224.119 70.6882 224.635 70.7592 225.145C71.4983 230.896 75.8679 235.51 81.5698 236.561C83.0118 236.878 84.5053 236.318 85.3834 235.131M81.2945 231.419C81.0214 231.535 80.8511 231.811 80.869 232.108C80.8869 232.404 81.0892 232.657 81.3743 232.74C86.0604 234.088 89.675 231.052 90.3293 228.71C90.8423 226.871 89.7679 224.965 87.9295 224.451C86.0911 223.938 84.1845 225.012 83.6709 226.851C83.069 229.005 83.3574 230.544 81.2945 231.419Z" stroke="#DE8431" stroke-width="0.837754" stroke-linecap="round" stroke-linejoin="round"/>
<path d="M593.757 125.385L591.692 129.255C591.264 130.052 591.184 130.99 591.47 131.848C591.755 132.707 592.382 133.409 593.202 133.791C594.407 134.351 595.83 134.132 596.81 133.235L601.397 129.039C602.806 127.751 603.791 126.066 604.222 124.206L605.47 118.812L610.13 118.099M608.699 108.762L598.18 110.385C588.469 112.152 580.796 119.623 578.77 129.282M602.964 127.182L605.677 144.235L574.221 149.082L569.889 146.038L567.572 131.013L592.83 127.121M554.972 135.038L589.139 160.082" stroke="#DE8431" stroke-width="1.84911" stroke-linecap="round" stroke-linejoin="round"/>
<path d="M389.718 91.8973L333.879 97.1953L337.45 134.836L393.29 129.538L389.718 91.8973Z" fill="white"/>
<path d="M265.581 136.824C265.473 135.606 265.283 134.396 265.011 133.204C264.656 131.82 264.093 130.498 263.341 129.284C262.369 127.664 261.092 126.248 259.581 125.114C257.622 123.631 255.321 122.664 252.89 122.302C250.46 121.94 247.977 122.195 245.671 123.044C242.953 124.045 240.589 125.822 238.871 128.154C237.02 130.662 236.021 133.697 236.021 136.814C236.021 139.931 237.02 142.966 238.871 145.474C240.584 147.813 242.95 149.594 245.671 150.594C248.883 151.766 252.402 151.785 255.626 150.646C258.85 149.508 261.578 147.283 263.341 144.354C264.093 143.139 264.656 141.818 265.011 140.434C265.281 139.245 265.472 138.039 265.581 136.824C265.592 136.903 265.592 136.984 265.581 137.064V137.774C265.581 138.159 265.551 138.543 265.491 138.924C265.436 139.45 265.342 139.971 265.211 140.484C264.879 141.891 264.337 143.239 263.601 144.484C261.83 147.521 259.049 149.84 255.742 151.035C252.436 152.231 248.815 152.227 245.511 151.024C244.135 150.56 242.84 149.886 241.671 149.024C240.435 148.133 239.352 147.049 238.461 145.814C236.539 143.22 235.502 140.077 235.502 136.849C235.502 133.621 236.539 130.478 238.461 127.884C239.352 126.648 240.435 125.564 241.671 124.674C242.84 123.812 244.135 123.137 245.511 122.674C247.888 121.811 250.444 121.563 252.943 121.953C255.441 122.343 257.8 123.358 259.801 124.904C261.333 126.08 262.62 127.544 263.591 129.214C264.334 130.456 264.88 131.805 265.211 133.214C265.342 133.726 265.436 134.248 265.491 134.774C265.551 135.154 265.581 135.539 265.581 135.924V136.634C265.587 136.697 265.587 136.761 265.581 136.824Z" fill="#263238"/>
<path d="M285.613 161.701C285.533 161.821 280.253 158.421 273.833 154.111C267.413 149.801 262.263 146.201 262.343 146.111C262.423 146.021 267.693 149.391 274.123 153.711C280.553 158.031 285.693 161.581 285.613 161.701Z" fill="#263238"/>
<path d="M329.813 189.203L318.133 176.633L321.913 173.123L329.983 181.793L346.913 165.133L350.533 168.813L329.813 189.203Z" fill="#FF725E"/>
<path d="M657.49 177.178H658.05H658.75L659.75 177.308C661.884 177.655 663.897 178.535 665.6 179.868C668.33 182.019 670.096 185.166 670.51 188.618C670.61 189.618 670.61 190.668 670.61 191.728C670.61 192.788 670.61 193.898 670.61 195.038C670.61 197.308 670.61 199.718 670.61 202.238C670.61 204.758 670.61 207.428 670.61 210.238C670.61 211.618 670.61 213.038 670.61 214.478C670.68 215.968 670.532 217.46 670.17 218.908C669.559 221.246 668.314 223.371 666.572 225.047C664.831 226.723 662.66 227.886 660.3 228.408C658.65 228.692 656.973 228.796 655.3 228.718H610.66L610.84 228.648L600.77 238.718L600.32 239.168V228.508L600.58 228.768C599.475 228.807 598.369 228.767 597.27 228.648C596.169 228.507 595.091 228.228 594.06 227.818C592.031 227.001 590.237 225.693 588.84 224.01C587.444 222.327 586.488 220.322 586.06 218.178C585.874 217.131 585.787 216.07 585.8 215.008V211.898C585.8 207.778 585.8 203.718 585.8 199.758V193.878C585.74 191.952 585.8 190.025 585.98 188.108C586.28 186.223 586.983 184.426 588.04 182.838C589.059 181.325 590.38 180.039 591.921 179.061C593.461 178.084 595.187 177.436 596.99 177.158C598.702 176.996 600.422 176.942 602.14 176.998H620.78L647.7 177.088L620.78 177.178H602.14C600.445 177.124 598.748 177.181 597.06 177.348C594.395 177.751 591.929 178.995 590.02 180.898C588.111 182.801 586.861 185.264 586.45 187.928C586.275 189.822 586.222 191.726 586.29 193.628V199.508C586.29 203.508 586.29 207.508 586.29 211.648C586.202 213.711 586.286 215.778 586.54 217.828C586.972 219.869 587.884 221.779 589.2 223.398C591.246 225.872 594.155 227.477 597.34 227.888C598.416 228 599.499 228.037 600.58 227.998H600.84V238.508L600.4 238.318L610.48 228.248L610.55 228.178H610.66H655.3C656.956 228.261 658.616 228.16 660.25 227.878C661.819 227.539 663.309 226.904 664.64 226.008C667.195 224.281 669.039 221.688 669.83 218.708C670.177 217.336 670.329 215.922 670.28 214.508C670.28 213.068 670.28 211.648 670.28 210.268C670.28 207.498 670.28 204.838 670.28 202.268C670.28 199.698 670.28 197.338 670.28 195.068C670.28 193.928 670.28 192.828 670.28 191.758C670.28 190.688 670.28 189.658 670.21 188.678C669.822 185.284 668.107 182.181 665.44 180.048C663.772 178.71 661.795 177.812 659.69 177.438L658.74 177.278H658.05L657.49 177.178Z" fill="#263238"/>
<path d="M617.831 204.505C617.831 204.505 617.771 204.255 617.641 203.825C617.454 203.237 617.082 202.726 616.581 202.365C616.22 202.108 615.802 201.943 615.362 201.885C614.923 201.828 614.476 201.879 614.061 202.035C613.555 202.221 613.117 202.557 612.809 202.999C612.5 203.44 612.334 203.966 612.334 204.505C612.334 205.044 612.5 205.57 612.809 206.012C613.117 206.454 613.555 206.79 614.061 206.975C614.476 207.132 614.923 207.183 615.362 207.125C615.802 207.068 616.22 206.903 616.581 206.645C617.082 206.285 617.454 205.773 617.641 205.185C617.771 204.765 617.781 204.505 617.831 204.505C617.896 204.744 617.896 204.996 617.831 205.235C617.718 205.906 617.362 206.511 616.831 206.935C616.43 207.263 615.951 207.481 615.442 207.568C614.932 207.656 614.408 207.61 613.921 207.435C613.315 207.223 612.79 206.827 612.419 206.303C612.047 205.779 611.848 205.153 611.848 204.51C611.848 203.868 612.047 203.242 612.419 202.718C612.79 202.194 613.315 201.798 613.921 201.585C614.407 201.409 614.93 201.362 615.44 201.448C615.95 201.534 616.429 201.75 616.831 202.075C617.364 202.503 617.72 203.112 617.831 203.785C617.895 204.021 617.895 204.27 617.831 204.505Z" fill="#263238"/>
<path d="M631.081 204.412C631.007 204.192 630.947 203.968 630.901 203.742C630.713 203.151 630.342 202.636 629.841 202.272C629.479 202.013 629.058 201.848 628.617 201.79C628.176 201.733 627.727 201.785 627.311 201.942C626.81 202.133 626.379 202.473 626.075 202.915C625.771 203.356 625.608 203.88 625.608 204.417C625.608 204.953 625.771 205.477 626.075 205.919C626.379 206.361 626.81 206.7 627.311 206.892C627.728 207.045 628.177 207.094 628.618 207.034C629.059 206.975 629.478 206.809 629.841 206.552C630.339 206.189 630.71 205.678 630.901 205.092C630.948 204.862 631.008 204.635 631.081 204.412C631.081 204.412 631.171 204.672 631.081 205.142C630.96 205.809 630.606 206.412 630.081 206.842C629.68 207.169 629.201 207.387 628.692 207.474C628.182 207.562 627.658 207.516 627.171 207.342C626.565 207.129 626.04 206.733 625.669 206.209C625.297 205.685 625.098 205.059 625.098 204.417C625.098 203.774 625.297 203.148 625.669 202.624C626.04 202.1 626.565 201.704 627.171 201.492C627.657 201.316 628.18 201.268 628.69 201.354C629.2 201.44 629.679 201.656 630.081 201.982C630.607 202.415 630.961 203.021 631.081 203.692C631.171 204.152 631.111 204.412 631.081 204.412Z" fill="#263238"/>
<path d="M644.341 204.412C644.266 204.192 644.203 203.968 644.151 203.742C643.981 203.158 643.631 202.644 643.151 202.272C642.788 202.013 642.368 201.848 641.927 201.79C641.486 201.733 641.037 201.785 640.621 201.942C640.12 202.133 639.689 202.473 639.384 202.915C639.08 203.356 638.918 203.88 638.918 204.417C638.918 204.953 639.08 205.477 639.384 205.919C639.689 206.361 640.12 206.7 640.621 206.892C641.038 207.045 641.487 207.094 641.928 207.034C642.368 206.975 642.788 206.809 643.151 206.552C643.628 206.181 643.977 205.671 644.151 205.092C644.291 204.672 644.301 204.412 644.341 204.412C644.381 204.412 644.431 204.672 644.341 205.142C644.22 205.809 643.866 206.412 643.341 206.842C642.94 207.169 642.461 207.387 641.951 207.474C641.441 207.562 640.918 207.516 640.431 207.342C639.825 207.129 639.3 206.733 638.928 206.209C638.557 205.685 638.357 205.059 638.357 204.417C638.357 203.774 638.557 203.148 638.928 202.624C639.3 202.1 639.825 201.704 640.431 201.492C640.917 201.316 641.44 201.268 641.95 201.354C642.46 201.44 642.939 201.656 643.341 201.982C643.866 202.415 644.221 203.021 644.341 203.692C644.431 204.152 644.371 204.412 644.341 204.412Z" fill="#263238"/>
<path d="M136.64 142.134H148.598M160.141 115.852V120.232M162.331 118.042H157.95M168.902 135.564H165.178C163.606 135.564 162.331 136.838 162.331 138.411C162.329 139.369 162.806 140.264 163.601 140.798L167.631 143.47C168.427 144.004 168.903 144.9 168.902 145.858C168.902 147.43 167.627 148.705 166.054 148.705H162.331M166.711 135.564V133.373M164.521 150.895V148.705M127.287 118.042H123.564C121.992 118.042 120.717 119.317 120.717 120.889C120.715 121.847 121.192 122.743 121.987 123.276L126.017 125.948C126.813 126.482 127.289 127.378 127.287 128.336C127.287 129.908 126.013 131.183 124.44 131.183H120.717M125.097 118.042V115.852M122.907 133.373V131.183M138.239 147.61C135.085 136.659 130.573 125.708 142.619 115.852C154.665 125.708 150.153 136.659 146.999 147.61M138.239 147.61H146.999M138.239 147.61L133.376 150.829C133.031 151.058 132.582 151.058 132.237 150.829C131.875 150.615 131.657 150.221 131.668 149.8V146.208C131.71 144.53 132.634 142.998 134.099 142.178L136.289 141.039M146.999 147.61L151.862 150.829C152.207 151.058 152.656 151.058 153.001 150.829C153.363 150.615 153.581 150.221 153.57 149.8L153.57 146.208C153.567 144.49 152.638 142.908 151.139 142.068L148.949 140.886M132.763 156.371C130.573 156.371 128.383 157.575 128.383 159.656C128.383 159.831 128.383 160.598 128.383 160.751H127.287C125.824 160.715 124.41 161.28 123.376 162.315C122.341 163.349 121.775 164.763 121.812 166.227M151.38 156.371C153.461 156.371 155.76 157.575 155.76 159.656C155.76 159.831 155.76 160.598 155.76 160.751H156.855C158.318 160.715 159.732 161.28 160.767 162.315C161.802 163.349 162.367 164.763 162.331 166.227M146.999 157.181C146.999 161.036 142.619 164.036 142.619 164.036C142.619 164.036 138.239 161.036 138.239 157.181C138.137 156.015 138.577 154.867 139.432 154.068C140.287 153.268 141.462 152.906 142.619 153.085C143.776 152.906 144.951 153.268 145.805 154.068C146.66 154.867 147.101 156.015 146.999 157.181ZM139.334 128.993C139.334 130.807 140.805 132.278 142.619 132.278C144.433 132.278 145.904 130.807 145.904 128.993C145.904 127.178 144.433 125.708 142.619 125.708C140.805 125.708 139.334 127.178 139.334 128.993Z" stroke="#DE8431" stroke-width="1.75727" stroke-linecap="round" stroke-linejoin="round"/>
<path d="M187.52 165.391C187.52 165.391 187.52 165.501 187.65 165.721C187.78 165.941 187.83 166.271 187.98 166.721L189.22 170.501C190.31 173.831 191.9 178.721 193.94 184.991L194 185.191H193.8L173.64 181.501H173.51V181.361L173.78 181.491C164.978 188.068 154.268 191.586 143.28 191.511C140.793 191.471 138.31 191.264 135.85 190.891C133.303 190.508 130.787 189.944 128.32 189.201L124.59 187.841C123.958 187.621 123.343 187.353 122.75 187.041L120.93 186.171C115.948 183.663 111.403 180.368 107.47 176.411C103.349 172.233 100 167.358 97.5804 162.011C93.9786 154.178 92.447 145.551 93.1319 136.957C93.8169 128.363 96.6956 120.088 101.493 112.924C106.29 105.76 112.845 99.9466 120.53 96.04C128.216 92.1334 136.776 90.2642 145.39 90.6111C157.878 91.0583 169.75 96.1408 178.693 104.867C187.636 113.594 193.008 125.339 193.76 137.811C194.142 142.978 193.679 148.173 192.39 153.191C191.595 156.361 190.483 159.444 189.07 162.391C188.58 163.391 188.19 164.161 187.91 164.641L187.48 165.401L187.86 164.641C188.13 164.111 188.51 163.351 188.98 162.341C190.35 159.386 191.429 156.305 192.2 153.141C193.445 148.139 193.874 142.97 193.47 137.831C192.992 130.282 190.806 122.94 187.078 116.357C183.351 109.775 178.178 104.125 171.95 99.8311C163.685 94.1601 153.912 91.0908 143.888 91.0178C133.864 90.9447 124.048 93.8712 115.7 99.4211C105.835 106.031 98.6452 115.937 95.4168 127.365C92.1884 138.792 93.1326 150.996 98.0804 161.791C100.475 167.086 103.786 171.917 107.86 176.061C111.752 179.979 116.25 183.244 121.18 185.731L122.99 186.601C123.574 186.917 124.183 187.184 124.81 187.401L128.49 188.751C130.937 189.493 133.433 190.058 135.96 190.441C138.397 190.812 140.856 191.023 143.32 191.071C154.218 191.143 164.84 187.652 173.57 181.131L173.84 180.931V181.271L173.71 181.101L193.84 184.881L193.7 185.041L189.1 170.511L187.91 166.711C187.78 166.291 187.69 165.961 187.62 165.711C187.55 165.461 187.52 165.371 187.52 165.371V165.391Z" fill="#263238"/>
<path d="M481.906 98.482C469.241 98.7535 459.113 109.092 459.102 121.76C458.999 135.022 469.604 145.889 482.865 146.109C496.069 146.103 506.768 135.393 506.761 122.189C506.771 115.877 504.262 109.822 499.79 105.368C495.318 100.913 489.254 98.427 482.942 98.4613C482.594 98.4613 482.25 98.4675 481.906 98.482ZM481.906 98.482C469.473 111.951 469.473 129.522 481.906 146.099M483.978 98.482C496.411 111.951 496.411 129.516 483.978 146.093M463.01 108.809H502.658M459.109 121.242H506.761M462.179 133.675H503.829" stroke="#DE8431" stroke-width="1.66215" stroke-linecap="round" stroke-linejoin="round"/>
<path d="M455.851 164.368L455.511 164.458L454.511 164.698L450.631 165.608L435.771 169.008L435.571 169.058L435.631 168.858L441.091 149.118V148.978H441.281L441.121 149.238C436.608 141.981 434.023 133.693 433.611 125.158C433.5 122.77 433.553 120.378 433.771 117.998C434.034 115.525 434.462 113.073 435.051 110.658C435.656 108.154 436.442 105.698 437.401 103.308C437.961 102.118 438.521 100.918 439.091 99.7178C439.378 99.106 439.712 98.5176 440.091 97.9578C440.431 97.3778 440.771 96.7978 441.091 96.2178C444.032 91.4806 447.716 87.2466 452.001 83.6778C456.528 79.9443 461.681 77.0428 467.221 75.1078C475.346 72.2141 484.078 71.4547 492.581 72.902C501.084 74.3494 509.073 77.9551 515.784 83.3741C522.494 88.793 527.701 95.8438 530.907 103.851C534.112 111.859 535.208 120.555 534.091 129.108C532.539 141.508 526.423 152.886 516.937 161.021C507.45 169.156 495.273 173.466 482.781 173.108C477.599 173.028 472.466 172.106 467.581 170.378C464.498 169.301 461.53 167.921 458.721 166.258C457.721 165.678 457.031 165.258 456.581 164.898L455.861 164.398L456.581 164.848C457.081 165.158 457.811 165.608 458.771 166.168C461.596 167.781 464.57 169.121 467.651 170.168C472.523 171.852 477.635 172.74 482.791 172.798C491.566 172.991 500.238 170.876 507.939 166.664C515.639 162.451 522.098 156.29 526.669 148.796C531.239 141.302 533.76 132.739 533.98 123.964C534.199 115.189 532.11 106.511 527.921 98.7978C522.229 88.3708 513.011 80.3109 501.918 76.0616C490.825 71.8124 478.582 71.6515 467.381 75.6078C461.889 77.5215 456.777 80.3888 452.281 84.0778C448.038 87.6154 444.391 91.8123 441.481 96.5078C441.141 97.0778 440.801 97.6578 440.481 98.2278C440.125 98.7857 439.808 99.367 439.531 99.9678L437.831 103.508C436.872 105.877 436.09 108.313 435.491 110.798C434.9 113.19 434.469 115.618 434.201 118.068C433.98 120.431 433.923 122.807 434.031 125.178C434.418 133.646 436.958 141.875 441.411 149.088L441.591 149.378H441.251L441.431 149.258C439.281 156.868 437.431 163.528 435.871 168.978L435.731 168.818L450.611 165.508L454.501 164.668L455.501 164.458C455.616 164.431 455.733 164.411 455.851 164.398V164.368Z" fill="#263238"/>
<path d="M497.98 188.413C493.09 189.553 489.98 194.503 488.91 199.413C487.84 204.323 488.38 209.413 487.91 214.413C487.44 219.413 485.69 224.723 481.48 227.413L485.67 228.633C484.842 231.256 483.095 233.493 480.75 234.933C482.388 236.199 484.4 236.885 486.47 236.883C484.01 237.533 483.33 241.053 484.69 243.203C486.05 245.353 488.64 246.373 491.11 247.003C493.999 247.89 497.073 247.983 500.01 247.273C504.01 246.063 507.09 242.503 508.64 238.563C510.19 234.623 510.48 230.323 510.64 226.093C510.94 215.503 510.32 204.803 507.64 194.553C506.98 192.073 506.08 189.443 503.97 187.983C501.86 186.523 498.26 187.113 497.62 189.593" fill="#FF725E"/>
<path d="M608.511 341.272C607.351 336.852 600.591 311.952 594.511 295.692C587.801 277.642 573.961 273.912 573.961 273.912C542.811 263.282 514.821 263.222 484.961 273.582C483.961 273.882 483.071 274.202 482.181 274.582H482.091C459.921 283.282 457.631 306.702 457.631 306.702L448.281 363.512C448.183 363.961 448.11 364.415 448.061 364.872L447.971 365.412C447.812 368.067 448.454 370.709 449.812 372.996C451.17 375.283 453.183 377.111 455.591 378.242C468.591 384.242 481.031 382.812 491.711 378.402L483.951 389.702H576.341L570.281 374.792L572.281 365.792L586.591 383.012C588.305 385.073 590.602 386.568 593.181 387.302C609.681 389.222 612.351 364.652 609.251 350.352" fill="#455A64"/>
<path d="M549.981 267.718C549.981 267.718 535.071 342.718 529.821 342.138C524.571 341.558 499.941 269.138 499.941 269.138C499.941 269.138 531.421 260.738 549.981 267.718Z" fill="#FFBE9D"/>
<path d="M507.7 273.252C507.62 264.622 507.38 255.532 507.38 255.532C507.38 255.532 496.25 253.762 493.85 239.262C491.57 225.442 493.66 193.472 493.66 193.472C501.533 190.256 510.201 189.524 518.501 191.374C526.802 193.224 534.338 197.567 540.1 203.822L539.59 273.942C539.53 282.082 532.48 288.512 523.77 288.382C514.96 288.252 507.77 281.512 507.7 273.252Z" fill="#FFBE9D"/>
<path d="M497.352 217.664C497.349 218.148 497.535 218.615 497.871 218.965C498.208 219.314 498.667 219.518 499.152 219.534C499.389 219.551 499.627 219.521 499.852 219.445C500.077 219.369 500.285 219.249 500.463 219.092C500.641 218.934 500.786 218.743 500.889 218.528C500.991 218.314 501.05 218.081 501.062 217.844C501.064 217.359 500.878 216.892 500.542 216.543C500.205 216.193 499.746 215.989 499.262 215.974C499.025 215.956 498.786 215.986 498.561 216.062C498.336 216.138 498.128 216.258 497.95 216.416C497.772 216.573 497.627 216.765 497.525 216.979C497.422 217.193 497.363 217.426 497.352 217.664Z" fill="#263238"/>
<path d="M494.902 216.338C495.132 216.578 496.532 215.528 498.532 215.518C500.532 215.508 502.012 216.518 502.232 216.258C502.452 215.998 502.092 215.718 501.452 215.258C500.569 214.656 499.52 214.345 498.452 214.368C497.408 214.392 496.397 214.741 495.562 215.368C494.992 215.788 494.782 216.228 494.902 216.338Z" fill="#263238"/>
<path d="M517.602 218.63C517.599 219.115 517.785 219.582 518.121 219.931C518.458 220.281 518.917 220.485 519.402 220.5C519.636 220.514 519.871 220.481 520.093 220.403C520.315 220.325 520.519 220.204 520.694 220.047C520.868 219.89 521.01 219.7 521.111 219.488C521.212 219.275 521.27 219.045 521.282 218.81C521.284 218.326 521.098 217.859 520.762 217.51C520.425 217.16 519.966 216.956 519.482 216.94C519.247 216.927 519.012 216.96 518.79 217.038C518.568 217.116 518.364 217.237 518.189 217.394C518.015 217.551 517.873 217.741 517.772 217.953C517.671 218.166 517.613 218.396 517.602 218.63Z" fill="#263238"/>
<path d="M515.792 216.94C516.032 217.18 517.432 216.13 519.432 216.12C521.432 216.11 522.912 217.12 523.122 216.86C523.332 216.6 522.992 216.32 522.352 215.86C521.469 215.258 520.42 214.946 519.352 214.97C518.306 214.985 517.293 215.336 516.462 215.97C515.892 216.39 515.682 216.83 515.792 216.94Z" fill="#263238"/>
<path d="M508.622 231.832C507.562 231.512 506.467 231.323 505.362 231.272C504.852 231.272 504.362 231.122 504.282 230.772C504.233 230.243 504.348 229.713 504.612 229.252L506.102 225.352C508.162 219.792 509.662 215.232 509.432 215.142C509.202 215.052 507.352 219.502 505.282 225.062C504.792 226.432 504.282 227.732 503.862 228.982C503.545 229.598 503.457 230.307 503.612 230.982C503.685 231.162 503.799 231.322 503.945 231.45C504.091 231.579 504.264 231.672 504.452 231.722C504.736 231.796 505.028 231.836 505.322 231.842C506.418 231.979 507.526 231.975 508.622 231.832Z" fill="#263238"/>
<path d="M507.381 255.511C514.213 255.573 520.929 253.738 526.781 250.211C526.781 250.211 522.121 260.211 507.591 258.941L507.381 255.511Z" fill="#EB996E"/>
<path d="M509.491 236.652C509.872 236.173 510.368 235.798 510.932 235.56C511.496 235.323 512.111 235.23 512.721 235.292C513.162 235.331 513.592 235.458 513.983 235.666C514.375 235.873 514.721 236.158 515 236.502C515.27 236.835 515.432 237.243 515.462 237.67C515.492 238.098 515.391 238.524 515.171 238.892C514.851 239.253 514.43 239.51 513.963 239.629C513.496 239.749 513.004 239.725 512.551 239.562C511.605 239.234 510.735 238.721 509.991 238.052C509.761 237.894 509.564 237.694 509.411 237.462C509.335 237.353 509.295 237.224 509.295 237.092C509.295 236.96 509.335 236.831 509.411 236.722" fill="#EB996E"/>
<path d="M514.522 233.18C514.192 233.18 514.202 235.34 512.352 236.89C510.502 238.44 508.182 238.22 508.172 238.52C508.172 238.66 508.692 238.94 509.672 238.96C510.945 238.97 512.181 238.531 513.162 237.72C514.107 236.944 514.708 235.826 514.832 234.61C514.912 233.71 514.672 233.17 514.522 233.18Z" fill="#263238"/>
<path d="M532.281 192.131C527.111 199.791 513.191 207.831 503.161 209.811C504.311 208.241 510.431 204.321 511.571 202.761C507.071 206.241 500.571 210.911 494.571 211.331C493.861 211.441 493.134 211.341 492.481 211.041C492.135 210.776 491.855 210.434 491.664 210.041C491.473 209.649 491.376 209.218 491.381 208.781C490.969 204.404 491.033 199.995 491.571 195.631C491.99 191.943 493.804 188.555 496.641 186.161C500.471 183.091 506.001 182.261 511.231 182.041C515.611 181.861 520.131 182.041 524.171 183.551C528.211 185.061 531.691 188.131 532.341 191.871" fill="#FF725E"/>
<path d="M549.43 227.219C550.054 224.008 550.482 220.762 550.71 217.499C551.01 209.999 553.25 182.959 527.48 185.639L528.94 192.909C528.94 192.909 524.13 209.749 535.2 221.109C535.2 221.109 532.05 244.829 539.75 252.489C539.75 252.489 548.01 235.309 549.43 227.219Z" fill="#FF725E"/>
<path d="M534.871 219.855C536.423 219.518 538.038 219.611 539.541 220.125C541.051 220.659 542.288 221.77 542.981 223.215C543.593 224.693 543.618 226.349 543.051 227.845C542.48 229.331 541.585 230.67 540.431 231.765C539.655 232.606 538.692 233.253 537.621 233.655C537.084 233.844 536.509 233.899 535.946 233.815C535.383 233.731 534.849 233.512 534.391 233.175" fill="#FFBE9D"/>
<path d="M535.781 229.25C535.611 229.31 536.291 230.25 537.701 229.86C538.465 229.597 539.093 229.044 539.451 228.32C539.869 227.518 540.124 226.641 540.201 225.74C540.316 224.779 540.078 223.809 539.531 223.01C539.31 222.674 539.014 222.392 538.668 222.186C538.322 221.98 537.933 221.855 537.531 221.82C536.071 221.82 535.621 222.82 535.791 222.82C535.961 222.82 536.471 222.41 537.421 222.63C538.01 222.849 538.5 223.273 538.801 223.824C539.102 224.375 539.195 225.017 539.062 225.63C538.902 227.23 538.291 228.69 537.441 229.06C536.591 229.43 535.881 229.12 535.781 229.25Z" fill="#EB996E"/>
<path d="M484.031 343.099C483.891 343.099 483.771 337.209 483.771 329.939C483.771 322.669 483.891 316.789 484.031 316.789C484.171 316.789 484.292 322.679 484.292 329.939C484.292 337.199 484.171 343.099 484.031 343.099Z" fill="#263238"/>
<path d="M521.58 316.241C521.58 316.241 508.58 316.391 507.79 319.241C506.43 324.001 508.86 350.131 508.86 350.131L520.811 354.131C520.811 354.131 526.57 352.801 523.91 341.711C522.173 334.744 519.517 328.038 516.01 321.771C516.01 321.771 531.89 322.211 531.45 318.661C531.01 315.111 521.58 316.241 521.58 316.241Z" fill="#FFBE9D"/>
<path d="M516.422 323.954C517.132 323.814 533.002 322.504 532.012 325.044C531.022 327.584 516.422 328.214 516.422 328.214V323.954Z" fill="#FFBE9D"/>
<path d="M567.412 285.531L565.452 335.091L558.212 354.121L513.732 355.041L511.932 293.651L567.412 285.531Z" fill="#263238"/>
<path d="M506.76 333.711C506.592 333.826 506.411 333.92 506.22 333.991L504.62 334.711L498.69 337.241L479.07 345.431L468.28 349.881C465.304 350.997 462.416 352.334 459.64 353.881C457.78 354.935 456.138 356.333 454.8 358.001C453.88 359.201 453.55 360.001 453.5 360.001C453.552 359.8 453.633 359.609 453.74 359.431C453.988 358.898 454.29 358.393 454.64 357.921C455.932 356.174 457.565 354.708 459.44 353.611C462.212 352.012 465.108 350.637 468.1 349.501L478.91 345.021L498.59 336.971L504.59 334.591L506.23 333.971C506.395 333.863 506.573 333.775 506.76 333.711Z" fill="#263238"/>
<path d="M521.471 353.133C521.176 353.56 520.841 353.958 520.471 354.323C519.821 355.073 518.852 356.123 517.602 357.373C515.112 359.893 511.511 363.213 507.371 366.673C503.231 370.133 499.371 373.113 496.491 375.193C495.061 376.193 493.892 377.053 493.072 377.613C492.663 377.921 492.228 378.192 491.771 378.423C492.133 378.054 492.528 377.719 492.952 377.423L496.271 374.873C499.071 372.723 502.902 369.713 507.042 366.253C511.182 362.793 514.801 359.543 517.341 357.093C518.621 355.883 519.631 354.863 520.341 354.173C520.687 353.794 521.066 353.446 521.471 353.133Z" fill="#263238"/>
<path d="M588.46 384.849C588.35 384.949 581.83 377.469 573.89 368.149C565.95 358.829 559.6 351.209 559.71 351.149C559.82 351.089 566.34 358.509 574.28 367.809C582.22 377.109 588.57 384.759 588.46 384.849Z" fill="#263238"/>
<path d="M601.031 348.843C600.538 348.712 600.056 348.542 599.591 348.333C598.671 347.973 597.351 347.413 595.741 346.693C592.521 345.243 588.141 343.083 583.481 340.383C578.821 337.683 574.751 334.973 571.891 332.903C570.461 331.903 569.321 331.003 568.551 330.383C568.134 330.086 567.746 329.751 567.391 329.383C567.841 329.62 568.27 329.898 568.671 330.213C569.561 330.823 570.721 331.623 572.101 332.593C575.011 334.593 579.101 337.233 583.741 339.923C588.381 342.613 592.741 344.823 595.901 346.343L599.671 348.133C600.144 348.328 600.599 348.566 601.031 348.843Z" fill="#263238"/>
<path d="M578.011 337.963C577.871 337.963 577.091 332.693 576.271 326.153C575.451 319.613 574.901 314.283 575.041 314.273C575.181 314.263 575.971 319.543 576.791 326.083C577.611 332.623 578.161 337.953 578.011 337.963Z" fill="#263238"/>
<path d="M540.391 229.158C540.276 229.381 540.139 229.592 539.981 229.788L538.711 231.488L534.101 237.488V237.168L541.611 243.068L542.281 243.608H541.921L548.421 235.468V235.768L543.531 231.768L542.191 230.638C542.024 230.509 541.873 230.361 541.741 230.198C541.741 230.198 541.941 230.298 542.271 230.538L543.681 231.538L548.681 235.378L548.851 235.508L548.711 235.678C546.861 238.058 544.661 240.858 542.291 243.878L542.131 244.088L541.921 243.928L541.281 243.508C538.571 241.348 536.021 239.308 533.811 237.558L533.631 237.408L533.771 237.238L538.531 231.378L539.891 229.748C540.191 229.328 540.371 229.138 540.391 229.158Z" fill="#263238"/>
<path d="M559.471 350.37C552.271 350.039 545.097 349.271 537.991 348.07C529.581 346.73 529.671 345.96 529.991 345C530.791 342.42 544.871 346.8 542.341 344.09C539.811 341.38 524.561 340.74 525.511 338.09C526.751 334.62 541.411 339.48 542.681 339.8C543.951 340.12 544.401 338.29 543.241 338.06C541.581 337.73 524.151 333.88 525.331 330.46C525.991 328.56 529.271 330.15 529.271 330.15C529.271 330.15 545.341 334.97 545.851 333.33C546.361 331.69 537.021 328.52 533.791 327.69C530.561 326.86 529.671 325 531.171 323.88C532.171 323.12 542.171 325.45 545.281 326.36C548.391 327.27 557.101 329.89 553.801 325.11L553.661 324.88C550.281 320.26 549.211 315.58 549.821 314.01C549.989 313.682 550.244 313.407 550.558 313.215C550.872 313.023 551.233 312.922 551.601 312.922C551.969 312.922 552.33 313.023 552.644 313.215C552.958 313.407 553.213 313.682 553.381 314.01C553.542 314.241 553.654 314.503 553.711 314.78C553.743 314.919 553.783 315.056 553.831 315.19C554.626 316.983 555.605 318.688 556.751 320.28C557.742 321.734 558.972 323.009 560.391 324.05C562.031 325.24 566.181 329.62 567.391 330.4" fill="#FFBE9D"/>
<path d="M261.87 291.419C257.366 291.336 253.067 289.525 249.861 286.361C246.656 283.197 244.79 278.921 244.65 274.419C244.41 266.629 244.23 259.119 244.23 259.119C244.23 259.119 229.92 257.789 228.87 243.629C227.82 229.469 228.27 196.779 228.27 196.779C236.114 192.82 244.872 191.027 253.641 191.584C262.409 192.141 270.87 195.029 278.15 199.949L280.35 201.439L279.74 274.039C279.718 276.356 279.237 278.646 278.325 280.777C277.413 282.908 276.088 284.837 274.427 286.453C272.765 288.069 270.8 289.339 268.645 290.192C266.49 291.044 264.187 291.461 261.87 291.419Z" fill="#B78876"/>
<path d="M243.88 234.886C243.88 234.726 242.66 234.556 240.68 234.406C240.16 234.406 239.76 234.296 239.68 234.026C239.636 233.513 239.733 232.998 239.96 232.536L241.28 228.506C243.06 222.726 244.28 217.966 243.97 217.876C243.66 217.786 241.97 222.396 240.21 228.176C239.79 229.586 239.39 230.936 239 232.266C238.708 232.942 238.655 233.697 238.85 234.406C238.936 234.596 239.065 234.763 239.226 234.895C239.387 235.026 239.577 235.119 239.78 235.166C240.069 235.223 240.365 235.243 240.66 235.226C242.64 235.146 243.87 235.036 243.88 234.886Z" fill="#263238"/>
<path d="M250.351 236.648C247.346 238.101 244.195 239.231 240.951 240.018C241.676 241.003 242.714 241.713 243.894 242.033C245.074 242.353 246.328 242.263 247.451 241.778C251.591 239.958 250.351 236.648 250.351 236.648Z" fill="white"/>
<path d="M244.201 258.898C250.752 258.618 257.07 256.394 262.351 252.508C262.351 252.508 258.611 262.978 244.351 262.568L244.201 258.898Z" fill="#A36957"/>
<path d="M279.561 218.927C279.557 218.381 279.762 217.854 280.134 217.454C280.505 217.055 281.016 216.812 281.561 216.777C284.211 216.707 288.561 217.777 288.941 225.047C289.521 235.477 279.491 232.877 279.461 232.577C279.431 232.277 279.531 222.977 279.561 218.927Z" fill="#B78876"/>
<path d="M281.801 228.503C281.801 228.503 281.981 228.623 282.301 228.743C282.737 228.917 283.224 228.917 283.661 228.743C284.741 228.273 285.571 226.473 285.511 224.593C285.493 223.698 285.27 222.819 284.861 222.023C284.747 221.702 284.556 221.414 284.305 221.184C284.054 220.954 283.75 220.789 283.421 220.703C283.208 220.658 282.986 220.69 282.795 220.793C282.603 220.895 282.453 221.061 282.371 221.263C282.251 221.563 282.371 221.763 282.271 221.783C282.171 221.803 282.041 221.623 282.101 221.183C282.146 220.924 282.276 220.688 282.471 220.513C282.608 220.396 282.767 220.307 282.939 220.252C283.11 220.197 283.291 220.177 283.471 220.193C283.906 220.252 284.318 220.422 284.668 220.686C285.019 220.951 285.295 221.301 285.471 221.703C285.961 222.558 286.239 223.518 286.281 224.503C286.331 226.603 285.361 228.633 283.881 229.153C283.606 229.249 283.313 229.282 283.024 229.249C282.735 229.216 282.457 229.118 282.211 228.963C281.831 228.723 281.761 228.503 281.801 228.503Z" fill="#A36957"/>
<path d="M232.709 220.765C232.743 221.266 232.971 221.734 233.344 222.071C233.718 222.407 234.207 222.584 234.709 222.565C234.955 222.567 235.198 222.521 235.425 222.427C235.652 222.334 235.858 222.196 236.031 222.022C236.203 221.847 236.339 221.64 236.43 221.412C236.521 221.184 236.565 220.94 236.559 220.695C236.531 220.191 236.305 219.718 235.931 219.379C235.557 219.04 235.064 218.863 234.559 218.885C234.314 218.883 234.07 218.931 233.843 219.025C233.616 219.12 233.41 219.259 233.237 219.434C233.065 219.609 232.929 219.817 232.839 220.046C232.748 220.274 232.704 220.519 232.709 220.765Z" fill="#263238"/>
<path d="M229.441 218.838C229.701 219.068 231.081 217.838 233.141 217.748C235.201 217.658 236.801 218.528 237.001 218.268C237.201 218.008 236.831 217.708 236.141 217.268C235.2 216.713 234.11 216.461 233.021 216.548C231.947 216.614 230.923 217.024 230.101 217.718C229.501 218.268 229.281 218.728 229.441 218.838Z" fill="#263238"/>
<path d="M253.279 220.403C253.31 220.905 253.537 221.375 253.911 221.712C254.285 222.048 254.777 222.225 255.279 222.203C255.525 222.205 255.769 222.159 255.997 222.066C256.224 221.972 256.431 221.835 256.604 221.66C256.778 221.486 256.914 221.279 257.006 221.051C257.098 220.823 257.143 220.579 257.139 220.333C257.106 219.831 256.878 219.363 256.505 219.027C256.131 218.691 255.641 218.513 255.139 218.533C254.894 218.531 254.651 218.579 254.424 218.672C254.197 218.766 253.991 218.904 253.818 219.078C253.645 219.252 253.508 219.459 253.415 219.686C253.323 219.914 253.277 220.157 253.279 220.403Z" fill="#263238"/>
<path d="M250.41 218.838C250.67 219.068 252.05 217.838 254.11 217.748C256.17 217.658 257.76 218.528 257.97 218.268C258.18 218.008 257.8 217.708 257.1 217.268C256.163 216.712 255.076 216.46 253.99 216.548C252.916 216.614 251.892 217.024 251.07 217.718C250.47 218.268 250.28 218.728 250.41 218.838Z" fill="#263238"/>
<path d="M264.08 191.868C263.144 194.075 262.869 196.507 263.288 198.868C263.707 201.229 264.802 203.417 266.44 205.168C267.83 206.608 269.59 207.708 270.8 209.318C273.3 212.648 272.89 217.228 273.29 221.368C273.47 223.288 273.92 225.368 275.29 226.638C276.66 227.908 279.34 228.038 280.29 226.388C280.557 225.865 280.733 225.3 280.81 224.718C281.683 220.098 282.55 215.481 283.41 210.868C284.06 207.398 284.72 203.868 284.12 200.368C283.77 198.332 282.997 196.392 281.852 194.673C280.707 192.954 279.215 191.494 277.471 190.386C275.728 189.278 273.772 188.548 271.729 188.242C269.686 187.935 267.602 188.06 265.61 188.608" fill="#263238"/>
<path d="M266.281 188.936C261.471 188.016 258.771 186.476 255.371 184.936C252.013 183.269 248.177 182.834 244.531 183.706C242.111 184.386 239.821 185.846 237.331 185.816C234.841 185.786 232.631 184.326 230.271 183.576C228.655 183.077 226.956 182.909 225.274 183.081C223.592 183.253 221.962 183.761 220.481 184.576C218.151 185.856 216.061 188.146 215.861 190.946C215.661 193.746 218.161 196.636 220.671 195.836C218.051 196.746 216.991 200.606 218.291 203.176C218.97 204.384 220.007 205.353 221.258 205.949C222.509 206.545 223.915 206.74 225.281 206.506C228.048 205.895 230.533 204.379 232.341 202.196C232.401 205.316 235.531 207.506 238.431 207.416C241.331 207.326 243.951 205.586 246.341 203.796C248.731 202.006 251.151 200.056 253.991 199.426C255.991 198.986 257.991 199.226 259.991 198.986C261.991 198.746 264.141 197.876 265.111 195.986C266.081 194.096 269.921 191.876 267.911 191.816" fill="#263238"/>
<path d="M237.78 204.288C238.126 204.497 238.483 204.687 238.85 204.858C239.892 205.204 241.018 205.204 242.06 204.858C242.784 204.647 243.476 204.341 244.12 203.948C244.82 203.528 245.53 202.948 246.29 202.438C247.081 201.836 247.92 201.301 248.8 200.838C249.773 200.34 250.847 200.07 251.94 200.048C254.17 200.048 256.18 200.608 258 200.448C258.801 200.399 259.582 200.175 260.287 199.791C260.992 199.408 261.604 198.874 262.08 198.228C262.754 197.359 263.176 196.321 263.3 195.228C263.38 194.448 263.3 194.008 263.35 194.008C263.4 194.008 263.4 194.108 263.44 194.318C263.492 194.622 263.512 194.93 263.5 195.238C263.455 196.392 263.065 197.507 262.38 198.438C261.92 199.096 261.331 199.654 260.65 200.078C259.862 200.56 258.971 200.848 258.05 200.918C256.11 201.108 254.05 200.518 251.96 200.558C249.87 200.598 248.07 201.748 246.57 202.818C245.8 203.358 245.08 203.888 244.34 204.308C243.656 204.708 242.919 205.007 242.15 205.198C241.039 205.536 239.846 205.483 238.77 205.048C238.485 204.914 238.222 204.739 237.99 204.528C237.843 204.381 237.773 204.301 237.78 204.288Z" fill="#263238"/>
<path d="M264.79 184C264.8 185.113 264.897 186.223 265.08 187.32C265.43 188.378 265.868 189.405 266.39 190.39C265.499 189.618 264.868 188.591 264.582 187.447C264.296 186.304 264.368 185.101 264.79 184Z" fill="#263238"/>
<path d="M270.121 183.773C270.231 183.883 268.941 185.103 267.981 187.023C267.021 188.943 266.751 190.683 266.601 190.653C266.492 189.3 266.81 187.946 267.511 186.783C268.054 185.538 268.965 184.487 270.121 183.773Z" fill="#263238"/>
<path d="M336.99 332.055L358.76 388.065H325.44L309.91 348.185L336.99 332.055Z" fill="#B78876"/>
<path d="M218.99 286.578C218.99 286.578 190.28 316.128 177.88 316.128C173.82 316.128 170.64 266.908 170.59 252.718C171.248 250.886 172.19 249.168 173.38 247.628C174.43 246.163 175.641 244.822 176.99 243.628C178.694 242.168 180.588 240.947 182.62 239.998C184.56 239.318 184.72 236.668 182.95 236.138C181.18 235.608 175.8 237.358 170.95 241.928C166.1 246.498 167.57 236.268 168.03 232.538C168.49 228.808 169.36 217.178 168.32 216.158C166.8 214.658 164.87 216.048 164.49 219.788C164.11 223.528 162.28 234.708 160.28 234.418C158.28 234.128 160.94 215.138 160.94 215.138C160.94 215.138 162.15 211.138 159.94 210.738C155.86 210.008 154.59 230.368 154.52 232.308C154.52 233.658 152.32 233.428 152.45 231.978C152.58 230.528 155.45 213.078 151.34 212.288C148.17 211.688 150.14 229.038 147.53 232.368C144.92 235.698 147.38 219.018 144.32 218.568C143.18 218.408 142.32 218.438 142.32 228.178C142.32 233.418 144.32 241.328 143.54 251.408C144.86 281.168 143.4 364.738 176.54 354.838C212.95 343.938 237.83 320.088 237.83 320.088L218.99 286.578Z" fill="#B78876"/>
<path d="M299.37 313.055C299.518 313.436 299.625 313.831 299.69 314.235C299.87 314.995 300.1 316.105 300.36 317.485C300.87 320.245 301.48 324.075 301.95 328.325C302.42 332.575 302.66 336.445 302.76 339.245C302.76 340.645 302.83 341.785 302.82 342.565C302.852 342.972 302.831 343.382 302.76 343.785C302.675 343.387 302.628 342.982 302.62 342.575C302.56 341.685 302.48 340.575 302.39 339.265C302.2 336.475 301.9 332.625 301.39 328.385C300.88 324.145 300.39 320.315 299.95 317.545C299.75 316.245 299.59 315.155 299.45 314.275C299.376 313.873 299.349 313.463 299.37 313.055Z" fill="#263238"/>
<path d="M214.13 388.063L305.85 388.523L302.76 369.163C303.57 359.976 303.526 350.733 302.63 341.553L307.28 354.143L345.19 335.143C345.19 335.143 331.41 298.403 319.87 285.953C305.3 270.223 279.07 271.793 279.07 271.793L261.35 283.793L245.04 272.303C236.291 273.33 227.774 275.807 219.84 279.633L219 279.873V280.053C209.38 285.053 195.65 297.323 182.58 309.213L197.67 323.903L214.38 339.473C215.327 339.333 216.285 339.293 217.24 339.353C217.52 341.073 214.13 388.063 214.13 388.063Z" fill="#455A64"/>
<path opacity="0.2" d="M299.809 307.188L312.279 351.648L307.279 354.148L302.639 341.557C302.639 341.557 298.109 315.198 299.809 307.188Z" fill="black"/>
<path d="M244.02 272.179V267.379C244.02 267.379 258.34 266.269 261.24 283.189C261.24 283.189 265.91 267.379 279.81 265.789L281.81 273.179C281.81 273.179 275.22 293.769 274.27 293.949C273.32 294.129 261.27 297.639 261.27 297.639L254.27 296.059L246.52 287.229L244.02 272.179Z" fill="#455A64"/>
<path d="M282.12 272.617C281.884 272.921 281.616 273.199 281.32 273.447C280.8 273.977 280.04 274.717 279.14 275.687C276.804 278.194 274.724 280.927 272.93 283.847C272.49 284.567 272.09 285.277 271.71 285.967L271.48 286.387L271.26 285.967C269.67 282.967 268.26 280.367 267.18 278.337C266.948 277.946 266.638 277.606 266.27 277.337C265.975 277.133 265.629 277.012 265.27 276.987C264.974 276.983 264.679 277.034 264.4 277.137C264.4 277.137 264.63 276.817 265.28 276.807C265.669 276.801 266.052 276.909 266.38 277.117C266.808 277.396 267.169 277.765 267.44 278.197C268.57 280.087 270.01 282.737 271.68 285.767H271.28C271.66 285.067 272.06 284.337 272.51 283.617C274.309 280.656 276.454 277.92 278.9 275.467C279.84 274.527 280.64 273.817 281.21 273.337C281.478 273.055 281.784 272.812 282.12 272.617Z" fill="#263238"/>
<path d="M243.09 273.508C243.347 273.717 243.575 273.959 243.77 274.228C244.19 274.718 244.77 275.428 245.48 276.318C246.91 278.088 248.85 280.558 250.97 283.318L251.31 283.758H250.87C251.64 282.348 251.7 280.758 252.05 279.298C252.272 277.972 252.987 276.78 254.05 275.958C254.426 275.709 254.854 275.549 255.301 275.492C255.749 275.435 256.203 275.481 256.63 275.628C256.854 275.722 257.06 275.854 257.24 276.018C257.35 276.148 257.39 276.218 257.38 276.228C257.126 276.062 256.854 275.924 256.57 275.818C256.174 275.719 255.762 275.707 255.362 275.783C254.961 275.859 254.582 276.021 254.25 276.258C253.314 277.063 252.706 278.184 252.54 279.408C252.354 280.988 251.954 282.536 251.35 284.008L251.16 284.358L250.92 284.038L250.58 283.598C248.46 280.848 246.58 278.338 245.21 276.508C244.54 275.598 244 274.848 243.63 274.328C243.416 274.079 243.234 273.803 243.09 273.508Z" fill="#263238"/>
<path d="M253.279 388.068C253.266 387.975 253.266 387.881 253.279 387.788C253.279 387.588 253.279 387.318 253.279 386.998C253.279 386.258 253.369 385.238 253.439 383.938C253.609 381.248 253.859 377.418 254.149 372.708C254.809 363.188 255.709 350.108 256.699 335.658L259.389 298.658C259.759 293.948 260.059 290.128 260.269 287.438C260.379 286.138 260.469 285.118 260.539 284.388C260.539 284.058 260.599 283.798 260.619 283.588C260.608 283.502 260.608 283.414 260.619 283.328C260.637 283.417 260.637 283.509 260.619 283.598V284.388C260.619 285.128 260.519 286.148 260.449 287.448C260.279 290.138 260.039 293.968 259.739 298.678C259.089 308.198 258.189 321.278 257.199 335.728C256.209 350.178 255.199 363.258 254.499 372.728C254.129 377.438 253.839 381.258 253.629 383.948C253.509 385.248 253.419 386.268 253.359 387.008C253.359 387.328 253.299 387.588 253.279 387.798C253.294 387.888 253.294 387.979 253.279 388.068Z" fill="#263238"/>
<path d="M220.35 299.109C220.368 299.641 220.337 300.173 220.26 300.699C220.18 301.809 220.06 303.259 219.92 305.019C219.65 308.659 219.37 313.709 219.06 319.289C218.75 324.869 218.41 329.909 218.06 333.559C217.88 335.379 217.7 336.859 217.55 337.869C217.502 338.4 217.405 338.926 217.26 339.439C217.243 338.908 217.274 338.376 217.35 337.849C217.44 336.739 217.55 335.279 217.69 333.529C217.97 329.879 218.24 324.829 218.56 319.259C218.88 313.689 219.2 308.629 219.56 304.979C219.74 303.159 219.92 301.689 220.07 300.669C220.12 300.142 220.213 299.621 220.35 299.109Z" fill="#263238"/>
<path d="M260.28 280.766C260.28 280.766 255.36 287.196 256.08 288.156L260.28 293.766H263.28C263.28 293.766 266.08 285.906 265.36 284.906C264.64 283.906 260.28 280.766 260.28 280.766Z" fill="#FF725E"/>
<path d="M267.78 279.039L262.35 283.279L264.43 287.269L270.01 283.149L267.78 279.039Z" fill="#FF725E"/>
<path d="M251.83 281.719L256.78 285.849L259.52 281.719L253.27 276.969L251.83 281.719Z" fill="#FF725E"/>
<path d="M260.22 293.753L252.67 361.413L260.1 384.933L270.01 361.623L263.49 292.953L260.22 293.753Z" fill="#FF725E"/>
<path d="M313.051 281.189C312.739 280.936 312.404 280.712 312.051 280.519C311.075 280.067 309.963 280.002 308.941 280.339C307.444 280.913 306.114 281.851 305.071 283.069C303.695 284.489 302.505 286.078 301.531 287.799C299.774 290.947 298.749 294.451 298.531 298.049C298.371 300.819 298.721 302.529 298.611 302.539C298.487 302.152 298.4 301.753 298.351 301.349C298.198 300.253 298.137 299.146 298.171 298.039C298.277 294.355 299.276 290.752 301.081 287.539C302.075 285.778 303.303 284.16 304.731 282.729C305.839 281.473 307.256 280.529 308.841 279.989C309.388 279.823 309.963 279.768 310.532 279.828C311.1 279.888 311.651 280.062 312.151 280.339C312.417 280.493 312.657 280.689 312.861 280.919C313.011 281.079 313.061 281.179 313.051 281.189Z" fill="#263238"/>
<path d="M384.521 197.508C378.111 201.438 373.661 208.008 371.021 215.038C368.381 222.068 367.381 229.608 366.601 237.038C364.535 256.789 363.843 276.66 364.531 296.508C388.761 299.568 413.181 302.648 437.531 300.988C433.301 273.158 430.621 245.358 434.011 217.408" fill="#263238"/>
<path d="M438.952 428.777L421.282 393.097L428.022 366.997C428.812 372.527 429.512 377.327 429.512 377.327L467.362 375.327C467.695 375.31 468.021 375.223 468.318 375.073C468.616 374.922 468.879 374.711 469.091 374.454C469.303 374.196 469.458 373.897 469.548 373.575C469.638 373.254 469.659 372.917 469.612 372.587L462.282 320.387C462.282 320.387 459.912 296.167 436.982 287.167H436.872C435.952 286.807 434.992 286.487 434.002 286.167C403.092 275.447 374.142 275.517 341.932 286.507C341.932 286.507 327.622 290.357 320.682 309.027C313.742 327.697 306.682 355.137 306.682 355.137L338.782 366.507L338.992 361.077L346.092 388.237L330.522 427.797L384.872 429.137L438.952 428.777Z" fill="#FF725E"/>
<path d="M306.711 354.789L303.101 371.789C300.001 386.439 310.851 401.479 325.731 403.169L404.841 411.289C409.01 411.759 413.231 411.39 417.255 410.203C421.278 409.017 425.024 407.038 428.272 404.382C431.519 401.727 434.202 398.448 436.164 394.74C438.125 391.031 439.324 386.968 439.691 382.789L339.951 373.289L340.571 363.709L306.711 354.789Z" fill="#FF725E"/>
<path d="M405.642 372.174L411.782 371.033C411.782 371.033 426.342 355.103 429.072 354.883C431.322 354.693 443.712 354.813 448.072 354.883C448.467 354.889 448.843 355.049 449.12 355.33C449.397 355.611 449.552 355.989 449.552 356.383C449.553 356.773 449.401 357.147 449.131 357.427C448.86 357.707 448.491 357.871 448.102 357.883L433.472 358.453L433.402 359.633L448.052 359.823C449.552 359.943 450.502 362.303 445.732 362.733L433.472 363.163V363.923L445.902 365.663C446.532 365.753 448.182 366.073 448.192 366.713C448.192 366.713 448.952 368.263 445.402 368.713C444.192 368.863 433.402 368.503 433.402 368.503L433.812 369.503L444.992 371.913C445.383 371.998 445.728 372.228 445.956 372.556C446.184 372.885 446.279 373.288 446.222 373.683C446.167 374.089 445.957 374.457 445.637 374.71C445.316 374.964 444.909 375.083 444.502 375.043L432.572 373.943L420.852 383.293H405.152L405.642 372.174Z" fill="#FFBE9D"/>
<path d="M366.762 278.808C366.762 278.808 382.172 357.608 387.602 357.038C393.032 356.468 418.502 281.508 418.502 281.508C418.502 281.508 385.952 271.598 366.762 278.808Z" fill="#FAFAFA"/>
<path d="M434.951 355.082C434.811 355.082 434.691 349.643 434.691 342.943C434.691 336.243 434.811 330.812 434.951 330.812C435.091 330.812 435.211 336.243 435.211 342.943C435.211 349.643 435.101 355.082 434.951 355.082Z" fill="#263238"/>
<path d="M340.352 355.598C340.374 354.429 340.481 353.262 340.672 352.108C340.942 349.948 341.342 346.988 341.822 343.718C342.302 340.448 342.752 337.478 343.112 335.348C343.256 334.183 343.486 333.03 343.802 331.898C343.78 333.071 343.673 334.241 343.482 335.398C343.212 337.548 342.812 340.518 342.332 343.788C341.852 347.058 341.402 350.008 341.042 352.148C340.897 353.314 340.667 354.467 340.352 355.598Z" fill="#263238"/>
<path d="M384.871 429.082C384.843 428.84 384.843 428.595 384.871 428.353C384.871 427.823 384.871 427.133 384.871 426.263C384.871 424.443 384.871 421.812 384.941 418.562C385.061 412.062 385.411 403.093 385.861 393.193C386.311 383.293 386.711 374.323 386.931 367.823C387.021 364.623 387.101 362.013 387.161 360.133C387.161 359.273 387.161 358.573 387.221 358.043C387.215 357.798 387.235 357.553 387.281 357.312C387.302 357.555 387.302 357.8 387.281 358.043C387.281 358.569 387.281 359.269 387.281 360.143C387.281 361.953 387.281 364.582 387.221 367.832C387.101 374.332 386.741 383.302 386.301 393.212C385.861 403.122 385.441 412.083 385.231 418.573C385.131 421.783 385.051 424.393 385.001 426.263C385.001 427.133 385.001 427.833 384.931 428.353C384.926 428.597 384.906 428.841 384.871 429.082Z" fill="#263238"/>
<path d="M418.372 281.375C418.372 281.375 418.422 281.715 418.542 282.375C418.714 283.306 418.979 284.217 419.332 285.095C419.895 286.478 420.564 287.815 421.332 289.095C422.368 290.804 423.312 292.566 424.162 294.375C425.249 296.594 425.666 299.082 425.362 301.535C425.115 302.896 424.564 304.185 423.752 305.305C422.907 306.47 421.963 307.561 420.932 308.565C418.73 310.674 416.722 312.977 414.932 315.445C413.023 318.09 411.947 321.245 411.842 324.505C411.843 326.144 412.205 327.762 412.902 329.245C413.634 330.703 414.282 332.202 414.842 333.735C415.094 334.515 415.2 335.336 415.152 336.155C415.094 336.972 414.836 337.761 414.402 338.455C413.494 339.692 412.365 340.749 411.072 341.575L398.542 350.815L390.072 356.995L387.752 358.665L387.142 359.085L386.922 359.215C386.922 359.215 386.982 359.145 387.112 359.035L387.692 358.575L389.952 356.835L398.282 350.505L410.742 341.185C411.982 340.392 413.064 339.374 413.932 338.185C414.326 337.562 414.56 336.851 414.612 336.115C414.65 335.353 414.548 334.59 414.312 333.865C413.756 332.355 413.112 330.879 412.382 329.445C411.656 327.899 411.28 326.213 411.282 324.505C411.387 321.143 412.498 317.889 414.472 315.165C416.28 312.669 418.315 310.346 420.552 308.225C422.602 306.225 424.492 304.015 424.892 301.455C425.205 299.086 424.819 296.677 423.782 294.525C422.96 292.714 422.042 290.948 421.032 289.235C420.284 287.923 419.639 286.556 419.102 285.145C418.764 284.248 418.529 283.315 418.402 282.365C418.365 282.12 418.342 281.873 418.332 281.625C418.331 281.54 418.345 281.456 418.372 281.375Z" fill="#263238"/>
<path d="M387.542 356.228H387.302L386.592 356.098C385.688 355.909 384.796 355.665 383.922 355.367C380.7 354.277 377.716 352.58 375.132 350.367C371.27 347.045 368.464 342.665 367.062 337.768C366.236 334.891 365.898 331.896 366.062 328.908C366.144 327.333 366.355 325.768 366.692 324.228C367.074 322.695 367.119 321.098 366.822 319.548C366.614 318.812 366.193 318.154 365.612 317.658C364.991 317.204 364.293 316.865 363.552 316.658C362.812 316.408 362.042 316.208 361.292 315.898C360.547 315.589 359.868 315.141 359.292 314.578C358.209 313.437 357.491 311.999 357.232 310.448C356.955 309.002 356.874 307.525 356.992 306.057C357.46 301.035 358.562 296.093 360.272 291.348C361.414 288.153 362.819 285.059 364.472 282.098C365.062 281.098 365.542 280.258 365.892 279.738L366.282 279.138C366.321 279.063 366.372 278.996 366.432 278.938C366.432 278.937 366.432 279.018 366.332 279.158L365.982 279.788C365.662 280.328 365.212 281.148 364.642 282.198C363.078 285.183 361.74 288.281 360.642 291.467C359.01 296.197 357.953 301.106 357.492 306.087C357.395 307.513 357.482 308.945 357.752 310.348C358 311.798 358.667 313.143 359.672 314.217C360.215 314.73 360.85 315.137 361.542 315.418C362.242 315.708 363.002 315.908 363.772 316.168C364.575 316.4 365.328 316.78 365.992 317.288C366.656 317.85 367.137 318.599 367.372 319.438C367.694 321.063 367.653 322.74 367.252 324.348C366.923 325.869 366.712 327.413 366.622 328.967C366.474 331.903 366.812 334.842 367.622 337.668C368.981 342.489 371.707 346.813 375.472 350.117C378.007 352.341 380.929 354.079 384.092 355.247C385.212 355.647 386.092 355.908 386.722 356.068L387.412 356.247C387.455 356.239 387.499 356.232 387.542 356.228Z" fill="#263238"/>
<path d="M429.161 372.288L362.891 370.148L362.991 392.148L406.871 401.788L437.741 406.718C456.921 406.718 472.271 389.108 469.301 370.158H469.221L429.161 372.288Z" fill="#FF725E"/>
<path d="M447.402 371.868C447.118 371.913 446.83 371.933 446.542 371.928L444.082 371.998L435.022 372.158C427.372 372.278 416.802 372.408 405.122 372.288C393.442 372.168 382.872 371.758 375.232 371.288C371.412 371.028 368.332 370.788 366.232 370.568L363.782 370.318C363.492 370.302 363.205 370.262 362.922 370.198C363.208 370.174 363.496 370.174 363.782 370.198L366.242 370.348C368.382 370.498 371.472 370.688 375.242 370.898C382.882 371.318 393.442 371.688 405.122 371.798C416.802 371.908 427.352 371.798 435.002 371.798H444.072H446.532C446.823 371.799 447.114 371.823 447.402 371.868Z" fill="#263238"/>
<path d="M362.331 372.174L356.191 371.033C356.191 371.033 341.631 355.103 338.891 354.883C336.651 354.693 324.261 354.813 319.941 354.883C319.547 354.889 319.17 355.049 318.893 355.33C318.616 355.611 318.461 355.989 318.461 356.383C318.461 356.771 318.61 357.144 318.879 357.423C319.147 357.703 319.514 357.868 319.901 357.883L334.541 358.453L334.611 359.633L319.951 359.823C318.461 359.943 317.501 362.303 322.281 362.733L334.541 363.163V363.923L322.111 365.663C321.481 365.753 319.831 366.073 319.811 366.713C319.811 366.713 319.061 368.263 322.601 368.713C323.821 368.863 334.601 368.503 334.601 368.503L334.181 369.503L323.011 371.913C322.62 372 322.276 372.23 322.047 372.558C321.817 372.885 321.719 373.287 321.771 373.683C321.828 374.088 322.039 374.454 322.359 374.707C322.679 374.961 323.084 375.081 323.491 375.043L335.431 373.943L347.151 383.293H362.811L362.331 372.174Z" fill="#FFBE9D"/>
<path d="M436.562 406.359C436.313 406.388 436.061 406.388 435.812 406.359L433.672 406.129C431.802 405.919 429.122 405.579 425.802 405.129C419.162 404.209 410.022 402.759 399.992 400.799C389.962 398.839 380.992 396.719 374.452 395.059C371.212 394.239 368.592 393.539 366.792 393.059L364.722 392.459C364.476 392.397 364.236 392.316 364.002 392.219C364.253 392.239 364.501 392.286 364.742 392.359L366.842 392.859L374.542 394.739C381.052 396.299 390.072 398.349 400.092 400.319C410.112 402.289 419.242 403.789 425.852 404.799L433.692 405.969L435.822 406.299C436.07 406.304 436.317 406.325 436.562 406.359Z" fill="#263238"/>
<path d="M363.592 392.234C363.3 391.211 363.106 390.163 363.012 389.104C362.752 387.104 362.472 384.444 362.312 381.454C362.152 378.464 362.162 375.734 362.222 373.764C362.208 372.702 362.291 371.64 362.472 370.594C362.591 371.649 362.631 372.712 362.592 373.774C362.592 375.774 362.682 378.434 362.832 381.424C362.982 384.414 363.212 387.104 363.382 389.054C363.522 390.108 363.592 391.17 363.592 392.234Z" fill="#263238"/>
<path d="M370.832 393.098C370.699 392.832 370.601 392.55 370.542 392.258C370.392 391.718 370.192 390.918 369.992 389.928C368.927 384.74 368.591 379.429 368.992 374.148C369.072 373.148 369.172 372.318 369.262 371.758C369.278 371.464 369.339 371.174 369.442 370.898C369.479 371.989 369.453 373.081 369.362 374.168C369.282 376.168 369.252 378.968 369.442 382.038C369.632 385.108 369.992 387.868 370.312 389.858C370.552 390.927 370.726 392.009 370.832 393.098Z" fill="#263238"/>
<path d="M364.711 374.118C364.771 374.178 364.391 374.448 364.401 375.118C364.401 375.288 364.436 375.456 364.505 375.611C364.574 375.766 364.675 375.905 364.801 376.018C364.965 376.128 365.158 376.186 365.356 376.186C365.554 376.186 365.747 376.128 365.911 376.018C366.09 375.924 366.236 375.779 366.331 375.6C366.426 375.422 366.464 375.219 366.441 375.018C366.408 374.852 366.34 374.695 366.242 374.557C366.143 374.419 366.017 374.304 365.871 374.218C365.341 373.898 364.871 374.088 364.871 374.008C364.871 373.928 365.281 373.578 366.031 373.898C366.245 373.986 366.435 374.122 366.588 374.295C366.741 374.469 366.851 374.675 366.911 374.898C366.947 375.195 366.894 375.495 366.76 375.762C366.626 376.029 366.416 376.25 366.157 376.398C365.897 376.546 365.6 376.615 365.302 376.595C365.004 376.576 364.719 376.469 364.481 376.288C364.31 376.128 364.179 375.929 364.099 375.708C364.019 375.488 363.992 375.251 364.021 375.018C364.141 374.248 364.711 374.048 364.711 374.118Z" fill="#263238"/>
<path d="M376.762 396.345C376.536 396.373 376.308 396.373 376.082 396.345C375.632 396.345 374.982 396.345 374.132 396.345C371.75 396.408 369.374 396.631 367.022 397.015C363.536 397.607 360.081 398.374 356.672 399.315C352.802 400.315 348.582 401.565 344.052 402.555C339.792 403.549 335.426 404.022 331.052 403.965C327.477 403.872 323.94 403.197 320.582 401.965C318.329 401.111 316.219 399.921 314.322 398.435C313.812 398.029 313.328 397.591 312.872 397.125C312.7 396.976 312.546 396.809 312.412 396.625C312.412 396.625 313.102 397.265 314.412 398.275C316.327 399.684 318.435 400.809 320.672 401.615C324.021 402.803 327.54 403.441 331.092 403.505C335.417 403.532 339.73 403.049 343.942 402.065C348.442 401.065 352.672 399.865 356.552 398.865C359.983 397.945 363.462 397.211 366.972 396.665C369.343 396.317 371.736 396.15 374.132 396.165C374.982 396.165 375.642 396.165 376.082 396.255C376.311 396.264 376.539 396.294 376.762 396.345Z" fill="#263238"/>
<path d="M405.912 288.088C407.482 279.308 409.302 270.088 409.302 270.088C409.302 270.088 420.962 270.198 425.912 255.838C430.632 242.138 434.042 209.178 434.042 209.178C426.572 204.535 417.862 202.287 409.078 202.736C400.295 203.184 391.859 206.308 384.902 211.688L373.282 283.268C371.932 291.578 378.002 299.358 386.912 300.728C395.902 302.118 404.412 296.508 405.912 288.088Z" fill="#FFBE9D"/>
<path d="M425.371 233.858C425.29 234.352 425.018 234.795 424.615 235.092C424.211 235.389 423.708 235.517 423.211 235.448C422.966 235.427 422.727 235.356 422.51 235.241C422.292 235.125 422.1 234.967 421.945 234.776C421.79 234.584 421.675 234.364 421.608 234.127C421.54 233.89 421.521 233.642 421.551 233.398C421.635 232.902 421.908 232.459 422.314 232.162C422.719 231.865 423.224 231.738 423.721 231.808C423.965 231.831 424.202 231.903 424.418 232.02C424.634 232.136 424.824 232.294 424.978 232.485C425.131 232.676 425.245 232.896 425.313 233.132C425.381 233.367 425.4 233.614 425.371 233.858Z" fill="#263238"/>
<path d="M428.822 232.279C428.542 232.489 427.292 231.169 425.252 230.819C423.212 230.469 421.542 231.219 421.362 230.929C421.272 230.809 421.592 230.399 422.362 230.039C423.354 229.586 424.46 229.446 425.532 229.639C426.595 229.827 427.571 230.344 428.322 231.119C428.822 231.709 428.952 232.189 428.822 232.279Z" fill="#263238"/>
<path d="M404.431 230.504C404.348 230.997 404.076 231.439 403.673 231.735C403.27 232.032 402.767 232.16 402.271 232.094C401.786 232.048 401.339 231.812 401.028 231.437C400.716 231.062 400.567 230.579 400.611 230.094C400.695 229.598 400.968 229.154 401.373 228.855C401.778 228.557 402.283 228.427 402.781 228.494C403.265 228.544 403.71 228.784 404.019 229.16C404.328 229.536 404.476 230.019 404.431 230.504Z" fill="#263238"/>
<path d="M407.411 229.277C407.131 229.477 405.881 228.167 403.841 227.807C401.801 227.447 400.131 228.217 399.951 227.927C399.861 227.797 400.171 227.387 400.951 227.027C401.942 226.573 403.049 226.436 404.121 226.637C405.183 226.817 406.161 227.332 406.911 228.107C407.411 228.697 407.541 229.187 407.411 229.277Z" fill="#263238"/>
<path d="M412.141 245.7C413.277 245.563 414.425 245.563 415.561 245.7C416.091 245.7 416.561 245.7 416.751 245.38C416.89 244.851 416.865 244.294 416.681 243.78C416.411 242.43 416.131 241.02 415.841 239.54C414.691 233.54 413.961 228.6 414.211 228.54C414.461 228.48 415.571 233.34 416.721 239.36C416.991 240.85 417.251 242.26 417.491 243.61C417.705 244.296 417.673 245.035 417.401 245.7C417.293 245.872 417.146 246.017 416.973 246.123C416.799 246.228 416.603 246.293 416.401 246.31C416.099 246.351 415.793 246.351 415.491 246.31C414.352 246.252 413.226 246.047 412.141 245.7Z" fill="#263238"/>
<path d="M409.282 270.082C402.306 268.956 395.778 265.921 390.422 261.312C390.422 261.312 393.422 272.313 408.422 273.533L409.282 270.082Z" fill="#EB996E"/>
<path d="M410.422 250.504C410.124 249.938 409.687 249.457 409.152 249.107C408.616 248.757 408 248.55 407.362 248.504C406.905 248.466 406.446 248.52 406.011 248.664C405.576 248.809 405.175 249.04 404.832 249.344C404.498 249.634 404.261 250.021 404.156 250.451C404.05 250.88 404.08 251.332 404.242 251.744C404.505 252.167 404.888 252.503 405.342 252.707C405.796 252.912 406.301 252.977 406.792 252.894C407.815 252.72 408.793 252.346 409.672 251.794C409.931 251.672 410.165 251.502 410.362 251.294C410.458 251.196 410.522 251.07 410.545 250.935C410.568 250.799 410.55 250.659 410.492 250.534" fill="#EB996E"/>
<path d="M405.902 246.057C406.232 246.057 405.842 248.307 407.462 250.217C409.082 252.127 411.462 252.287 411.462 252.607C411.462 252.747 410.862 252.937 409.862 252.787C408.564 252.581 407.38 251.922 406.522 250.927C405.685 249.988 405.241 248.764 405.282 247.507C405.402 246.507 405.752 246.017 405.902 246.057Z" fill="#263238"/>
<path d="M394.891 201.126C398.841 209.836 411.641 220.436 421.521 224.196C420.621 222.396 415.071 217.336 414.171 215.546C418.171 219.876 423.921 225.756 430.011 227.226C430.715 227.463 431.473 227.487 432.191 227.296C432.587 227.083 432.929 226.782 433.191 226.416C433.453 226.051 433.627 225.63 433.701 225.186C434.878 220.791 435.575 216.281 435.781 211.736C436.003 207.907 434.75 204.139 432.281 201.206C428.911 197.416 423.411 195.606 418.121 194.476C413.681 193.536 409.041 192.936 404.661 193.776C400.281 194.616 396.201 197.136 394.891 200.846" fill="#263238"/>
<path d="M371.331 233.928C371.252 230.546 371.379 227.163 371.711 223.798C372.711 216.108 375.101 188.138 400.911 195.338L398.171 202.508C398.171 202.508 400.171 220.508 386.901 230.168C386.901 230.168 386.961 248.168 377.781 254.618C377.781 254.618 371.381 242.438 371.331 233.938" fill="#263238"/>
<path d="M387.452 228.938C385.927 228.325 384.264 228.142 382.642 228.408C381.025 228.699 379.588 229.615 378.642 230.958C377.765 232.36 377.454 234.044 377.772 235.668C378.097 237.282 378.781 238.803 379.772 240.118C380.411 241.099 381.27 241.918 382.282 242.508C382.796 242.797 383.374 242.954 383.963 242.967C384.553 242.979 385.136 242.845 385.662 242.578" fill="#FFBE9D"/>
<path d="M384.891 238.369C385.061 238.459 384.211 239.299 382.831 238.649C382.469 238.452 382.149 238.186 381.89 237.865C381.631 237.544 381.437 237.175 381.321 236.779C381.028 235.891 380.919 234.952 381.001 234.019C381.053 233.021 381.461 232.074 382.151 231.349C382.444 231.041 382.803 230.803 383.201 230.654C383.6 230.505 384.027 230.449 384.451 230.489C385.941 230.719 386.221 231.829 386.041 231.829C385.861 231.829 385.421 231.299 384.411 231.359C383.776 231.481 383.205 231.827 382.804 232.333C382.402 232.84 382.195 233.473 382.221 234.119C382.111 235.779 382.471 237.379 383.271 237.899C384.071 238.419 384.821 238.219 384.891 238.369Z" fill="#EB996E"/>
<path d="M384.872 242.562C380.872 266.472 384.122 290.912 384.872 315.152C384.942 317.472 384.962 319.903 383.872 321.973C382.282 325.103 378.562 326.632 375.052 326.842C371.542 327.052 368.052 326.243 364.562 325.953C364.182 323.633 363.812 321.303 363.432 318.953C362.262 321.633 361.092 324.303 359.932 326.953C361.472 309.953 363.158 292.953 364.992 275.953" fill="#263238"/>
</svg>
