<svg width="39" height="39" viewBox="0 0 39 39" fill="none" xmlns="http://www.w3.org/2000/svg">
<path d="M26.3519 30.9103L28.8249 33.399C29.4354 34.0059 30.4214 34.0059 31.0319 33.399L33.2545 31.1764C33.8613 30.5659 33.8613 29.58 33.2545 28.9695L30.7658 26.4808C31.4845 25.032 32.0107 23.4955 32.331 21.9103H35.8684C36.7328 21.9103 37.4336 21.2096 37.4336 20.3451V18.7799C37.4336 17.9154 36.7328 17.2147 35.8684 17.2147H32.3466C32.0264 15.6295 31.5002 14.093 30.7814 12.6442L33.2701 10.1712C33.877 9.5607 33.877 8.57473 33.2701 7.96424L31.0475 5.72598C30.437 5.11911 29.451 5.11911 28.8406 5.72598L26.3519 8.21467C24.9031 7.49591 23.3666 6.96971 21.7814 6.64946V3.12772C21.7814 2.26327 21.0806 1.5625 20.2162 1.5625H18.651C17.7865 1.5625 17.0858 2.26327 17.0858 3.12772V6.64946C15.5006 6.96971 13.9641 7.49591 12.5153 8.21467L10.0423 5.72598C9.4318 5.11911 8.44583 5.11911 7.83533 5.72598L5.59707 7.94859C5.30076 8.24248 5.13408 8.64255 5.13408 9.05989C5.13408 9.47724 5.30076 9.8773 5.59707 10.1712L8.08577 12.6442C7.36701 14.093 6.8408 15.6295 6.52055 17.2147L2.99881 17.2147C2.13437 17.2147 1.43359 17.9154 1.43359 18.7799V20.3451C1.43359 21.2096 2.13437 21.9103 2.99881 21.9103H6.52055C6.8408 23.4955 7.36701 25.032 8.08577 26.4808L5.59707 28.9538C4.9902 29.5643 4.9902 30.5503 5.59707 31.1608L7.80403 33.3834C8.09792 33.6797 8.49799 33.8464 8.91533 33.8464C9.33268 33.8464 9.73274 33.6797 10.0266 33.3834L12.5153 30.8947M17.0858 32.8668H21.7814M17.0858 35.9973H21.7814M19.4336 35.9973V37.5625M28.6214 19.5625C28.4429 14.6566 24.3407 10.813 19.4336 10.9538C14.5264 10.813 10.4243 14.6566 10.2458 19.5625C10.4115 23.5571 13.2012 26.9596 17.0858 27.9051V29.7364H21.7814V27.9677C25.6877 27.0158 28.4831 23.5807 28.6214 19.5625Z" stroke="#FB5934" stroke-width="2" stroke-linecap="round" stroke-linejoin="round"/>
</svg>
