<svg width="87" height="87" viewBox="0 0 87 87" fill="none" xmlns="http://www.w3.org/2000/svg">
<path d="M67.5312 14.3125H25.0312C22.2698 14.3125 20.0312 16.5511 20.0312 19.3125M20.0312 19.3125C20.0312 22.0739 22.2698 24.3125 25.0312 24.3125H65.0312C66.412 24.3125 67.5312 25.4318 67.5312 26.8125V69.3125C67.5312 70.6932 66.412 71.8125 65.0312 71.8125H25.0312C22.2698 71.8125 20.0312 69.5739 20.0312 66.8125V19.3125ZM25.0312 19.3125H65.0312M45.0312 61.8125L32.2388 48.475C29.9368 46.1722 29.3659 42.6552 30.8212 39.7425C31.909 37.5679 33.9757 36.0487 36.3758 35.6594C38.776 35.2701 41.2169 36.0582 42.9363 37.7775L45.0238 39.8675L47.1087 37.78C48.8276 36.0607 51.2682 35.2725 53.668 35.6618C56.0678 36.0512 58.1341 37.5705 59.2213 39.745C60.6766 42.6577 60.1057 46.1747 57.8037 48.4775L45.0312 61.8125Z" stroke="#E56500" stroke-width="2" stroke-linecap="round" stroke-linejoin="round"/>
</svg>
