<svg width="39" height="35" viewBox="0 0 39 35" fill="none" xmlns="http://www.w3.org/2000/svg">
<path d="M32.5971 13.9006C32.6064 10.5099 31.2514 7.25806 28.8371 4.87734C26.4228 2.49661 23.1523 1.18719 19.7621 1.24396C17.8572 1.24396 15.0194 1.66814 15.849 5.10387C17.2796 8.98099 24.3686 3.30383 26.621 12.5247C28.2958 19.379 22.4058 20.6468 20.9971 19.2381L17.7805 16.0215C16.8638 15.104 15.3768 15.1035 14.4595 16.0204C13.5422 16.9373 13.542 18.4242 14.459 19.3414L20.2943 25.953C21.4685 27.1269 22.1284 28.7192 22.1287 30.3795V33.0749M31.0507 7.65366C33.8587 7.65366 37.7813 10.1299 37.7813 13.118V33.0749M14.6969 15.8117L13.1176 15.447C12.4678 15.2965 11.8127 15.6758 11.6197 16.3142L11.0562 18.169C10.8402 18.8867 10.1794 19.3781 9.42987 19.3781C8.68037 19.3781 8.01949 18.8867 7.80357 18.169L7.24165 16.3142C7.04863 15.6758 6.39347 15.2965 5.7437 15.447L3.8654 15.8822C3.13448 16.0463 2.38187 15.7153 2.00877 15.0657C1.63567 14.4161 1.72904 13.5993 2.23911 13.0506L3.55235 11.6419C4.00637 11.1512 4.00637 10.3937 3.55235 9.90293L2.23911 8.47855C1.72851 7.92973 1.6351 7.11226 2.00871 6.46239C2.38232 5.81252 3.13576 5.48192 3.86697 5.64701L5.74527 6.08215C6.39497 6.23164 7.04931 5.85177 7.24165 5.21344L7.80514 3.36018C8.02443 2.64764 8.68278 2.16143 9.4283 2.16143C10.1738 2.16143 10.8322 2.64764 11.0515 3.36018L11.615 5.21344C11.808 5.85199 12.4628 6.23175 13.1129 6.08215L14.9912 5.64701C15.723 5.47996 16.4781 5.80985 16.8527 6.46026C17.2274 7.11066 17.1338 7.92938 16.6222 8.47855L15.3089 9.8951C14.8534 10.3853 14.8534 11.1439 15.3089 11.6341L16.6222 13.0428C17.2369 13.6999 17.2369 14.7211 16.6222 15.3782M7.51713 10.7638C7.51688 11.8212 8.37401 12.6786 9.43143 12.6786C10.4889 12.6786 11.346 11.8212 11.3457 10.7638C11.346 9.70639 10.4889 8.84905 9.43143 8.84905C8.37401 8.84905 7.51688 9.70639 7.51713 10.7638Z" stroke="#FB5934" stroke-width="2" stroke-linecap="round" stroke-linejoin="round"/>
</svg>
