<svg width="21" height="21" viewBox="0 0 21 21" fill="none" xmlns="http://www.w3.org/2000/svg">
<path d="M8.25586 2.26953V6.26953H12.2559V2.26953H8.25586ZM14.2559 2.26953V6.26953H18.2559V2.26953H14.2559ZM14.2559 8.26953V12.2695H18.2559V8.26953H14.2559ZM14.2559 14.2695V18.2695H18.2559V14.2695H14.2559ZM12.2559 18.2695V14.2695H8.25586V18.2695H12.2559ZM6.25586 18.2695V14.2695H2.25586V18.2695H6.25586ZM6.25586 12.2695V8.26953H2.25586V12.2695H6.25586ZM6.25586 6.26953V2.26953H2.25586V6.26953H6.25586ZM8.25586 12.2695H12.2559V8.26953H8.25586V12.2695ZM2.25586 0.269531H18.2559C18.7863 0.269531 19.295 0.480245 19.6701 0.855318C20.0451 1.23039 20.2559 1.7391 20.2559 2.26953V18.2695C20.2559 18.8 20.0451 19.3087 19.6701 19.6837C19.295 20.0588 18.7863 20.2695 18.2559 20.2695H2.25586C1.17586 20.2695 0.255859 19.3695 0.255859 18.2695V2.26953C0.255859 1.7391 0.466573 1.23039 0.841646 0.855318C1.21672 0.480245 1.72543 0.269531 2.25586 0.269531Z" fill="white"/>
</svg>
