<svg width="88" height="50" viewBox="0 0 88 50" fill="none" xmlns="http://www.w3.org/2000/svg">
<rect x="0.175781" width="87" height="50" rx="25" fill="#48372D"/>
<path d="M41.2559 17.2695V21.2695H45.2559V17.2695H41.2559ZM47.2559 17.2695V21.2695H51.2559V17.2695H47.2559ZM47.2559 23.2695V27.2695H51.2559V23.2695H47.2559ZM47.2559 29.2695V33.2695H51.2559V29.2695H47.2559ZM45.2559 33.2695V29.2695H41.2559V33.2695H45.2559ZM39.2559 33.2695V29.2695H35.2559V33.2695H39.2559ZM39.2559 27.2695V23.2695H35.2559V27.2695H39.2559ZM39.2559 21.2695V17.2695H35.2559V21.2695H39.2559ZM41.2559 27.2695H45.2559V23.2695H41.2559V27.2695ZM35.2559 15.2695H51.2559C51.7863 15.2695 52.295 15.4802 52.6701 15.8553C53.0451 16.2304 53.2559 16.7391 53.2559 17.2695V33.2695C53.2559 33.8 53.0451 34.3087 52.6701 34.6837C52.295 35.0588 51.7863 35.2695 51.2559 35.2695H35.2559C34.1759 35.2695 33.2559 34.3695 33.2559 33.2695V17.2695C33.2559 16.7391 33.4666 16.2304 33.8416 15.8553C34.2167 15.4802 34.7254 15.2695 35.2559 15.2695Z" fill="white"/>
</svg>
