<svg width="19" height="21" viewBox="0 0 19 21" fill="none" xmlns="http://www.w3.org/2000/svg">
<path d="M11.1758 18.7734L9.17578 20.7734L7.17578 18.7734H2.17078C1.64167 18.7734 1.13424 18.5633 0.760103 18.1891C0.385968 17.815 0.175781 17.3075 0.175781 16.7784V2.76844C0.175781 1.66644 1.06878 0.773438 2.17078 0.773438H16.1808C17.2828 0.773438 18.1758 1.66644 18.1758 2.76844V16.7784C18.1758 17.3075 17.9656 17.815 17.5915 18.1891C17.2173 18.5633 16.7099 18.7734 16.1808 18.7734H11.1758ZM16.1758 16.7734V2.77344H2.17578V16.7734H8.00378L9.17578 17.9454L10.3478 16.7734H16.1758ZM5.14778 15.9534C4.53282 15.6869 3.9462 15.3593 3.39678 14.9754C4.03145 13.9928 4.90224 13.185 5.92957 12.6256C6.95691 12.0663 8.10804 11.7733 9.27778 11.7734C11.6778 11.7734 13.7948 12.9804 15.0558 14.8204C14.5169 15.219 13.9393 15.5624 13.3318 15.8454C12.8683 15.2038 12.2591 14.6815 11.5543 14.3212C10.8495 13.961 10.0693 13.7733 9.27778 13.7734C7.56178 13.7734 6.04778 14.6374 5.14778 15.9534ZM9.17578 10.7734C8.71616 10.7734 8.26103 10.6829 7.83639 10.507C7.41175 10.3311 7.02591 10.0733 6.70091 9.74831C6.3759 9.42331 6.11809 9.03747 5.9422 8.61283C5.76631 8.18819 5.67578 7.73306 5.67578 7.27344C5.67578 6.81381 5.76631 6.35869 5.9422 5.93405C6.11809 5.50941 6.3759 5.12357 6.70091 4.79856C7.02591 4.47356 7.41175 4.21575 7.83639 4.03986C8.26103 3.86397 8.71616 3.77344 9.17578 3.77344C10.104 3.77344 10.9943 4.14219 11.6507 4.79856C12.307 5.45494 12.6758 6.34518 12.6758 7.27344C12.6758 8.2017 12.307 9.09193 11.6507 9.74831C10.9943 10.4047 10.104 10.7734 9.17578 10.7734ZM9.17578 8.77344C9.57361 8.77344 9.95514 8.6154 10.2364 8.3341C10.5177 8.05279 10.6758 7.67126 10.6758 7.27344C10.6758 6.87561 10.5177 6.49408 10.2364 6.21278C9.95514 5.93147 9.57361 5.77344 9.17578 5.77344C8.77796 5.77344 8.39643 5.93147 8.11512 6.21278C7.83382 6.49408 7.67578 6.87561 7.67578 7.27344C7.67578 7.67126 7.83382 8.05279 8.11512 8.3341C8.39643 8.6154 8.77796 8.77344 9.17578 8.77344Z" fill="black"/>
</svg>
