<svg width="21" height="20" viewBox="0 0 21 20" fill="none" xmlns="http://www.w3.org/2000/svg">
<path d="M20.1758 0.773438H0.175781V6.77344H1.17578V17.7734C1.17578 18.3039 1.38649 18.8126 1.76157 19.1877C2.13664 19.5627 2.64535 19.7734 3.17578 19.7734H17.1758C17.7062 19.7734 18.2149 19.5627 18.59 19.1877C18.9651 18.8126 19.1758 18.3039 19.1758 17.7734V6.77344H20.1758V0.773438ZM2.17578 2.77344H18.1758V4.77344H2.17578V2.77344ZM17.1758 17.7734H3.17578V6.77344H17.1758V17.7734ZM7.17578 8.77344H13.1758C13.1758 9.30387 12.9651 9.81258 12.59 10.1877C12.2149 10.5627 11.7062 10.7734 11.1758 10.7734H9.17578C8.64535 10.7734 8.13664 10.5627 7.76157 10.1877C7.3865 9.81258 7.17578 9.30387 7.17578 8.77344Z" fill="black"/>
</svg>
