<svg width="25" height="25" viewBox="0 0 25 25" fill="none" xmlns="http://www.w3.org/2000/svg">
<path d="M14.1758 21.7734L12.1758 23.7734L10.1758 21.7734H5.17078C4.64167 21.7734 4.13424 21.5633 3.7601 21.1891C3.38597 20.815 3.17578 20.3075 3.17578 19.7784V5.76844C3.17578 4.66644 4.06878 3.77344 5.17078 3.77344H19.1808C20.2828 3.77344 21.1758 4.66644 21.1758 5.76844V19.7784C21.1758 20.3075 20.9656 20.815 20.5915 21.1891C20.2173 21.5633 19.7099 21.7734 19.1808 21.7734H14.1758ZM19.1758 19.7734V5.77344H5.17578V19.7734H11.0038L12.1758 20.9454L13.3478 19.7734H19.1758ZM8.14778 18.9534C7.53282 18.6869 6.9462 18.3593 6.39678 17.9754C7.03145 16.9928 7.90224 16.185 8.92957 15.6256C9.95691 15.0663 11.108 14.7733 12.2778 14.7734C14.6778 14.7734 16.7948 15.9804 18.0558 17.8204C17.5169 18.219 16.9393 18.5624 16.3318 18.8454C15.8683 18.2038 15.2591 17.6815 14.5543 17.3212C13.8495 16.961 13.0693 16.7733 12.2778 16.7734C10.5618 16.7734 9.04778 17.6374 8.14778 18.9534ZM12.1758 13.7734C11.7162 13.7734 11.261 13.6829 10.8364 13.507C10.4117 13.3311 10.0259 13.0733 9.70091 12.7483C9.3759 12.4233 9.11809 12.0375 8.9422 11.6128C8.76631 11.1882 8.67578 10.7331 8.67578 10.2734C8.67578 9.81381 8.76631 9.35869 8.9422 8.93405C9.11809 8.50941 9.3759 8.12357 9.70091 7.79856C10.0259 7.47356 10.4117 7.21575 10.8364 7.03986C11.261 6.86397 11.7162 6.77344 12.1758 6.77344C13.104 6.77344 13.9943 7.14219 14.6507 7.79856C15.307 8.45494 15.6758 9.34518 15.6758 10.2734C15.6758 11.2017 15.307 12.0919 14.6507 12.7483C13.9943 13.4047 13.104 13.7734 12.1758 13.7734ZM12.1758 11.7734C12.5736 11.7734 12.9551 11.6154 13.2364 11.3341C13.5177 11.0528 13.6758 10.6713 13.6758 10.2734C13.6758 9.87561 13.5177 9.49408 13.2364 9.21278C12.9551 8.93147 12.5736 8.77344 12.1758 8.77344C11.778 8.77344 11.3964 8.93147 11.1151 9.21278C10.8338 9.49408 10.6758 9.87561 10.6758 10.2734C10.6758 10.6713 10.8338 11.0528 11.1151 11.3341C11.3964 11.6154 11.778 11.7734 12.1758 11.7734Z" fill="black"/>
</svg>
