<svg width="31" height="40" viewBox="0 0 31 40" fill="none" xmlns="http://www.w3.org/2000/svg">
<circle cx="2" cy="2" r="2" fill="white"/>
<circle cx="11" cy="2" r="2" fill="white"/>
<circle cx="20" cy="2" r="2" fill="white"/>
<circle cx="29" cy="2" r="2" fill="white"/>
<circle cx="2" cy="11" r="2" fill="white"/>
<circle cx="11" cy="11" r="2" fill="white"/>
<circle cx="20" cy="11" r="2" fill="white"/>
<circle cx="29" cy="11" r="2" fill="white"/>
<circle cx="2" cy="20" r="2" fill="white"/>
<circle cx="11" cy="20" r="2" fill="white"/>
<circle cx="20" cy="20" r="2" fill="white"/>
<circle cx="29" cy="20" r="2" fill="white"/>
<circle cx="2" cy="29" r="2" fill="white"/>
<circle cx="11" cy="29" r="2" fill="white"/>
<circle cx="20" cy="29" r="2" fill="white"/>
<circle cx="29" cy="29" r="2" fill="white"/>
<circle cx="2" cy="38" r="2" fill="white"/>
<circle cx="11" cy="38" r="2" fill="white"/>
<circle cx="20" cy="38" r="2" fill="white"/>
<circle cx="29" cy="38" r="2" fill="white"/>
</svg>
