<svg width="219" height="180" viewBox="0 0 219 180" fill="none" xmlns="http://www.w3.org/2000/svg">
<rect width="180" height="180" rx="20" fill="#FB5935"/>
<g filter="url(#filter0_d_455_358)">
<rect x="158" y="117" width="50" height="50" rx="14" fill="white" shape-rendering="crispEdges"/>
<g clip-path="url(#clip0_455_358)">
<path d="M187.02 142L192.5 145.13C192.654 145.217 192.782 145.344 192.871 145.497C192.96 145.649 193.007 145.823 193.007 146C193.007 146.177 192.96 146.351 192.871 146.503C192.782 146.656 192.654 146.783 192.5 146.87L184 151.74C183.696 151.916 183.351 152.008 183 152.008C182.649 152.008 182.304 151.916 182 151.74L173.5 146.87C173.346 146.783 173.218 146.656 173.129 146.503C173.04 146.351 172.993 146.177 172.993 146C172.993 145.823 173.04 145.649 173.129 145.497C173.218 145.344 173.346 145.217 173.5 145.13L178.98 142" stroke="black" stroke-width="2" stroke-linecap="round" stroke-linejoin="round"/>
<path d="M184 143.74C183.696 143.916 183.351 144.008 183 144.008C182.649 144.008 182.304 143.916 182 143.74L173.5 138.87C173.346 138.783 173.218 138.656 173.129 138.504C173.04 138.351 172.993 138.177 172.993 138C172.993 137.823 173.04 137.65 173.129 137.497C173.218 137.344 173.346 137.217 173.5 137.13L182 132.26C182.304 132.085 182.649 131.992 183 131.992C183.351 131.992 183.696 132.085 184 132.26L192.5 137.13C192.654 137.217 192.782 137.344 192.871 137.497C192.96 137.65 193.007 137.823 193.007 138C193.007 138.177 192.96 138.351 192.871 138.504C192.782 138.656 192.654 138.783 192.5 138.87L184 143.74Z" stroke="black" stroke-width="2" stroke-linecap="round" stroke-linejoin="round"/>
</g>
</g>
<path d="M37.13 52V50.56V49.82C37.13 49.0867 37.2667 48.4533 37.54 47.92C37.8133 47.38 38.1733 46.9133 38.62 46.52C39.0733 46.12 39.5667 45.77 40.1 45.47C40.64 45.17 41.18 44.8867 41.72 44.62C42.26 44.3533 42.7533 44.0867 43.2 43.82C43.6533 43.5467 44.0167 43.2433 44.29 42.91C44.5633 42.5767 44.7 42.1833 44.7 41.73C44.7 41.15 44.4967 40.6767 44.09 40.31C43.69 39.9433 43.14 39.76 42.44 39.76C41.7133 39.76 41.0967 39.97 40.59 40.39C40.0833 40.81 39.77 41.4433 39.65 42.29H36.86C36.8733 41.37 37.0867 40.5367 37.5 39.79C37.92 39.0367 38.5467 38.44 39.38 38C40.2133 37.56 41.26 37.34 42.52 37.34C43.6 37.34 44.53 37.5233 45.31 37.89C46.0967 38.2567 46.7033 38.7667 47.13 39.42C47.5567 40.0733 47.77 40.8367 47.77 41.71C47.77 42.4367 47.6367 43.0633 47.37 43.59C47.1033 44.1167 46.75 44.5667 46.31 44.94C45.87 45.3133 45.3867 45.64 44.86 45.92C44.3333 46.2 43.8067 46.46 43.28 46.7C42.76 46.94 42.28 47.1867 41.84 47.44C41.4 47.6867 41.0467 47.9667 40.78 48.28C40.5133 48.5933 40.38 48.97 40.38 49.41V49.54H47.75V52H37.13ZM55.1553 52.22C53.402 52.22 52.032 51.5833 51.0453 50.31C50.0653 49.0367 49.5753 47.2033 49.5753 44.81C49.5753 43.21 49.802 41.8533 50.2553 40.74C50.7086 39.6267 51.352 38.7833 52.1853 38.21C53.0186 37.63 54.0086 37.34 55.1553 37.34C56.8753 37.34 58.232 37.9833 59.2253 39.27C60.2186 40.55 60.7153 42.3933 60.7153 44.8C60.7153 47.1933 60.2253 49.03 59.2453 50.31C58.2653 51.5833 56.902 52.22 55.1553 52.22ZM55.1553 49.83C56.0153 49.83 56.6453 49.4467 57.0453 48.68C57.4453 47.9067 57.6453 46.6167 57.6453 44.81C57.6453 42.9633 57.442 41.64 57.0353 40.84C56.6286 40.04 55.9986 39.64 55.1453 39.64C54.292 39.64 53.6553 40.0433 53.2353 40.85C52.822 41.6567 52.6153 42.9767 52.6153 44.81C52.6153 46.61 52.822 47.8967 53.2353 48.67C53.6486 49.4433 54.2886 49.83 55.1553 49.83ZM62.7159 52V50.56V49.82C62.7159 49.0867 62.8526 48.4533 63.1259 47.92C63.3993 47.38 63.7593 46.9133 64.2059 46.52C64.6593 46.12 65.1526 45.77 65.6859 45.47C66.2259 45.17 66.7659 44.8867 67.3059 44.62C67.8459 44.3533 68.3393 44.0867 68.7859 43.82C69.2393 43.5467 69.6026 43.2433 69.8759 42.91C70.1493 42.5767 70.2859 42.1833 70.2859 41.73C70.2859 41.15 70.0826 40.6767 69.6759 40.31C69.2759 39.9433 68.7259 39.76 68.0259 39.76C67.2993 39.76 66.6826 39.97 66.1759 40.39C65.6693 40.81 65.3559 41.4433 65.2359 42.29H62.4459C62.4593 41.37 62.6726 40.5367 63.0859 39.79C63.5059 39.0367 64.1326 38.44 64.9659 38C65.7993 37.56 66.8459 37.34 68.1059 37.34C69.1859 37.34 70.1159 37.5233 70.8959 37.89C71.6826 38.2567 72.2893 38.7667 72.7159 39.42C73.1426 40.0733 73.3559 40.8367 73.3559 41.71C73.3559 42.4367 73.2226 43.0633 72.9559 43.59C72.6893 44.1167 72.3359 44.5667 71.8959 44.94C71.4559 45.3133 70.9726 45.64 70.4459 45.92C69.9193 46.2 69.3926 46.46 68.8659 46.7C68.3459 46.94 67.8659 47.1867 67.4259 47.44C66.9859 47.6867 66.6326 47.9667 66.3659 48.28C66.0993 48.5933 65.9659 48.97 65.9659 49.41V49.54H73.3359V52H62.7159ZM81.2613 52.22C80.3146 52.22 79.4346 52.0733 78.6213 51.78C77.8079 51.4867 77.1046 51.0867 76.5113 50.58C75.9179 50.0667 75.4679 49.48 75.1613 48.82L77.4413 47.47C77.7013 47.9233 77.9946 48.3333 78.3213 48.7C78.6479 49.06 79.0246 49.3467 79.4513 49.56C79.8846 49.7667 80.3879 49.87 80.9613 49.87C81.8279 49.87 82.5246 49.64 83.0513 49.18C83.5779 48.72 83.8413 48.12 83.8413 47.38C83.8413 46.9133 83.7213 46.4967 83.4813 46.13C83.2479 45.7567 82.9246 45.4633 82.5113 45.25C82.0979 45.0367 81.6146 44.93 81.0613 44.93C80.7679 44.93 80.4879 44.9567 80.2213 45.01C79.9613 45.0567 79.6946 45.15 79.4212 45.29C79.1546 45.4233 78.8579 45.6167 78.5313 45.87C78.4379 45.91 78.3713 45.93 78.3313 45.93C78.2979 45.93 78.2313 45.9067 78.1313 45.86L76.0113 44.88L76.6713 37.54H85.9613L85.8513 39.93H78.9813L78.7013 43.42C79.2346 43.12 79.7413 42.9033 80.2213 42.77C80.7079 42.6367 81.2413 42.57 81.8213 42.57C82.7879 42.57 83.6513 42.7533 84.4113 43.12C85.1779 43.48 85.7846 44.01 86.2313 44.71C86.6779 45.41 86.9013 46.2633 86.9013 47.27C86.9013 48.29 86.6713 49.17 86.2113 49.91C85.7513 50.65 85.0979 51.22 84.2513 51.62C83.4113 52.02 82.4146 52.22 81.2613 52.22ZM93.9091 52V37.54H99.1491C101.042 37.54 102.446 37.8667 103.359 38.52C104.279 39.1667 104.739 40.1033 104.739 41.33C104.739 42.05 104.556 42.6767 104.189 43.21C103.822 43.7367 103.169 44.1967 102.229 44.59C102.836 44.7433 103.326 44.95 103.699 45.21C104.072 45.47 104.359 45.76 104.559 46.08C104.759 46.3933 104.896 46.7233 104.969 47.07C105.042 47.41 105.079 47.7467 105.079 48.08C105.079 49.4133 104.626 50.4 103.719 51.04C102.812 51.68 101.369 52 99.3891 52H93.9091ZM96.8191 49.74H99.4491C100.329 49.74 100.992 49.5633 101.439 49.21C101.892 48.8567 102.119 48.3833 102.119 47.79C102.119 47.3633 102.009 47.0067 101.789 46.72C101.569 46.4267 101.269 46.2067 100.889 46.06C100.516 45.9133 100.089 45.84 99.6091 45.84H96.8191V49.74ZM96.8191 43.52H99.6091C99.9091 43.52 100.196 43.4867 100.469 43.42C100.749 43.3467 100.996 43.2367 101.209 43.09C101.429 42.9433 101.602 42.7567 101.729 42.53C101.856 42.2967 101.919 42.0233 101.919 41.71C101.919 41.0833 101.682 40.61 101.209 40.29C100.742 39.9633 100.142 39.8 99.4091 39.8H96.8191V43.52ZM112.117 52.2C111.091 52.2 110.187 51.9867 109.407 51.56C108.634 51.1267 108.031 50.5167 107.597 49.73C107.164 48.9433 106.947 48.0167 106.947 46.95C106.947 45.9167 107.144 44.9867 107.537 44.16C107.937 43.3267 108.511 42.67 109.257 42.19C110.004 41.7033 110.907 41.46 111.967 41.46C113.021 41.46 113.904 41.6833 114.617 42.13C115.331 42.57 115.871 43.1867 116.237 43.98C116.604 44.7667 116.787 45.6767 116.787 46.71V47.5H109.837C109.837 48.0267 109.924 48.4867 110.097 48.88C110.271 49.2667 110.521 49.5667 110.847 49.78C111.181 49.9867 111.581 50.09 112.047 50.09C112.547 50.09 112.984 49.9833 113.357 49.77C113.731 49.5567 113.994 49.2067 114.147 48.72H116.777C116.657 49.4533 116.364 50.08 115.897 50.6C115.431 51.12 114.864 51.5167 114.197 51.79C113.531 52.0633 112.837 52.2 112.117 52.2ZM109.837 45.76H114.057C114.057 45.3467 113.977 44.9667 113.817 44.62C113.664 44.2733 113.431 44 113.117 43.8C112.811 43.6 112.424 43.5 111.957 43.5C111.511 43.5 111.127 43.61 110.807 43.83C110.494 44.0433 110.251 44.3233 110.077 44.67C109.911 45.0167 109.831 45.38 109.837 45.76ZM123.031 52.2C122.311 52.2 121.618 52.0833 120.951 51.85C120.291 51.61 119.728 51.2367 119.261 50.73C118.801 50.2167 118.511 49.5533 118.391 48.74H120.911C121.004 49.1067 121.164 49.3967 121.391 49.61C121.624 49.8233 121.888 49.9767 122.181 50.07C122.474 50.1567 122.754 50.2 123.021 50.2C123.581 50.2 124.031 50.1133 124.371 49.94C124.718 49.76 124.891 49.4867 124.891 49.12C124.891 48.84 124.788 48.6167 124.581 48.45C124.381 48.2833 124.048 48.1567 123.581 48.07L121.761 47.69C120.848 47.4967 120.111 47.17 119.551 46.71C118.998 46.2433 118.718 45.5833 118.711 44.73C118.704 44.11 118.864 43.5533 119.191 43.06C119.524 42.5667 120.014 42.1767 120.661 41.89C121.314 41.6033 122.111 41.46 123.051 41.46C124.324 41.46 125.341 41.74 126.101 42.3C126.868 42.86 127.258 43.65 127.271 44.67H124.831C124.758 44.27 124.558 43.9633 124.231 43.75C123.911 43.53 123.504 43.42 123.011 43.42C122.511 43.42 122.098 43.51 121.771 43.69C121.444 43.87 121.281 44.1433 121.281 44.51C121.281 44.7833 121.414 45 121.681 45.16C121.948 45.3133 122.361 45.4467 122.921 45.56L124.601 45.94C125.181 46.08 125.651 46.2733 126.011 46.52C126.378 46.76 126.661 47.0233 126.861 47.31C127.061 47.5967 127.198 47.8867 127.271 48.18C127.351 48.4667 127.391 48.7267 127.391 48.96C127.391 49.6467 127.208 50.2333 126.841 50.72C126.474 51.2 125.964 51.5667 125.311 51.82C124.658 52.0733 123.898 52.2 123.031 52.2ZM133.839 52.11C132.926 52.11 132.219 51.9933 131.719 51.76C131.226 51.5267 130.882 51.2 130.689 50.78C130.502 50.36 130.409 49.8733 130.409 49.32V43.69H128.729V41.66H130.499L131.239 38.54H133.319V41.65H135.619V43.69H133.319L133.339 49.2C133.339 49.4533 133.369 49.6433 133.429 49.77C133.496 49.89 133.596 49.97 133.729 50.01C133.869 50.0433 134.046 50.06 134.259 50.06H135.649V51.86C135.509 51.92 135.299 51.9767 135.019 52.03C134.739 52.0833 134.346 52.11 133.839 52.11ZM43.51 82.2C42.1633 82.2 41 81.8867 40.02 81.26C39.04 80.6333 38.2833 79.7533 37.75 78.62C37.2233 77.4867 36.96 76.1633 36.96 74.65C36.96 73.13 37.2233 71.8267 37.75 70.74C38.2767 69.6467 39.03 68.8067 40.01 68.22C40.99 67.6333 42.1567 67.34 43.51 67.34C44.5967 67.34 45.5633 67.56 46.41 68C47.2633 68.4333 47.95 69.0267 48.47 69.78C48.9967 70.5333 49.3067 71.3833 49.4 72.33H46.34C46.2467 71.83 46.0767 71.3867 45.83 71C45.5833 70.6067 45.26 70.3 44.86 70.08C44.46 69.8533 43.98 69.74 43.42 69.74C42.7467 69.74 42.1667 69.9033 41.68 70.23C41.1933 70.5567 40.82 71.0833 40.56 71.81C40.3 72.5367 40.17 73.4967 40.17 74.69C40.17 76.49 40.4567 77.7933 41.03 78.6C41.61 79.4 42.4067 79.8 43.42 79.8C43.98 79.8 44.46 79.6733 44.86 79.42C45.26 79.16 45.5833 78.82 45.83 78.4C46.0767 77.9733 46.2467 77.5067 46.34 77H49.4C49.3133 77.6867 49.1467 78.3433 48.9 78.97C48.6533 79.59 48.3033 80.1433 47.85 80.63C47.3967 81.1167 46.8133 81.5 46.1 81.78C45.3867 82.06 44.5233 82.2 43.51 82.2ZM56.1545 82.2C55.1412 82.2 54.2579 81.9833 53.5045 81.55C52.7579 81.1167 52.1779 80.5033 51.7645 79.71C51.3579 78.9167 51.1545 77.9767 51.1545 76.89C51.1545 75.8033 51.3579 74.8533 51.7645 74.04C52.1779 73.2267 52.7579 72.5933 53.5045 72.14C54.2579 71.6867 55.1445 71.46 56.1645 71.46C57.1845 71.46 58.0679 71.6833 58.8145 72.13C59.5612 72.57 60.1379 73.1967 60.5445 74.01C60.9512 74.8233 61.1545 75.7833 61.1545 76.89C61.1545 77.93 60.9545 78.85 60.5545 79.65C60.1612 80.4433 59.5912 81.0667 58.8445 81.52C58.1045 81.9733 57.2079 82.2 56.1545 82.2ZM56.1645 80.03C56.6779 80.03 57.0912 79.88 57.4045 79.58C57.7179 79.28 57.9445 78.8867 58.0845 78.4C58.2245 77.9067 58.2945 77.37 58.2945 76.79C58.2945 76.2433 58.2312 75.7267 58.1045 75.24C57.9779 74.7533 57.7579 74.36 57.4445 74.06C57.1312 73.76 56.7045 73.61 56.1645 73.61C55.6512 73.61 55.2345 73.7533 54.9145 74.04C54.6012 74.32 54.3712 74.7033 54.2245 75.19C54.0779 75.67 54.0045 76.2033 54.0045 76.79C54.0045 77.33 54.0712 77.85 54.2045 78.35C54.3379 78.8433 54.5612 79.2467 54.8745 79.56C55.1879 79.8733 55.6179 80.03 56.1645 80.03ZM66.4484 82.18C65.6884 82.18 65.0851 82.09 64.6384 81.91C64.1918 81.73 63.8618 81.4933 63.6484 81.2C63.4351 80.9 63.2984 80.57 63.2384 80.21C63.1784 79.8433 63.1484 79.4733 63.1484 79.1V67.14H66.0084V78.74C66.0084 79.12 66.0884 79.43 66.2484 79.67C66.4151 79.9033 66.7251 80.0467 67.1784 80.1L67.6684 80.13V81.93C67.4684 81.9967 67.2651 82.0533 67.0584 82.1C66.8518 82.1533 66.6484 82.18 66.4484 82.18ZM72.7375 82.18C71.9775 82.18 71.3742 82.09 70.9275 81.91C70.4808 81.73 70.1508 81.4933 69.9375 81.2C69.7242 80.9 69.5875 80.57 69.5275 80.21C69.4675 79.8433 69.4375 79.4733 69.4375 79.1V67.14H72.2975V78.74C72.2975 79.12 72.3775 79.43 72.5375 79.67C72.7042 79.9033 73.0142 80.0467 73.4675 80.1L73.9575 80.13V81.93C73.7575 81.9967 73.5542 82.0533 73.3475 82.1C73.1408 82.1533 72.9375 82.18 72.7375 82.18ZM80.1641 82.2C79.1374 82.2 78.2341 81.9867 77.4541 81.56C76.6807 81.1267 76.0774 80.5167 75.6441 79.73C75.2107 78.9433 74.9941 78.0167 74.9941 76.95C74.9941 75.9167 75.1907 74.9867 75.5841 74.16C75.9841 73.3267 76.5574 72.67 77.3041 72.19C78.0507 71.7033 78.9541 71.46 80.0141 71.46C81.0674 71.46 81.9507 71.6833 82.6641 72.13C83.3774 72.57 83.9174 73.1867 84.2841 73.98C84.6507 74.7667 84.8341 75.6767 84.8341 76.71V77.5H77.8841C77.8841 78.0267 77.9707 78.4867 78.1441 78.88C78.3174 79.2667 78.5674 79.5667 78.8941 79.78C79.2274 79.9867 79.6274 80.09 80.0941 80.09C80.5941 80.09 81.0307 79.9833 81.4041 79.77C81.7774 79.5567 82.0407 79.2067 82.1941 78.72H84.8241C84.7041 79.4533 84.4107 80.08 83.9441 80.6C83.4774 81.12 82.9107 81.5167 82.2441 81.79C81.5774 82.0633 80.8841 82.2 80.1641 82.2ZM77.8841 75.76H82.1041C82.1041 75.3467 82.0241 74.9667 81.8641 74.62C81.7107 74.2733 81.4774 74 81.1641 73.8C80.8574 73.6 80.4707 73.5 80.0041 73.5C79.5574 73.5 79.1741 73.61 78.8541 73.83C78.5407 74.0433 78.2974 74.3233 78.1241 74.67C77.9574 75.0167 77.8774 75.38 77.8841 75.76ZM91.4375 82.2C90.4775 82.2 89.6208 81.9867 88.8675 81.56C88.1142 81.1333 87.5208 80.5233 87.0875 79.73C86.6608 78.93 86.4475 77.9767 86.4475 76.87C86.4475 75.8033 86.6542 74.8633 87.0675 74.05C87.4808 73.2367 88.0608 72.6033 88.8075 72.15C89.5608 71.69 90.4375 71.46 91.4375 71.46C92.3042 71.46 93.0508 71.6367 93.6775 71.99C94.3108 72.3433 94.8075 72.82 95.1675 73.42C95.5342 74.02 95.7442 74.69 95.7975 75.43H93.3675C93.3208 75.1567 93.2242 74.8867 93.0775 74.62C92.9308 74.3467 92.7242 74.1233 92.4575 73.95C92.1908 73.77 91.8575 73.68 91.4575 73.68C90.7775 73.68 90.2242 73.9433 89.7975 74.47C89.3775 74.99 89.1675 75.7833 89.1675 76.85C89.1675 77.8567 89.3742 78.6567 89.7875 79.25C90.2008 79.8367 90.7775 80.13 91.5175 80.13C91.9108 80.13 92.2375 80.0333 92.4975 79.84C92.7642 79.6467 92.9708 79.4167 93.1175 79.15C93.2642 78.8767 93.3575 78.6233 93.3975 78.39H95.7675C95.7208 79.1033 95.5142 79.75 95.1475 80.33C94.7808 80.9033 94.2808 81.36 93.6475 81.7C93.0208 82.0333 92.2842 82.2 91.4375 82.2ZM102.003 82.11C101.09 82.11 100.383 81.9933 99.883 81.76C99.3896 81.5267 99.0463 81.2 98.853 80.78C98.6663 80.36 98.573 79.8733 98.573 79.32V73.69H96.893V71.66H98.663L99.403 68.54H101.483V71.65H103.783V73.69H101.483L101.503 79.2C101.503 79.4533 101.533 79.6433 101.593 79.77C101.66 79.89 101.76 79.97 101.893 80.01C102.033 80.0433 102.21 80.06 102.423 80.06H103.813V81.86C103.673 81.92 103.463 81.9767 103.183 82.03C102.903 82.0833 102.51 82.11 102.003 82.11ZM105.893 82V71.66H108.683V82H105.893ZM105.863 70.18V67.55H108.703V70.18H105.863ZM115.705 82.2C114.692 82.2 113.809 81.9833 113.055 81.55C112.309 81.1167 111.729 80.5033 111.315 79.71C110.909 78.9167 110.705 77.9767 110.705 76.89C110.705 75.8033 110.909 74.8533 111.315 74.04C111.729 73.2267 112.309 72.5933 113.055 72.14C113.809 71.6867 114.695 71.46 115.715 71.46C116.735 71.46 117.619 71.6833 118.365 72.13C119.112 72.57 119.689 73.1967 120.095 74.01C120.502 74.8233 120.705 75.7833 120.705 76.89C120.705 77.93 120.505 78.85 120.105 79.65C119.712 80.4433 119.142 81.0667 118.395 81.52C117.655 81.9733 116.759 82.2 115.705 82.2ZM115.715 80.03C116.229 80.03 116.642 79.88 116.955 79.58C117.269 79.28 117.495 78.8867 117.635 78.4C117.775 77.9067 117.845 77.37 117.845 76.79C117.845 76.2433 117.782 75.7267 117.655 75.24C117.529 74.7533 117.309 74.36 116.995 74.06C116.682 73.76 116.255 73.61 115.715 73.61C115.202 73.61 114.785 73.7533 114.465 74.04C114.152 74.32 113.922 74.7033 113.775 75.19C113.629 75.67 113.555 76.2033 113.555 76.79C113.555 77.33 113.622 77.85 113.755 78.35C113.889 78.8433 114.112 79.2467 114.425 79.56C114.739 79.8733 115.169 80.03 115.715 80.03ZM122.699 82V71.66H125.569V73.12C125.729 72.8667 125.936 72.6233 126.189 72.39C126.449 72.15 126.776 71.9533 127.169 71.8C127.563 71.6467 128.029 71.57 128.569 71.57C129.203 71.57 129.793 71.6933 130.339 71.94C130.893 72.1867 131.339 72.5767 131.679 73.11C132.019 73.6367 132.189 74.3267 132.189 75.18V82H129.269V75.54C129.269 74.98 129.103 74.56 128.769 74.28C128.436 74 128.029 73.86 127.549 73.86C127.229 73.86 126.919 73.9167 126.619 74.03C126.326 74.1433 126.086 74.3133 125.899 74.54C125.713 74.7667 125.619 75.0467 125.619 75.38V82H122.699ZM138.617 82.2C137.897 82.2 137.204 82.0833 136.537 81.85C135.877 81.61 135.314 81.2367 134.847 80.73C134.387 80.2167 134.097 79.5533 133.977 78.74H136.497C136.59 79.1067 136.75 79.3967 136.977 79.61C137.21 79.8233 137.474 79.9767 137.767 80.07C138.06 80.1567 138.34 80.2 138.607 80.2C139.167 80.2 139.617 80.1133 139.957 79.94C140.304 79.76 140.477 79.4867 140.477 79.12C140.477 78.84 140.374 78.6167 140.167 78.45C139.967 78.2833 139.634 78.1567 139.167 78.07L137.347 77.69C136.434 77.4967 135.697 77.17 135.137 76.71C134.584 76.2433 134.304 75.5833 134.297 74.73C134.29 74.11 134.45 73.5533 134.777 73.06C135.11 72.5667 135.6 72.1767 136.247 71.89C136.9 71.6033 137.697 71.46 138.637 71.46C139.91 71.46 140.927 71.74 141.687 72.3C142.454 72.86 142.844 73.65 142.857 74.67H140.417C140.344 74.27 140.144 73.9633 139.817 73.75C139.497 73.53 139.09 73.42 138.597 73.42C138.097 73.42 137.684 73.51 137.357 73.69C137.03 73.87 136.867 74.1433 136.867 74.51C136.867 74.7833 137 75 137.267 75.16C137.534 75.3133 137.947 75.4467 138.507 75.56L140.187 75.94C140.767 76.08 141.237 76.2733 141.597 76.52C141.964 76.76 142.247 77.0233 142.447 77.31C142.647 77.5967 142.784 77.8867 142.857 78.18C142.937 78.4667 142.977 78.7267 142.977 78.96C142.977 79.6467 142.794 80.2333 142.427 80.72C142.06 81.2 141.55 81.5667 140.897 81.82C140.244 82.0733 139.484 82.2 138.617 82.2Z" fill="white"/>
<circle cx="4" cy="140" r="2" fill="white"/>
<circle cx="13" cy="140" r="2" fill="white"/>
<circle cx="22" cy="140" r="2" fill="white"/>
<circle cx="31" cy="140" r="2" fill="white"/>
<circle cx="4" cy="149" r="2" fill="white"/>
<circle cx="13" cy="149" r="2" fill="white"/>
<circle cx="22" cy="149" r="2" fill="white"/>
<circle cx="31" cy="149" r="2" fill="white"/>
<circle cx="4" cy="158" r="2" fill="white"/>
<circle cx="13" cy="158" r="2" fill="white"/>
<circle cx="22" cy="158" r="2" fill="white"/>
<circle cx="31" cy="158" r="2" fill="white"/>
<circle cx="4" cy="167" r="2" fill="white"/>
<circle cx="13" cy="167" r="2" fill="white"/>
<circle cx="22" cy="167" r="2" fill="white"/>
<circle cx="31" cy="167" r="2" fill="white"/>
<circle cx="4" cy="176" r="2" fill="white"/>
<circle cx="13" cy="176" r="2" fill="white"/>
<circle cx="22" cy="176" r="2" fill="white"/>
<circle cx="31" cy="176" r="2" fill="white"/>
<defs>
<filter id="filter0_d_455_358" x="149" y="108" width="70" height="70" filterUnits="userSpaceOnUse" color-interpolation-filters="sRGB">
<feFlood flood-opacity="0" result="BackgroundImageFix"/>
<feColorMatrix in="SourceAlpha" type="matrix" values="0 0 0 0 0 0 0 0 0 0 0 0 0 0 0 0 0 0 127 0" result="hardAlpha"/>
<feOffset dx="1" dy="1"/>
<feGaussianBlur stdDeviation="5"/>
<feComposite in2="hardAlpha" operator="out"/>
<feColorMatrix type="matrix" values="0 0 0 0 0 0 0 0 0 0 0 0 0 0 0 0 0 0 0.25 0"/>
<feBlend mode="normal" in2="BackgroundImageFix" result="effect1_dropShadow_455_358"/>
<feBlend mode="normal" in="SourceGraphic" in2="effect1_dropShadow_455_358" result="shape"/>
</filter>
<clipPath id="clip0_455_358">
<rect width="24" height="24" fill="white" transform="translate(171 130)"/>
</clipPath>
</defs>
</svg>
