<svg width="203" height="202" viewBox="0 0 203 202" fill="none" xmlns="http://www.w3.org/2000/svg">
<rect x="23" y="22" width="180" height="180" rx="20" fill="#FB5934"/>
<g filter="url(#filter0_d_455_391)">
<rect x="12" y="11" width="50" height="50" rx="14" fill="white" shape-rendering="crispEdges"/>
<path d="M44 29L30 43" stroke="black" stroke-width="2" stroke-linecap="round" stroke-linejoin="round"/>
<path d="M31.5 33C32.8807 33 34 31.8807 34 30.5C34 29.1193 32.8807 28 31.5 28C30.1193 28 29 29.1193 29 30.5C29 31.8807 30.1193 33 31.5 33Z" stroke="black" stroke-width="2" stroke-linecap="round" stroke-linejoin="round"/>
<path d="M42.5 44C43.8807 44 45 42.8807 45 41.5C45 40.1193 43.8807 39 42.5 39C41.1193 39 40 40.1193 40 41.5C40 42.8807 41.1193 44 42.5 44Z" stroke="black" stroke-width="2" stroke-linecap="round" stroke-linejoin="round"/>
</g>
<path d="M66.04 134.2C65.32 134.2 64.6167 134.11 63.93 133.93C63.2433 133.75 62.6167 133.48 62.05 133.12C61.4833 132.76 61.0167 132.31 60.65 131.77C60.29 131.23 60.0733 130.597 60 129.87H62.99C63.09 130.31 63.28 130.68 63.56 130.98C63.8467 131.28 64.2133 131.51 64.66 131.67C65.1133 131.83 65.63 131.91 66.21 131.91C66.67 131.91 67.1067 131.843 67.52 131.71C67.9333 131.577 68.27 131.373 68.53 131.1C68.79 130.827 68.92 130.483 68.92 130.07C68.92 129.577 68.74 129.207 68.38 128.96C68.02 128.707 67.53 128.507 66.91 128.36L64.2 127.77C63.4333 127.61 62.7633 127.363 62.19 127.03C61.6233 126.69 61.1867 126.25 60.88 125.71C60.5733 125.163 60.42 124.5 60.42 123.72C60.42 122.82 60.6667 122.043 61.16 121.39C61.66 120.737 62.3367 120.237 63.19 119.89C64.05 119.537 65.0133 119.36 66.08 119.36C67.2867 119.36 68.3033 119.557 69.13 119.95C69.9633 120.337 70.6 120.863 71.04 121.53C71.48 122.19 71.7033 122.927 71.71 123.74H68.79C68.7367 123.24 68.5833 122.84 68.33 122.54C68.0767 122.233 67.75 122.013 67.35 121.88C66.9567 121.74 66.5067 121.67 66 121.67C65.1267 121.67 64.49 121.847 64.09 122.2C63.69 122.553 63.49 122.963 63.49 123.43C63.49 123.87 63.64 124.227 63.94 124.5C64.2467 124.767 64.7367 124.97 65.41 125.11L67.92 125.65C68.8533 125.83 69.61 126.117 70.19 126.51C70.77 126.897 71.1933 127.367 71.46 127.92C71.7267 128.473 71.86 129.093 71.86 129.78C71.86 130.653 71.61 131.423 71.11 132.09C70.6167 132.75 69.9333 133.267 69.06 133.64C68.1867 134.013 67.18 134.2 66.04 134.2ZM77.0309 134.2C76.3776 134.2 75.7843 134.077 75.2509 133.83C74.7243 133.583 74.3076 133.227 74.0009 132.76C73.6943 132.287 73.5409 131.713 73.5409 131.04C73.5409 129.907 73.9643 129.047 74.8109 128.46C75.6576 127.867 76.9943 127.56 78.8209 127.54L80.1209 127.52V126.9C80.1209 126.427 79.9809 126.063 79.7009 125.81C79.4276 125.55 78.9976 125.423 78.4109 125.43C77.9909 125.437 77.5876 125.537 77.2009 125.73C76.8209 125.923 76.5576 126.26 76.4109 126.74H73.9809C74.0209 125.993 74.2376 125.38 74.6309 124.9C75.0309 124.413 75.5676 124.053 76.2409 123.82C76.9143 123.58 77.6843 123.46 78.5509 123.46C79.6043 123.46 80.4509 123.593 81.0909 123.86C81.7309 124.12 82.1943 124.497 82.4809 124.99C82.7743 125.477 82.9209 126.057 82.9209 126.73V134H80.4809L80.2409 132.22C79.8876 132.967 79.4443 133.483 78.9109 133.77C78.3843 134.057 77.7576 134.2 77.0309 134.2ZM78.0209 132.28C78.2809 132.28 78.5343 132.233 78.7809 132.14C79.0343 132.04 79.2609 131.91 79.4609 131.75C79.6609 131.583 79.8176 131.397 79.9309 131.19C80.0509 130.983 80.1143 130.77 80.1209 130.55V129.02L79.0709 129.04C78.5843 129.047 78.1309 129.107 77.7109 129.22C77.2909 129.327 76.9509 129.503 76.6909 129.75C76.4376 129.997 76.3109 130.33 76.3109 130.75C76.3109 131.23 76.4743 131.607 76.8009 131.88C77.1343 132.147 77.5409 132.28 78.0209 132.28ZM88.5891 134.18C87.8291 134.18 87.2257 134.09 86.7791 133.91C86.3324 133.73 86.0024 133.493 85.7891 133.2C85.5757 132.9 85.4391 132.57 85.3791 132.21C85.3191 131.843 85.2891 131.473 85.2891 131.1V119.14H88.1491V130.74C88.1491 131.12 88.2291 131.43 88.3891 131.67C88.5557 131.903 88.8657 132.047 89.3191 132.1L89.8091 132.13V133.93C89.6091 133.997 89.4057 134.053 89.1991 134.1C88.9924 134.153 88.7891 134.18 88.5891 134.18ZM96.0156 134.2C94.989 134.2 94.0856 133.987 93.3056 133.56C92.5323 133.127 91.929 132.517 91.4956 131.73C91.0623 130.943 90.8456 130.017 90.8456 128.95C90.8456 127.917 91.0423 126.987 91.4356 126.16C91.8356 125.327 92.409 124.67 93.1556 124.19C93.9023 123.703 94.8056 123.46 95.8656 123.46C96.919 123.46 97.8023 123.683 98.5156 124.13C99.229 124.57 99.769 125.187 100.136 125.98C100.502 126.767 100.686 127.677 100.686 128.71V129.5H93.7356C93.7356 130.027 93.8223 130.487 93.9956 130.88C94.169 131.267 94.419 131.567 94.7456 131.78C95.079 131.987 95.479 132.09 95.9456 132.09C96.4456 132.09 96.8823 131.983 97.2556 131.77C97.629 131.557 97.8923 131.207 98.0456 130.72H100.676C100.556 131.453 100.262 132.08 99.7956 132.6C99.329 133.12 98.7623 133.517 98.0956 133.79C97.429 134.063 96.7356 134.2 96.0156 134.2ZM93.7356 127.76H97.9556C97.9556 127.347 97.8756 126.967 97.7156 126.62C97.5623 126.273 97.329 126 97.0156 125.8C96.709 125.6 96.3223 125.5 95.8556 125.5C95.409 125.5 95.0256 125.61 94.7056 125.83C94.3923 126.043 94.149 126.323 93.9756 126.67C93.809 127.017 93.729 127.38 93.7356 127.76ZM111.052 134.2C110.572 134.2 110.099 134.127 109.632 133.98C109.172 133.833 108.752 133.617 108.372 133.33C107.992 133.043 107.686 132.69 107.452 132.27C107.226 131.85 107.112 131.363 107.112 130.81V123.66H110.032V130.44C110.032 130.92 110.189 131.313 110.502 131.62C110.816 131.927 111.276 132.08 111.882 132.08C112.456 132.08 112.909 131.933 113.242 131.64C113.582 131.34 113.752 130.923 113.752 130.39V123.66H116.642V134H114.442L114.102 131.95C113.982 132.557 113.756 133.023 113.422 133.35C113.096 133.67 112.719 133.89 112.292 134.01C111.872 134.137 111.459 134.2 111.052 134.2ZM119.195 137.22V123.66H122.125L122.135 125.15C122.289 124.903 122.475 124.68 122.695 124.48C122.922 124.273 123.172 124.093 123.445 123.94C123.719 123.787 124.015 123.67 124.335 123.59C124.655 123.503 124.992 123.46 125.345 123.46C126.112 123.46 126.795 123.65 127.395 124.03C127.995 124.403 128.465 124.983 128.805 125.77C129.152 126.55 129.325 127.543 129.325 128.75C129.325 130.003 129.139 131.033 128.765 131.84C128.399 132.64 127.892 133.233 127.245 133.62C126.599 134.007 125.869 134.2 125.055 134.2C124.722 134.2 124.409 134.153 124.115 134.06C123.822 133.973 123.549 133.85 123.295 133.69C123.049 133.53 122.825 133.347 122.625 133.14C122.432 132.927 122.262 132.697 122.115 132.45V137.22H119.195ZM124.355 132.06C124.989 132.06 125.519 131.797 125.945 131.27C126.379 130.743 126.595 129.91 126.595 128.77C126.595 127.77 126.389 126.99 125.975 126.43C125.569 125.863 125.029 125.58 124.355 125.58C123.602 125.58 123.039 125.887 122.665 126.5C122.299 127.107 122.115 127.863 122.115 128.77C122.115 129.35 122.195 129.89 122.355 130.39C122.522 130.89 122.769 131.293 123.095 131.6C123.429 131.907 123.849 132.06 124.355 132.06ZM140.257 134.11C139.344 134.11 138.637 133.993 138.137 133.76C137.644 133.527 137.3 133.2 137.107 132.78C136.92 132.36 136.827 131.873 136.827 131.32V125.69H135.147V123.66H136.917L137.657 120.54H139.737V123.65H142.037V125.69H139.737L139.757 131.2C139.757 131.453 139.787 131.643 139.847 131.77C139.914 131.89 140.014 131.97 140.147 132.01C140.287 132.043 140.464 132.06 140.677 132.06H142.067V133.86C141.927 133.92 141.717 133.977 141.437 134.03C141.157 134.083 140.764 134.11 140.257 134.11ZM148.295 134.2C147.282 134.2 146.398 133.983 145.645 133.55C144.898 133.117 144.318 132.503 143.905 131.71C143.498 130.917 143.295 129.977 143.295 128.89C143.295 127.803 143.498 126.853 143.905 126.04C144.318 125.227 144.898 124.593 145.645 124.14C146.398 123.687 147.285 123.46 148.305 123.46C149.325 123.46 150.208 123.683 150.955 124.13C151.702 124.57 152.278 125.197 152.685 126.01C153.092 126.823 153.295 127.783 153.295 128.89C153.295 129.93 153.095 130.85 152.695 131.65C152.302 132.443 151.732 133.067 150.985 133.52C150.245 133.973 149.348 134.2 148.295 134.2ZM148.305 132.03C148.818 132.03 149.232 131.88 149.545 131.58C149.858 131.28 150.085 130.887 150.225 130.4C150.365 129.907 150.435 129.37 150.435 128.79C150.435 128.243 150.372 127.727 150.245 127.24C150.118 126.753 149.898 126.36 149.585 126.06C149.272 125.76 148.845 125.61 148.305 125.61C147.792 125.61 147.375 125.753 147.055 126.04C146.742 126.32 146.512 126.703 146.365 127.19C146.218 127.67 146.145 128.203 146.145 128.79C146.145 129.33 146.212 129.85 146.345 130.35C146.478 130.843 146.702 131.247 147.015 131.56C147.328 131.873 147.758 132.03 148.305 132.03ZM65.83 164.22C64.6033 164.22 63.5433 163.923 62.65 163.33C61.7567 162.737 61.07 161.903 60.59 160.83C60.1167 159.757 59.88 158.497 59.88 157.05C59.88 155.463 60.12 154.093 60.6 152.94C61.0867 151.787 61.7833 150.9 62.69 150.28C63.5967 149.653 64.6833 149.34 65.95 149.34C66.8567 149.34 67.6933 149.507 68.46 149.84C69.2267 150.167 69.85 150.643 70.33 151.27C70.8167 151.89 71.0833 152.637 71.13 153.51H68.46C68.2867 152.903 67.9933 152.443 67.58 152.13C67.1667 151.81 66.6433 151.65 66.01 151.65C65.3167 151.65 64.74 151.847 64.28 152.24C63.82 152.633 63.49 153.183 63.29 153.89C63.09 154.597 63.0367 155.42 63.13 156.36C63.35 156.04 63.63 155.77 63.97 155.55C64.31 155.323 64.69 155.15 65.11 155.03C65.53 154.91 65.9667 154.85 66.42 154.85C67.4 154.85 68.2567 155.033 68.99 155.4C69.7233 155.76 70.2967 156.273 70.71 156.94C71.1233 157.607 71.33 158.387 71.33 159.28C71.33 160.227 71.0967 161.073 70.63 161.82C70.17 162.56 69.5267 163.147 68.7 163.58C67.8733 164.007 66.9167 164.22 65.83 164.22ZM65.73 161.98C66.1967 161.98 66.6167 161.873 66.99 161.66C67.37 161.44 67.6733 161.137 67.9 160.75C68.1267 160.363 68.24 159.92 68.24 159.42C68.24 158.887 68.13 158.443 67.91 158.09C67.69 157.737 67.39 157.473 67.01 157.3C66.6367 157.12 66.2133 157.03 65.74 157.03C65.3267 157.03 64.9267 157.123 64.54 157.31C64.16 157.49 63.8467 157.723 63.6 158.01C63.36 158.29 63.24 158.577 63.24 158.87C63.2333 159.517 63.3333 160.073 63.54 160.54C63.7533 161 64.0467 161.357 64.42 161.61C64.8 161.857 65.2367 161.98 65.73 161.98ZM78.6045 164.22C76.8512 164.22 75.4812 163.583 74.4945 162.31C73.5145 161.037 73.0245 159.203 73.0245 156.81C73.0245 155.21 73.2512 153.853 73.7045 152.74C74.1579 151.627 74.8012 150.783 75.6345 150.21C76.4679 149.63 77.4579 149.34 78.6045 149.34C80.3245 149.34 81.6812 149.983 82.6745 151.27C83.6679 152.55 84.1645 154.393 84.1645 156.8C84.1645 159.193 83.6745 161.03 82.6945 162.31C81.7145 163.583 80.3512 164.22 78.6045 164.22ZM78.6045 161.83C79.4645 161.83 80.0945 161.447 80.4945 160.68C80.8945 159.907 81.0945 158.617 81.0945 156.81C81.0945 154.963 80.8912 153.64 80.4845 152.84C80.0779 152.04 79.4479 151.64 78.5945 151.64C77.7412 151.64 77.1045 152.043 76.6845 152.85C76.2712 153.657 76.0645 154.977 76.0645 156.81C76.0645 158.61 76.2712 159.897 76.6845 160.67C77.0979 161.443 77.7379 161.83 78.6045 161.83ZM88.4852 164.08L98.2552 149.38H99.9452L90.2252 164.08H88.4852ZM89.6252 157.52C88.9318 157.52 88.3085 157.34 87.7552 156.98C87.2018 156.613 86.7652 156.123 86.4452 155.51C86.1252 154.897 85.9652 154.213 85.9652 153.46C85.9652 152.693 86.1252 151.997 86.4452 151.37C86.7718 150.743 87.2118 150.247 87.7652 149.88C88.3185 149.507 88.9385 149.32 89.6252 149.32C90.3118 149.32 90.9285 149.507 91.4752 149.88C92.0218 150.247 92.4552 150.743 92.7752 151.37C93.0952 151.997 93.2552 152.693 93.2552 153.46C93.2552 154.213 93.0985 154.897 92.7852 155.51C92.4718 156.123 92.0385 156.613 91.4852 156.98C90.9385 157.34 90.3185 157.52 89.6252 157.52ZM89.6052 156.04C90.1318 156.04 90.5152 155.823 90.7552 155.39C90.9952 154.95 91.1152 154.307 91.1152 153.46C91.1152 152.587 90.9918 151.923 90.7452 151.47C90.4985 151.017 90.1185 150.79 89.6052 150.79C89.0985 150.79 88.7218 151.02 88.4752 151.48C88.2285 151.933 88.1052 152.593 88.1052 153.46C88.1052 154.3 88.2252 154.94 88.4652 155.38C88.7118 155.82 89.0918 156.04 89.6052 156.04ZM99.1152 164.2C98.4152 164.2 97.7885 164.02 97.2352 163.66C96.6818 163.3 96.2452 162.813 95.9252 162.2C95.6052 161.58 95.4452 160.887 95.4452 160.12C95.4452 159.353 95.6052 158.657 95.9252 158.03C96.2518 157.403 96.6918 156.907 97.2452 156.54C97.8052 156.167 98.4285 155.98 99.1152 155.98C99.8018 155.98 100.418 156.167 100.965 156.54C101.518 156.907 101.955 157.403 102.275 158.03C102.595 158.657 102.755 159.353 102.755 160.12C102.755 160.887 102.598 161.58 102.285 162.2C101.972 162.813 101.538 163.3 100.985 163.66C100.438 164.02 99.8152 164.2 99.1152 164.2ZM99.0952 162.7C99.6152 162.7 99.9952 162.483 100.235 162.05C100.475 161.61 100.595 160.973 100.595 160.14C100.595 159.267 100.472 158.603 100.225 158.15C99.9785 157.697 99.6018 157.47 99.0952 157.47C98.5885 157.47 98.2118 157.7 97.9652 158.16C97.7252 158.613 97.6052 159.273 97.6052 160.14C97.6052 160.967 97.7252 161.6 97.9652 162.04C98.2052 162.48 98.5818 162.7 99.0952 162.7Z" fill="white"/>
<circle cx="170" cy="44" r="2" fill="white"/>
<circle cx="179" cy="44" r="2" fill="white"/>
<circle cx="188" cy="44" r="2" fill="white"/>
<circle cx="197" cy="44" r="2" fill="white"/>
<circle cx="170" cy="53" r="2" fill="white"/>
<circle cx="179" cy="53" r="2" fill="white"/>
<circle cx="188" cy="53" r="2" fill="white"/>
<circle cx="197" cy="53" r="2" fill="white"/>
<circle cx="170" cy="62" r="2" fill="white"/>
<circle cx="179" cy="62" r="2" fill="white"/>
<circle cx="188" cy="62" r="2" fill="white"/>
<circle cx="197" cy="62" r="2" fill="white"/>
<circle cx="170" cy="71" r="2" fill="white"/>
<circle cx="179" cy="71" r="2" fill="white"/>
<circle cx="188" cy="71" r="2" fill="white"/>
<circle cx="197" cy="71" r="2" fill="white"/>
<circle cx="170" cy="80" r="2" fill="white"/>
<circle cx="179" cy="80" r="2" fill="white"/>
<circle cx="188" cy="80" r="2" fill="white"/>
<circle cx="197" cy="80" r="2" fill="white"/>
<defs>
<filter id="filter0_d_455_391" x="0" y="0" width="70" height="70" filterUnits="userSpaceOnUse" color-interpolation-filters="sRGB">
<feFlood flood-opacity="0" result="BackgroundImageFix"/>
<feColorMatrix in="SourceAlpha" type="matrix" values="0 0 0 0 0 0 0 0 0 0 0 0 0 0 0 0 0 0 127 0" result="hardAlpha"/>
<feOffset dx="-2" dy="-1"/>
<feGaussianBlur stdDeviation="5"/>
<feComposite in2="hardAlpha" operator="out"/>
<feColorMatrix type="matrix" values="0 0 0 0 0 0 0 0 0 0 0 0 0 0 0 0 0 0 0.25 0"/>
<feBlend mode="normal" in2="BackgroundImageFix" result="effect1_dropShadow_455_391"/>
<feBlend mode="normal" in="SourceGraphic" in2="effect1_dropShadow_455_391" result="shape"/>
</filter>
</defs>
</svg>
